<?xml version="1.0" standalone="no"?>
<!DOCTYPE svg PUBLIC "-//W3C//DTD SVG 1.1//EN" "http://www.w3.org/Graphics/SVG/1.1/DTD/svg11.dtd" >
<svg>
<metadata>
Created by FontForge 20090914 at Wed Mar 16 20:34:56 2022
 By www-data
Copyright (C) 1992 Monotype Corporation plc. All rights reserved. Portions &#194;&#169; 1992 Microsoft Corp. All rights reserved.
</metadata>
<defs>
<font id="Castellar" horiz-adv-x="1665" >
  <font-face 
    font-family="Castellar"
    font-weight="400"
    font-stretch="normal"
    units-per-em="2048"
    panose-1="2 10 4 2 6 4 6 1 3 1"
    ascent="1638"
    descent="-410"
    cap-height="1464"
    bbox="-369 -571.003 2468 1878"
    underline-thickness="102"
    underline-position="-154"
    unicode-range="U+0020-U+F002"
  />
<missing-glyph horiz-adv-x="1024" 
d="M0 1365h860v-1365h-860v1365zM41 1324v-1283h778v1283h-778z" />
    <glyph glyph-name=".notdef" horiz-adv-x="1024" 
d="M0 1365h860v-1365h-860v1365zM41 1324v-1283h778v1283h-778z" />
    <glyph glyph-name="space" unicode=" " horiz-adv-x="737" 
 />
    <glyph glyph-name="exclam" unicode="!" horiz-adv-x="492" 
d="M258 569v871c-35.333 -2 -60.333 -13.833 -75 -35.5s-19.667 -56.5 -15 -104.5l82 -731h8zM268 322l-20.001 0.00292969c0 44 -6.33301 121.333 -19 232s-26 219.167 -40 325.5l-40.5 306.5c-13 98 -19.5 154.667 -19.5 170c0 33.333 11.5 62.166 34.5 86.499
s55.833 36.5 98.5 36.5c22 0 42.167 -5 60.5 -15s33.333 -25 45 -45s17.5 -43.667 17.5 -71c0 -10 -6.16699 -61.167 -18.5 -153.5l-46 -355.5c-18.333 -144.667 -31.666 -255.834 -39.999 -333.501s-12.5 -138.834 -12.5 -183.501zM257.999 16.0029v182.998
c-24 -1.33301 -44.667 -10.666 -62 -27.999s-26 -39.666 -26 -66.999c0 -20.667 8.5 -40 25.5 -58s37.833 -28 62.5 -30zM259.999 229.001c33.333 0 61.835 -11.5 85.502 -34.5s35.5 -51.5 35.5 -85.5s-12 -63 -36 -87s-52.333 -36 -85 -36s-61.334 12 -86.001 36
s-37 53 -37 87s12.167 62.5 36.5 85.5s53.166 34.5 86.499 34.5z" />
    <glyph glyph-name="quotedbl" unicode="&#x22;" horiz-adv-x="836" 
d="M211 803l-53 297c-12 64.667 -18.833 103 -20.5 115s-2.5 30.333 -2.5 55c0 77.333 32.667 116 98 116c32 0 56.833 -9.83301 74.5 -29.5s26.5 -48.5 26.5 -86.5c0 -20.667 -2 -44.667 -6 -72l-19 -100l-55 -295h-43zM578 803l-53.999 292.999l-20 102
c-2.66699 21.333 -4 39 -4 53c0 46.667 8.16699 80.834 24.5 102.501s42.166 32.5 77.499 32.5c32 0 56.333 -9.83301 73 -29.5s25 -48.5 25 -86.5c0 -26 -1.33301 -50 -4 -72c-7.33301 -58.667 -12 -92.667 -14 -102l-57 -293h-47zM234.001 854.999v505
c-28.667 2 -48 -8.33301 -58 -31s-14 -57.667 -12 -105l58 -369h12zM598.001 852.999l1 506c-28.667 2 -48 -8.33301 -58 -31s-14 -57.667 -12 -105l58 -369z" />
    <glyph glyph-name="numbersign" unicode="#" horiz-adv-x="1024" 
d="M424 954h256l57 424h97l-58 -424h209l-12 -94h-211l-49 -373h211l-13 -94h-213l-57 -426h-96l57 426h-254l-59 -426h-96l59 426h-211l12 94h211l51 373h-204l12 94h205l59 424h96zM666 860h-254l-52 -373h256z" />
    <glyph glyph-name="dollar" unicode="$" horiz-adv-x="981" 
d="M664 1409l5.99902 6c-35.333 23.333 -80.333 35 -135 35c-80.667 0 -149 -17.167 -205 -51.5s-97.667 -77.333 -125 -129s-41 -100.834 -41 -147.501c0 -40 11.5 -86 34.5 -138s58.5 -102 106.5 -150c41.333 -40.667 94 -87 158 -139s112 -93 144 -123
s58.667 -64.833 80 -104.5s32 -85.5 32 -137.5c0 -81.333 -31 -147.833 -93 -199.5s-134.667 -77.5 -218 -77.5c-38.667 0 -79 7 -121 21l-2 -8c33.333 -15.333 64.333 -26 93 -32s53 -9 73 -9c67.333 0 127 15.833 179 47.5s91.833 72.167 119.5 121.5
s41.5 99.333 41.5 150c0 35.333 -7.16699 75.666 -21.5 120.999s-50.166 96.333 -107.499 153c-29.333 30 -83 77.333 -161 142s-131.167 110.167 -159.5 136.5s-55.833 60.333 -82.5 102s-40 84.834 -40 129.501c0 54.667 14.667 105.334 44 152.001s68.5 83.667 117.5 111
s100.5 41 154.5 41c62 0 105 -7.66699 129 -23zM546.999 1501l-0.000976562 -27.998c50.667 -2 96.167 -14.167 136.5 -36.5s74.333 -52 102 -89s49.834 -80.5 66.501 -130.5h-16c-38 58 -82.167 103.167 -132.5 135.5s-104.5 47.166 -162.5 44.499
c-7.33301 -188.667 -11 -304 -11 -346v-179c69.333 -56 124.5 -103 165.5 -141s75.5 -75 103.5 -111s49 -73.5 63 -112.5s21 -81.833 21 -128.5c0 -78 -19 -144.667 -57 -200s-83.333 -98.166 -136 -128.499s-100.334 -48.5 -143.001 -54.5l4 -90h-115l4 82
c-46.667 0 -91.667 10.167 -135 30.5s-81.166 48.166 -113.499 83.499s-55.166 71 -68.499 107l12 2c82.667 -98 185.667 -143 309 -135c4.66699 97.333 7 209.333 7 336v254c-66.667 53.333 -122.834 103.166 -168.501 149.499s-81.667 94.833 -108 145.5
s-39.5 103.667 -39.5 159c0 70 23.667 138.833 71 206.5s123.333 113.5 228 137.5v37h113zM531.998 594.002l-0.000976562 -252.002c0 -25.333 1.33301 -64.166 4 -116.499s4.33398 -92.166 5.00098 -119.499c39.333 18 73.666 46.333 102.999 85s44 83 44 133
c0 57.333 -15.167 108.833 -45.5 154.5s-67.166 84.167 -110.499 115.5zM448.997 940l0.000976562 182c0 32 -3 115.333 -9 250c-42.667 -16.667 -76.834 -44.167 -102.501 -82.5s-38.5 -77.833 -38.5 -118.5c0 -84 50 -161 150 -231z" />
    <glyph glyph-name="percent" unicode="%" horiz-adv-x="1962" 
d="M1503 645c-41.333 0 -78.168 -13 -110.501 -39s-57.166 -63.333 -74.499 -112s-26 -106 -26 -172c0 -70 8.16699 -129.5 24.5 -178.5s39.833 -85.5 70.5 -109.5s66 -36 106 -36c70 0 124 29.667 162 89s57 139 57 239c0 112 -19 193.167 -57 243.5
s-88.667 75.5 -152 75.5zM1532 678l0.00195312 -16.001c57.333 -16.667 105.5 -51.5 144.5 -104.5s58.5 -127.5 58.5 -223.5c0 -99.333 -18.333 -180.666 -55 -243.999s-91.334 -98.666 -164.001 -105.999v-21c43.333 6 83.333 19.667 120 41s67.167 48.333 91.5 81
s42.833 70.667 55.5 114s19 89.666 19 138.999c0 82 -24.333 154.667 -73 218s-114.334 104 -197.001 122zM1464 -37.001l0.000976562 16.999c-78 16.667 -138.333 54.167 -181 112.5s-64 137.5 -64 237.5c-0.666992 59.333 9.5 113.333 30.5 162s51.333 88.167 91 118.5
s87.167 50.166 142.5 59.499v16c-80.667 -5.33301 -156.334 -38.166 -227.001 -98.499s-105.667 -148.833 -105 -265.5c0 -66 13.333 -124.833 40 -176.5s63.667 -93.167 111 -124.5s101.333 -50.666 162 -57.999zM1507 697.998c78.667 0 146.667 -17.332 204 -51.999
s100.833 -80.167 130.5 -136.5s44.5 -114.833 44.5 -175.5c0 -64 -15.833 -125.833 -47.5 -185.5s-77 -107.834 -136 -144.501s-126.167 -55 -201.5 -55c-70 0 -133.5 16 -190.5 48s-102 76.5 -135 133.5s-49.5 121.5 -49.5 193.5c0 71.333 16 135.5 48 192.5
s77 101.5 135 133.5s124 48 198 48zM481.001 1427c-42 0 -79.001 -13.168 -111.001 -39.501s-56.333 -63.5 -73 -111.5s-25 -105.333 -25 -172c0 -105.333 18 -185.666 54 -240.999s85 -83 147 -83c70.667 0 124.834 29.5 162.501 88.5s56.5 138.833 56.5 239.5
c0 113.333 -19.333 194.833 -58 244.5s-89.667 74.5 -153 74.5zM512 1458v-14.001c56 -16 103.5 -51 142.5 -105s58.5 -128.333 58.5 -223c0 -65.333 -7.83301 -123.166 -23.5 -173.499s-40 -91.166 -73 -122.499s-73.833 -50 -122.5 -56v-19
c89.333 12 159.333 51.833 210 119.5s76 152.167 76 253.5c0 81.333 -24.333 154.166 -73 218.499s-113.667 104.833 -195 121.5zM444 744.997l0.00292969 14.999c-78.667 18 -139.334 56.167 -182.001 114.5s-64.334 137.5 -65.001 237.5c0 91.333 23.833 167.333 71.5 228
s112.5 98 194.5 112v16c-81.333 -5.33301 -157.333 -38 -228 -98s-106 -148.667 -106 -266c1.33301 -50 9.66602 -95.833 24.999 -137.5s36.833 -78 64.5 -109s60.667 -56.167 99 -75.5s80.5 -31.666 126.5 -36.999zM487.003 1481c76.667 0 143.668 -17.334 201.001 -52.001
s101 -80.5 131 -137.5s45 -115.5 45 -175.5c0 -47.333 -8.5 -93.666 -25.5 -138.999s-42.333 -86.833 -76 -124.5s-74.834 -67.667 -123.501 -90s-101.334 -33.5 -158.001 -33.5c-70.667 0 -134.5 16.333 -191.5 49s-101.833 77.5 -134.5 134.5s-49 121.5 -49 193.5
s16 136.333 48 193s76.833 101.167 134.5 133.5s123.834 48.5 198.501 48.5zM1440 1481h63l-954 -1534h-62z" />
    <glyph glyph-name="ampersand" unicode="&#x26;" horiz-adv-x="1579" 
d="M1434 707l-168.002 -32.998c-18 -66 -27 -126.667 -27 -182c0 -43.333 -1.66699 -80.5 -5 -111.5s-16.666 -67.167 -39.999 -108.5l111 -96.5c25.333 -21 54 -41.167 86 -60.5s60 -29 84 -29c12.667 0 25.334 3.33301 38.001 10s21.667 17 27 31h12
c-4 -46 -22.5 -81.333 -55.5 -106s-71.167 -37 -114.5 -37c-50 0 -94.5 9.5 -133.5 28.5s-91.833 56.5 -158.5 112.5c-48.667 -42.667 -104 -76.834 -166 -102.501s-136 -38.5 -222 -38.5c-102 0 -189.167 13.333 -261.5 40s-129.833 61 -172.5 103s-73 86.167 -91 132.5
s-27 89.5 -27 129.5c0 100 28.167 181.333 84.5 244s137.166 124 242.499 184c-21.333 38.667 -38.5 71.5 -51.5 98.5s-23.667 58.167 -32 93.5s-12.5 75.666 -12.5 120.999c0 71.333 15.833 133.333 47.5 186s74.667 92.667 129 120s113.5 41 177.5 41
c90 0 159.667 -23.5 209 -70.5s74 -106.167 74 -177.5c0 -87.333 -31.5 -158.666 -94.5 -213.999s-147.5 -108.333 -253.5 -159c50.667 -74 104.834 -143.833 162.501 -209.5s133.167 -145.834 226.5 -240.501v90c0 66.667 -9 126 -27 178l-119 35v10h521v-12zM693.998 1411
c-46.667 0 -86.999 -17.335 -120.999 -52.002s-51 -83 -51 -145c0 -43.333 10.333 -92.166 31 -146.499s47.334 -105.166 80.001 -152.499c45.333 26 83.666 57.167 114.999 93.5s55.166 75 71.499 116s24.5 81.833 24.5 122.5c0 36.667 -6.83301 67.5 -20.5 92.5
s-31.667 43.167 -54 54.5s-47.5 17 -75.5 17zM1087 680l-0.00292969 -256.001c0 -68 -8 -119.333 -24 -154c-197.333 186 -349 354.5 -455 505.5s-159 286.5 -159 406.5c0 38.667 4.66699 71.834 14 99.501s21.666 53.167 36.999 76.5h-13
c-25.333 -25.333 -45.166 -58.5 -59.499 -99.5s-21.5 -85.833 -21.5 -134.5c0 -81.333 27 -171.5 81 -270.5s126.833 -200.5 218.5 -304.5s201.834 -216.667 330.501 -338c-51.333 -82.667 -127.666 -140 -228.999 -172l2 -10c56 14 104.333 32.5 145 55.5
s79.667 54.167 117 93.5c70 -59.333 126.333 -102.833 169 -130.5s89.334 -41.5 140.001 -41.5c20.667 0 46 5.66699 76 17v10h-26c-32 0 -63.833 7.5 -95.5 22.5s-62.667 34.667 -93 59s-74.833 62.5 -133.5 114.5c31.333 59.333 47 131 47 215v236h-68zM771.996 1427
l-0.000976562 -8c19.333 -7.33301 37.333 -19.666 54 -36.999s29.667 -37.833 39 -61.5s14 -48.834 14 -75.501c0 -64 -21.167 -128.333 -63.5 -193s-99.833 -117.667 -172.5 -159l6 -10c86 44 155 96.667 207 158s78 123.333 78 186c0 54.667 -16.667 99.167 -50 133.5
s-70.666 56.5 -111.999 66.5zM511.995 757.999c-38 -22.667 -72.835 -58.999 -104.502 -108.999s-47.5 -110.667 -47.5 -182c0 -58 9.83301 -112.667 29.5 -164s46.334 -95.833 80.001 -133.5s72 -66.834 115 -87.501s86.5 -31 130.5 -31c52.667 0 104.834 14 156.501 42
s94.167 66 127.5 114c-106.667 103.333 -198.5 196.5 -275.5 279.5s-147.5 173.5 -211.5 271.5zM491.993 786l-7 13.001c-83.333 -50.667 -146.833 -99 -190.5 -145s-73 -90.167 -88 -132.5s-22.5 -85.166 -22.5 -128.499c0 -70 20.5 -133.833 61.5 -191.5
s100 -104.334 177 -140.001s163.5 -54.834 259.5 -57.501v12c-85.333 6 -160.5 29 -225.5 69s-115.333 90.333 -151 151s-53.5 122.667 -53.5 186c0 39.333 7.16699 80 21.5 122s40 84.5 77 127.5s84.167 81.167 141.5 114.5z" />
    <glyph glyph-name="quotesingle" unicode="'" horiz-adv-x="369" 
d="M162 803l-56 296.998l-18 100c-2.66699 22.667 -4 40.334 -4 53.001c0 46.667 7.83301 80.5 23.5 101.5s40.5 31.5 74.5 31.5c32.667 0 58 -10.167 76 -30.5s27 -48.833 27 -85.5c0 -23.333 -3 -46.666 -9 -69.999l-18 -102l-53 -295h-43zM185 853.998v505
c-28.667 2 -48 -8.33301 -58 -31s-14 -57.667 -12 -105l58 -369h12z" />
    <glyph glyph-name="parenleft" unicode="(" horiz-adv-x="492" 
d="M326 1309l-12.998 -0.00195312c-102 -175.333 -153 -365.333 -153 -570c0 -94.667 13.167 -192.334 39.5 -293.001s64.166 -196.667 113.499 -288h13c-66 163.333 -99 351 -99 563c0 68.667 3.5 138.834 10.5 210.501s17.667 140.334 32 206.001
s33.166 122.834 56.499 171.501zM451.002 -33.002h-8.99902c-45.333 48.667 -86.333 98.167 -123 148.5s-69.834 107.166 -99.501 170.499s-53.167 132.333 -70.5 207s-26 155.334 -26 242.001c0 106.667 12.833 205.667 38.5 297s62.667 175.666 111 252.999
s104.833 149.333 169.5 216h9c-84.667 -180 -127 -435.333 -127 -766c0 -161.333 9.33301 -301.166 28 -419.499s51.667 -234.5 99 -348.5z" />
    <glyph glyph-name="parenright" unicode=")" horiz-adv-x="492" 
d="M166 1315l-9.99902 0.00195312c15.333 -52.667 28.5 -112.5 39.5 -179.5s19 -134 24 -201s7.5 -135.5 7.5 -205.5c0 -62.667 -2.16699 -128.834 -6.5 -198.501s-11.333 -135.5 -21 -197.5s-22.834 -120.333 -39.501 -175h10c21.333 49.333 40.166 98.666 56.499 147.999
s29.333 95.833 39 139.5s17.334 91.667 23.001 144s8.5 103.5 8.5 153.5c0 92.667 -12.167 190.667 -36.5 294s-55.833 196 -94.5 278zM78.001 -32.998l-8.00098 -0.00292969c82 196.667 123 446 123 748c0 75.333 -2.16699 149.833 -6.5 223.5s-11 142 -20 205
s-21.333 124.5 -37 184.5s-35.5 117.667 -59.5 173h8c120.667 -129.333 203.334 -259.166 248.001 -389.499s67 -255.166 67 -374.499c0 -88 -8.5 -169.333 -25.5 -244s-40 -143.5 -69 -206.5s-61.5 -119.667 -97.5 -170s-77 -100.166 -123 -149.499z" />
    <glyph glyph-name="asterisk" unicode="*" horiz-adv-x="897" 
d="M457 1436l-62 -0.000976562c23.333 -77.333 40.333 -164.666 51 -261.999h11v262zM348 1470l218.998 0.000976562c-60 -96.667 -94 -210 -102 -340c122.667 60 215.334 132 278.001 216l74 -213c-43.333 9.33301 -87 14 -131 14c-32.667 0 -68.5 -2.66699 -107.5 -8
s-73.5 -12.333 -103.5 -21c90.667 -102 182.334 -171.667 275.001 -209l-172 -133c-11.333 106.667 -51.666 216.667 -120.999 330c-56 -102.667 -91 -212.667 -105 -330l-186 127c98.667 44.667 190.667 117 276 217c-71.333 14 -134 21 -188 21
c-62 0 -114 -6.33301 -156 -19l64 211c42 -44.667 85.5 -82 130.5 -112s95.5 -57.333 151.5 -82c-2 57.333 -11.333 114.666 -28 171.999s-39.334 110.333 -68.001 159zM753.998 1225l-248.001 -84l2 -13c84.667 25.333 173.334 37 266.001 35zM177.997 1276l-18 -62
l248 -79l4 16c-84.667 30 -162.667 71.667 -234 125zM488.997 1083l-10 -7.99902c52.667 -86.667 91 -166.334 115 -239.001l49 36zM425.997 1077l-10 8c-43.333 -48 -77 -83.5 -101 -106.5s-54.667 -47.5 -92 -73.5l58 -39z" />
    <glyph glyph-name="plus" unicode="+" horiz-adv-x="1124" 
d="M506 1092h112v-482h486v-112h-486v-498h-112v498h-486v112h486v482z" />
    <glyph glyph-name="comma" unicode="," horiz-adv-x="492" 
d="M260 23l0.000976562 180c-60 -6 -90 -37.333 -90 -94c0 -22 7.66699 -41.167 23 -57.5s37.666 -25.833 66.999 -28.5zM188.001 -180l-9.99902 9.99902c49.333 49.333 76 103.333 80 162c-36 0 -65.167 11.833 -87.5 35.5s-33.5 50.834 -33.5 81.501
c0 35.333 10.667 65.333 32 90s51.666 37 90.999 37c40.667 0 71 -15.333 91 -46s30 -62.667 30 -96c0 -68 -21.5 -125.667 -64.5 -173s-85.833 -81 -128.5 -101z" />
    <glyph glyph-name="hyphen" unicode="-" horiz-adv-x="1174" 
d="M1059 825l-60.001 -141h-727c-47.333 0 -93.666 -11.667 -138.999 -35l62 139h708c70 0 122 12.333 156 37z" />
    <glyph glyph-name="period" unicode="." horiz-adv-x="492" 
d="M256 23v182.002c-28 -2.66699 -49.667 -12.834 -65 -30.501s-23 -38.167 -23 -61.5c0 -22.667 7.83301 -42.834 23.5 -60.501s37.167 -27.5 64.5 -29.5zM258 236.002c34.667 0 63.834 -12.167 87.501 -36.5s35.5 -53.833 35.5 -88.5
c0 -33.333 -12.167 -61.833 -36.5 -85.5s-53.833 -35.5 -88.5 -35.5s-63.834 11.833 -87.501 35.5s-35.5 52.167 -35.5 85.5c0 34.667 12.167 64.167 36.5 88.5s53.833 36.5 88.5 36.5z" />
    <glyph glyph-name="slash" unicode="/" horiz-adv-x="788" 
d="M596 1468h186.002v-10c-46.667 -4 -84 -48.333 -112 -133l-443 -1321h-192v12c27.333 6 50.166 19.833 68.499 41.5s35.166 55.167 50.499 100.5z" />
    <glyph glyph-name="zero" unicode="0" horiz-adv-x="1473" 
d="M764 1481c92.667 0 185.668 -22.335 279.001 -67.002s173.166 -123.667 239.499 -237s99.5 -265.333 99.5 -456c0 -128.667 -17.833 -240 -53.5 -334s-83.334 -170.167 -143.001 -228.5s-126.667 -101.666 -201 -129.999s-150.5 -42.5 -228.5 -42.5
c-101.333 0 -199.666 23.833 -294.999 71.5s-174.5 126.834 -237.5 237.501s-94.5 252.667 -94.5 426c0 148 20.5 273 61.5 375s93.333 180.5 157 235.5s131.5 93.667 203.5 116s143 33.5 213 33.5zM754.001 1413c-89.333 0 -170.002 -35.335 -242.002 -106.002
c-30 -30 -55.167 -63 -75.5 -99s-37.166 -77.833 -50.499 -125.5s-23.333 -101.834 -30 -162.501s-10 -129 -10 -205c0 -95.333 6.33301 -177.5 19 -246.5s30.834 -127.833 54.501 -176.5s54.5 -92 92.5 -130c71.333 -71.333 152 -107 242 -107c92.667 0 176 37 250 111
c36.667 36.667 67 82.834 91 138.501s41.333 118.834 52 189.501s16 150.334 16 239.001c0 150 -13.833 269.667 -41.5 359s-70.5 162.333 -128.5 219c-68 68 -147.667 102 -239 102zM704.999 1444l0.000976562 16.001c-51.333 -8 -104.833 -22 -160.5 -42
s-113.334 -56 -173.001 -108s-109.5 -127.167 -149.5 -225.5s-60 -222.166 -60 -371.499c0 -132.667 22.833 -250.5 68.5 -353.5s109.5 -184 191.5 -243s177 -94.5 285 -106.5v13c-86 17.333 -159.333 46.666 -220 87.999s-109.667 93.5 -147 156.5s-64 132 -80 207
s-24 159.167 -24 252.5c0 235.333 44.667 407.666 134 516.999s201 176 335 200zM803 1448v-15.999c105.333 -22.667 187 -68.834 245 -138.501s97.5 -153.334 118.5 -251.001s31.5 -205.5 31.5 -323.5c0 -138.667 -14.333 -255 -43 -349s-72 -168.333 -130 -223
s-131.333 -92.667 -220 -114l-2 -15c106.667 17.333 192.667 54 258 110s113 120.833 143 194.5s48.833 144 56.5 211s11.5 134.167 11.5 201.5c0 168.667 -22 302.834 -66 402.501s-99.833 171.5 -167.5 215.5s-146.167 75.667 -235.5 95z" />
    <glyph glyph-name="one" unicode="1" horiz-adv-x="788" 
d="M367 41h67v1384l-67 -32v-1352zM463 1481l102 -0.00195312c-10 -50 -16.833 -146.167 -20.5 -288.5s-5.5 -289.166 -5.5 -440.499v-273c0 -145.333 8.66699 -289.333 26 -432l207 -35v-10h-729v12l260 35c10.667 76.667 19.167 182.5 25.5 317.5s9.5 242.833 9.5 323.5
v246c0 50.667 -2.16699 115.834 -6.5 195.501s-10.5 146.167 -18.5 199.5l-247 -37v11z" />
    <glyph glyph-name="two" unicode="2" horiz-adv-x="1087" 
d="M1071 362l-46.9971 -362.001h-987v55l98 72.5l100 76c33.333 26.333 74 61.166 122 104.499s88.667 82 122 116c99.333 98 178.5 194.667 237.5 290s88.5 185.666 88.5 270.999c0 63.333 -15.5 120.833 -46.5 172.5s-71.333 92.5 -121 122.5s-99.167 45 -148.5 45
c-87.333 0 -158.333 -27.667 -213 -83s-85.334 -119 -92.001 -191h-18c0 2 -0.5 12.333 -1.5 31s-1.83301 32 -2.5 40c0 76.667 17 142.334 51 197.001s79.833 95.334 137.5 122.001s122.5 40 194.5 40c62.667 0 122 -10.833 178 -32.5s104.667 -51.667 146 -90
s73.666 -82.666 96.999 -132.999s35 -104.5 35 -162.5c0 -64 -12.667 -128.167 -38 -192.5s-59.5 -126 -102.5 -185s-93.5 -117.5 -151.5 -175.5c-56 -56 -127.833 -118.833 -215.5 -188.5l-286.5 -217.5l64 -14c24.667 -5.33301 55.167 -10.333 91.5 -15
s78.166 -8.5 125.499 -11.5s102.333 -4.5 165 -4.5c132 0 232.333 9 301 27l105 276h12zM360.003 284.999l9.00098 -14.998c99.333 80.667 181.5 152.667 246.5 216s118.833 124.166 161.5 182.499s74.667 116 96 173s32 112.5 32 166.5c0 81.333 -20.5 152 -61.5 212
s-91.833 105.5 -152.5 136.5s-118.334 46.5 -173.001 46.5c-140 0 -245 -67.667 -315 -203h10c28.667 46.667 65.5 84 110.5 112s99.5 42 163.5 42s122.667 -16.5 176 -49.5s95.5 -77.833 126.5 -134.5s46.5 -118.334 46.5 -185.001c0 -68.667 -18 -140.167 -54 -214.5
s-89 -151.833 -159 -232.5s-157.667 -165 -263 -253z" />
    <glyph glyph-name="three" unicode="3" horiz-adv-x="1087" 
d="M606 780l8 -8.00293c78 38 138.833 82.333 182.5 133s65.5 114.334 65.5 191.001c0 68.667 -15.5 128.334 -46.5 179.001s-73 89.5 -126 116.5s-108.833 40.5 -167.5 40.5c-56 0 -107.833 -11.167 -155.5 -33.5s-85.167 -54.166 -112.5 -95.499l6 -5
c70 62 152.667 93 248 93c47.333 0 92.833 -11.167 136.5 -33.5s79 -55.333 106 -99s40.5 -95.167 40.5 -154.5c0 -138.667 -61.667 -246.667 -185 -324zM612 742.997l-8 -12.002c50.667 -19.333 92.834 -44.833 126.501 -76.5s58.5 -67.667 74.5 -108s24 -83.833 24 -130.5
c0 -56 -12.667 -111 -38 -165s-64.333 -98.833 -117 -134.5s-116.334 -53.5 -191.001 -53.5c-31.333 0 -59 2 -83 6s-45.833 9.33301 -65.5 16l-60.5 21v-10c46 -22 88 -38 126 -48s77.333 -15 118 -15c67.333 0 130.5 16.5 189.5 49.5s106 78.5 141 136.5
s52.5 121 52.5 189c0 54 -13 104.333 -39 151s-60.5 85.334 -103.5 116.001s-91.833 53.334 -146.5 68.001zM190 1149l-0.00292969 47.001c0 42.667 12.167 85.834 36.5 129.501s63.166 80.5 116.499 110.5s120 45 200 45c92.667 0 170.5 -17.667 233.5 -53
s109.833 -79.833 140.5 -133.5s46 -107.5 46 -161.5c0 -48.667 -9.83301 -95.5 -29.5 -140.5s-51.667 -87.333 -96 -127s-102.166 -74.167 -173.499 -103.5v-4c101.333 -14.667 184.333 -53.334 249 -116.001s97 -145 97 -247c0 -67.333 -18.333 -132.5 -55 -195.5
s-90.834 -114.333 -162.501 -154s-157.5 -59.5 -257.5 -59.5c-74 0 -142.5 12.167 -205.5 36.5s-119.333 62 -169 113s-90.167 114.5 -121.5 190.5l10 4c53.333 -72 116.833 -130.667 190.5 -176s152.834 -68 237.501 -68c54 0 105.333 12.5 154 37.5
s88.167 62.667 118.5 113s45.5 109.5 45.5 177.5c0 75.333 -23.833 143.666 -71.5 204.999s-124.167 101.333 -229.5 120v13c81.333 30 145.666 75.333 192.999 136s71 131.334 71 212.001c0 62 -13.833 113.333 -41.5 154s-61.167 69.5 -100.5 86.5
s-76.666 25.5 -111.999 25.5c-31.333 0 -68.166 -6.16699 -110.499 -18.5s-81.166 -34.333 -116.499 -66s-58.666 -75.834 -69.999 -132.501h-17z" />
    <glyph glyph-name="four" unicode="4" horiz-adv-x="1174" 
d="M791 1397l-70 -80v-1276h70v1356zM487 549h-460.001v45l774 889h104c-0.666992 -18 -1.5 -42.333 -2.5 -73s-2.16699 -61.334 -3.5 -92.001s-2 -55 -2 -73v-420c0 -60.667 1.33301 -129.667 4 -207c17.333 -4 46 -6 86 -6c43.333 0 78.833 3 106.5 9
s50.834 15.333 69.501 28h8l-32 -102h-119c-40.667 0 -79.667 -2 -117 -6c-5.33301 -50 -8 -114.333 -8 -193c0 -114.667 10.333 -215 31 -301l243 -31v-14h-753v14l241 31c12 50.667 21.167 106.667 27.5 168s9.5 121.333 9.5 180c0 54.667 -2 103.334 -6 146.001
c-86.667 5.33301 -153.667 8 -201 8zM693.999 813c0 86 -1.5 169.668 -4.5 251.001s-7.5 143.666 -13.5 186.999c-71.333 -67.333 -164.5 -169 -279.5 -305s-200.167 -244.333 -255.5 -325c75.333 -6 176.333 -9 303 -9c82.667 0 164 2 244 6c4 49.333 6 114.333 6 195z" />
    <glyph glyph-name="five" unicode="5" horiz-adv-x="981" 
d="M412 1427h-66l-162 -544l70 14zM881 1403l-369.002 -0.00195312c-35.333 -104 -64.666 -196.667 -87.999 -278s-42.333 -154 -57 -218h79c82.667 0 154.167 -12.167 214.5 -36.5s108.5 -56.166 144.5 -95.499s62 -82.166 78 -128.499s24 -93.166 24 -140.499
c0 -70.667 -16.333 -137.834 -49 -201.501s-77.167 -119.667 -133.5 -168s-117.666 -85.5 -183.999 -111.5s-132.5 -39 -198.5 -39c-55.333 0 -110.333 6.16699 -165 18.5s-104 29.166 -148 50.499l8 11c42 -14 87.667 -21 137 -21c73.333 0 141.5 11.667 204.5 35
s117.667 56.166 164 98.499s82.166 91.5 107.499 147.5s38 116 38 180c0 62.667 -13 116.334 -39 161.001s-59.667 80.167 -101 106.5s-86.5 45.333 -135.5 57s-97.833 17.5 -146.5 17.5c-33.333 0 -75 -3.33301 -125 -10l62.5 205.5l46 153.5l44 151.5
c13 45.667 23.167 84.834 30.5 117.501h407c76.667 0 135.334 13.667 176.001 41h6zM378.998 867.998l-1.99707 -7.99805c47.333 -6 92.666 -18.167 135.999 -36.5s80.666 -42.833 111.999 -73.5s55.5 -66.834 72.5 -108.501s25.5 -89.5 25.5 -143.5
c0 -52.667 -10.167 -105.667 -30.5 -159s-51 -102.333 -92 -147s-92 -81.834 -153 -111.501s-130.833 -47.5 -209.5 -53.5v-11h53c84 0 165.333 22.333 244 67s142 104.667 190 180s72 156.333 72 243c0 60 -10.833 113.333 -32.5 160s-50.167 84.5 -85.5 113.5
s-75.833 51 -121.5 66s-92.834 22.5 -141.501 22.5h-37z" />
    <glyph glyph-name="six" unicode="6" horiz-adv-x="1174" 
d="M317 692l-0.00292969 -129c0 -100 14.167 -188.667 42.5 -266s65.833 -136.333 112.5 -177s96.334 -61 149.001 -61c47.333 0 91.833 17.667 133.5 53s75.167 86.5 100.5 153.5s38 143.167 38 228.5c0 88.667 -14 160.667 -42 216s-62.167 94.166 -102.5 116.499
s-82.166 33.5 -125.499 33.5c-62 0 -118.167 -15.167 -168.5 -45.5s-96.166 -71.166 -137.499 -122.499zM1171 1430l-3.99902 -14.9961c-48 15.333 -97.667 23 -149 23c-70 0 -142.667 -14.833 -218 -44.5s-145.166 -73.167 -209.499 -130.5
s-119.833 -129.833 -166.5 -217.5s-78.667 -188.5 -96 -302.5l4 -4c46 69.333 101.667 124.666 167 165.999s135.333 62 210 62c64 0 120.667 -12 170 -36s91.5 -57.167 126.5 -99.5s61.167 -91 78.5 -146s26 -112.833 26 -173.5c0 -78 -13.667 -149.333 -41 -214
s-64.333 -120.334 -111 -167.001s-96.834 -81.834 -150.501 -105.501s-107.834 -35.5 -162.501 -35.5c-115.333 0 -214.5 30.5 -297.5 91.5s-145.333 140.667 -187 239s-62.5 201.833 -62.5 310.5s19.333 215.167 58 319.5s93 196.666 163 276.999s151 143.333 243 189
s191.333 68.5 298 68.5c56 0 112 -4.83301 168 -14.5s103.667 -23.167 143 -40.5zM523.998 872.004l-0.000976562 -6.00195c24 14 58.333 21 103 21c61.333 0 114.333 -15.167 159 -45.5s79.167 -75.666 103.5 -135.999s36.5 -133.833 36.5 -220.5
c0 -85.333 -12.833 -159.666 -38.5 -222.999s-57.834 -112.833 -96.501 -148.5s-77 -58.5 -115 -68.5v-10c60.667 12.667 115.834 39.834 165.501 81.501s88.334 95.167 116.001 160.5s41.5 140.333 41.5 225c0 93.333 -15 170.666 -45 231.999
s-69.5 106.166 -118.5 134.499s-102.167 42.5 -159.5 42.5c-22 0 -48.667 -3.66699 -80 -11s-55.333 -16.666 -72 -27.999zM577.997 14.002l0.00195312 12.998c-72.667 10.667 -137.334 43.334 -194.001 98.001s-100.334 124.834 -131.001 210.501s-46 179.834 -46 282.501
c0 108 17.5 210.167 52.5 306.5s83.667 182.5 146 258.5s135.333 137.667 219 185s171.167 76 262.5 86v10c-98 0 -192.5 -21.667 -283.5 -65s-171.833 -103 -242.5 -179s-126.334 -164.333 -167.001 -265s-61 -205.334 -61 -314.001c0 -111.333 19.667 -213 59 -305
s92.833 -166.167 160.5 -222.5s142.834 -89.5 225.501 -99.5z" />
    <glyph glyph-name="seven" unicode="7" horiz-adv-x="1087" 
d="M928 1434h-76l-356 -1182c-18 -58.667 -37.167 -111 -57.5 -157s-43.5 -80.333 -69.5 -103l8 -6c90 57.333 154 148 192 272zM238 1473l832.999 -0.00292969c-36.667 -71.333 -78.334 -182 -125.001 -332l-229 -750c-31.333 -105.333 -64.166 -188.5 -98.499 -249.5
s-79.166 -107.833 -134.499 -140.5s-128 -52 -218 -58v12c48.667 12.667 88.667 46.834 120 102.501s58.333 122.5 81 200.5l235 770c12 36.667 23.5 76.167 34.5 118.5l30.5 121.5c9.33301 38.667 16.333 75.334 21 110.001c-86 20.667 -189 31 -309 31
c-62.667 0 -120.5 -1.16699 -173.5 -3.5s-105.833 -7.16602 -158.5 -14.499l-75 -236h-13l25 332c44 -9.33301 95.333 -14 154 -14z" />
    <glyph glyph-name="eight" unicode="8" horiz-adv-x="1280" 
d="M664 1481c88.667 0 166.17 -15.3359 232.503 -46.0029s116.833 -73.5 151.5 -128.5s52 -116.5 52 -184.5c0 -76.667 -25.833 -146.167 -77.5 -208.5s-123.5 -105.5 -215.5 -129.5v-4c94 -39.333 166.5 -73.166 217.5 -101.499s94.333 -68 130 -119
s53.5 -114.5 53.5 -190.5c0 -97.333 -37.333 -183.333 -112 -258c-43.333 -43.333 -96.833 -75 -160.5 -95s-154.834 -30 -273.501 -30c-106 0 -196.333 10.833 -271 32.5s-135.334 55.834 -182.001 102.501c-66.667 66 -100 148.667 -100 248c0 58 13.333 113.167 40 165.5
s66.167 97 118.5 134s116.833 61.833 193.5 74.5c-48.667 30 -90.834 63.333 -126.501 100s-63.834 77.834 -84.501 123.501s-31 94.167 -31 145.5c0 42 7.16699 83.667 21.5 125s38.833 80.833 73.5 118.5s81.334 68 140.001 91s128.667 34.5 210 34.5zM737.003 24.9971
v-9.00293c88.667 4.66699 159.834 23.834 213.501 57.501s92 75.167 115 124.5s34.5 102 34.5 158c0 79.333 -27.333 146.333 -82 201c-29.333 29.333 -65 54.833 -107 76.5s-101.167 49.167 -177.5 82.5s-137.5 62.5 -183.5 87.5s-86.667 54.833 -122 89.5
c-36.667 36.667 -64.667 75.334 -84 116.001s-29 80.334 -29 119.001c0 42 10 86.167 30 132.5s53 87 99 122s105.667 56.167 179 63.5v12c-52 0 -106.833 -13 -164.5 -39s-106.5 -65.333 -146.5 -118s-60 -117 -60 -193c0 -39.333 9.66699 -81.166 29 -125.499
s47.333 -84.5 84 -120.5c43.333 -42 89.166 -76.833 137.499 -104.5s111 -58.334 188 -92.001s133.833 -59.834 170.5 -78.501s67.667 -41 93 -67c50.667 -50 76 -112.667 76 -188c0 -79.333 -26 -147.666 -78 -204.999s-123.667 -91.333 -215 -102zM668.003 1422.99
c-46.667 0 -90.332 -11.668 -130.999 -35.001s-72.334 -55.166 -95.001 -95.499s-34 -84.833 -34 -133.5c0 -30.667 5.83301 -61 17.5 -91s29.667 -59.333 54 -88s57 -56.5 98 -83.5s88.167 -52.833 141.5 -77.5c51.333 14 96.5 47 135.5 99s58.5 116.667 58.5 194
c0 97.333 -24.167 173.5 -72.5 228.5s-105.833 82.5 -172.5 82.5zM715.005 1453.99v-12c81.333 -18.667 140.5 -60.167 177.5 -124.5s55.5 -132.833 55.5 -205.5c0 -44 -7.16699 -86 -21.5 -126s-35.833 -75.667 -64.5 -107s-64.667 -56 -108 -74l12 -6
c164 61.333 246 165 246 311c0 93.333 -27.5 170.5 -82.5 231.5s-126.5 98.5 -214.5 112.5zM535.005 699.993c-60.667 -12 -113.5 -47.835 -158.5 -107.502s-67.5 -132.167 -67.5 -217.5c0 -62 14.5 -118.333 43.5 -169s70.5 -90.5 124.5 -119.5s118.333 -43.5 193 -43.5
c74 0 136 15.833 186 47.5s86 69.5 108 113.5s33 84.667 33 122c0 54.667 -13 99.834 -39 135.501s-58.333 64.334 -97 86.001s-94.667 48 -168 79s-126 55.5 -158 73.5zM496.005 720.991l-6.99805 5.99707c-68.667 -11.333 -129.334 -33.666 -182.001 -66.999
s-93.5 -75.333 -122.5 -126s-43.5 -105.667 -43.5 -165c0 -62 17.167 -119.5 51.5 -172.5s82.833 -96 145.5 -129s135 -51.5 217 -55.5v11c-74 6.66699 -137.5 27.834 -190.5 63.501s-92.833 79.334 -119.5 131.001s-40 104.167 -40 157.5c0 67.333 24.167 135.333 72.5 204
s121.166 116 218.499 142z" />
    <glyph glyph-name="nine" unicode="9" horiz-adv-x="1174" 
d="M580 1413c-48.667 0 -93.8311 -18.333 -135.498 -55s-75 -87.834 -100 -153.501s-37.5 -139.5 -37.5 -221.5c0 -114.667 24.5 -205.167 73.5 -271.5s116.167 -99.5 201.5 -99.5c46.667 0 99.667 14.333 159 43s106 68.334 140 119.001c1.33301 19.333 2 54.333 2 105
c0 85.333 -8.33301 162 -25 230s-39.834 124.5 -69.501 169.5s-62.334 78.667 -98.001 101s-72.5 33.5 -110.5 33.5zM29.0029 39l6 12.002c55.333 -12 103.666 -18 144.999 -18c127.333 0 242 35.333 344 106s183.167 160 243.5 268s95.166 213.333 104.499 316l-4 4
c-52 -74.667 -112.167 -130.5 -180.5 -167.5s-135.166 -55.5 -200.499 -55.5c-75.333 0 -143.5 19.333 -204.5 58s-108.333 93 -142 163s-50.5 150 -50.5 240c0 82.667 19.833 163.834 59.5 243.501s95.334 145 167.001 196s153.167 76.5 244.5 76.5
c101.333 0 192.833 -27 274.5 -81s146.167 -130.5 193.5 -229.5s71 -212.833 71 -341.5c0 -94 -17.5 -191.333 -52.5 -292s-85.5 -192.334 -151.5 -275.001s-147.333 -149.334 -244 -200.001s-204.667 -76 -324 -76c-47.333 0 -88.833 2.66699 -124.5 8
s-68.167 12.166 -97.5 20.499s-55 16.5 -77 24.5zM686.003 582.002l-0.00292969 13.999c-46 -22 -95 -33 -147 -33c-54.667 0 -103 10.167 -145 30.5s-77.667 49.666 -107 87.999s-51.666 82.833 -66.999 133.5s-23 104.667 -23 162c0 81.333 15.333 156.333 46 225
s71.334 123.834 122.001 165.501s105 67.167 163 76.5v16c-76 -11.333 -145.167 -42 -207.5 -92s-110.5 -112 -144.5 -186s-51 -152 -51 -234c0 -75.333 16 -145.166 48 -209.499s75.667 -115.5 131 -153.5s117 -57 185 -57c35.333 0 67.333 4.5 96 13.5
s62.334 22.5 101.001 40.5zM623 1444l-0.000976562 -13.999c60.667 -14 113.167 -46.333 157.5 -97s78.333 -115.834 102 -195.501s35.5 -168.167 35.5 -265.5c0 -129.333 -19.667 -245.833 -59 -349.5s-90.166 -191 -152.499 -262s-128.166 -125.833 -197.499 -164.5
s-133.333 -61 -192 -67v-13c131.333 10 248.166 54.5 350.499 133.5s181.5 179.833 237.5 302.5s84 252 84 388c0 76 -9.5 148.833 -28.5 218.5s-45.667 132.5 -80 188.5s-73.833 101.333 -118.5 136s-91 55 -139 61z" />
    <glyph glyph-name="colon" unicode=":" horiz-adv-x="492" 
d="M260 655v182.999c-29.333 -2.66699 -51.666 -12.5 -66.999 -29.5s-23 -37.167 -23 -60.5s8.16699 -44.166 24.5 -62.499s38.166 -28.5 65.499 -30.5zM260 867.999c34 0 63 -12 87 -36s36 -53 36 -87c0 -33.333 -12 -62 -36 -86s-53 -36 -87 -36
c-32.667 0 -61.334 12 -86.001 36s-37 52.667 -37 86c0 34 12.333 63 37 87s53.334 36 86.001 36zM258 19.999v183.001c-27.333 -2.66699 -48.833 -12.334 -64.5 -29.001s-23.5 -37 -23.5 -61c0 -23.333 7.66699 -44 23 -62s37 -28.333 65 -31zM258 233
c34 0 63.334 -12.002 88.001 -36.002s37 -52.667 37 -86c0 -35.333 -12.333 -64.666 -37 -87.999s-54 -35 -88 -35c-34.667 0 -63.834 11.833 -87.501 35.5s-35.5 52.834 -35.5 87.501c0 33.333 12 62 36 86s53 36 87 36z" />
    <glyph glyph-name="semicolon" unicode=";" horiz-adv-x="492" 
d="M258 655v183c-28 -2.66699 -49.667 -12.5 -65 -29.5s-23 -37.167 -23 -60.5c0 -24 8 -45 24 -63s37.333 -28 64 -30zM258 868c34 0 63.333 -12 88 -36s37 -53 37 -87s-12.5 -62.833 -37.5 -86.5s-54.167 -35.5 -87.5 -35.5c-34 0 -63 12 -87 36s-36 52.667 -36 86
c0 34 12 63 36 87s53 36 87 36zM260 16l0.000976562 183c-60 -6 -90 -37.667 -90 -95c0 -22.667 7.66699 -42 23 -58s37.666 -26 66.999 -30zM188.001 -184l-10.001 10c49.333 49.333 76 103.333 80 162c-36 0 -65.167 11.833 -87.5 35.5s-33.5 50.5 -33.5 80.5
c0 34.667 10.833 64.167 32.5 88.5s51.834 36.5 90.501 36.5c40.667 0 71 -15 91 -45s30 -61.333 30 -94c0 -68.667 -21.833 -127 -65.5 -175s-86.167 -81 -127.5 -99z" />
    <glyph glyph-name="less" unicode="&#x3c;" horiz-adv-x="1124" 
d="M53 471v127l1018 471v-127l-887 -407l887 -408v-127z" />
    <glyph glyph-name="equal" unicode="=" horiz-adv-x="1124" 
d="M1100 799v-113h-1077v113h1077zM1100 401v-112h-1077v112h1077z" />
    <glyph glyph-name="greater" unicode="&#x3e;" horiz-adv-x="1124" 
d="M1071 598v-127l-1018 -471v127l887 408l-887 407v127z" />
    <glyph glyph-name="question" unicode="?" horiz-adv-x="598" 
d="M90 1395l-6.00391 7.99609c52 52 113.333 78 184 78c46.667 0 90.334 -11.833 131.001 -35.5s72.334 -56.167 95.001 -97.5s34 -86.666 34 -135.999c0 -64 -14.667 -124.5 -44 -181.5s-73 -124 -131 -201s-100.333 -138.167 -127 -183.5s-40 -92.666 -40 -141.999
c0 -45.333 14 -83.666 42 -114.999s61.333 -49 100 -53v-14c-67.333 0 -124.5 27.833 -171.5 83.5s-70.5 124.5 -70.5 206.5c0 62 11.333 121 34 177s55 117.667 97 185s72.333 119.166 91 155.499s28 74.833 28 115.5c0 32.667 -6 62.334 -18 89.001
s-29.833 47.834 -53.5 63.501s-51.167 23.5 -82.5 23.5c-13.333 0 -28.166 -2.16699 -44.499 -6.5s-32.166 -10.833 -47.499 -19.5zM247.996 19.9961l-0.000976562 180.999c-26 -2 -47.5 -11.833 -64.5 -29.5s-25.5 -40.167 -25.5 -67.5
c0 -19.333 8.33301 -37.666 25 -54.999s38.334 -27 65.001 -29zM271.995 1427v-6.00098c63.333 -44 95 -106.667 95 -188c0 -40.667 -9.83301 -80.667 -29.5 -120s-51 -94 -94 -164s-75.5 -131.5 -97.5 -184.5s-33 -109.833 -33 -170.5
c0 -30.667 4.16699 -58.167 12.5 -82.5s21.166 -51.5 38.499 -81.5l10 6c-19.333 26 -29 65 -29 117c0 56.667 12 111.334 36 164.001s58.5 113.167 103.5 181.5s78.833 124.666 101.5 168.999s34 89.833 34 136.5c0 26 -3.33301 50.5 -10 73.5s-16.667 44.833 -30 65.5
s-29.166 38.334 -47.499 53.001s-38.5 25 -60.5 31zM247.995 230.994c33.333 0 61.833 -11.832 85.5 -35.499s35.5 -52.5 35.5 -86.5c0 -34.667 -11.833 -63.834 -35.5 -87.501s-52.167 -35.5 -85.5 -35.5c-34 0 -63 12 -87 36s-36 53 -36 87c0 33.333 12 62 36 86
s53 36 87 36z" />
    <glyph glyph-name="at" unicode="@" horiz-adv-x="1886" 
d="M1413 958l-116.997 -399.002l-61 -215c-18 -70 -29 -123.333 -33 -160v-4c0 -22.667 7.33301 -41.334 22 -56.001s33.334 -22 56.001 -22c36.667 0 78.667 14.167 126 42.5s88 62.833 122 103.5c54 67.333 96.5 145.5 127.5 234.5s46.5 178.167 46.5 267.5
s-15.667 172 -47 248s-75.333 141.833 -132 197.5s-123.667 98.667 -201 129s-161.666 45.5 -252.999 45.5c-101.333 0 -196.833 -15.5 -286.5 -46.5s-171.334 -76.833 -245.001 -137.5s-137.5 -135.667 -191.5 -225c-48.667 -81.333 -85.667 -168.666 -111 -261.999
s-38 -188.333 -38 -285c0 -151.333 33.167 -287.666 99.5 -408.999s158.833 -216 277.5 -284s251.667 -102 399 -102c184.667 0 346.667 47.667 486 143s247 232 323 410h57c-28.667 -90.667 -70.667 -173.834 -126 -249.501s-121.333 -140.834 -198 -195.501
s-160.5 -96.5 -251.5 -125.5s-186.5 -43.5 -286.5 -43.5c-123.333 0 -238.666 21.833 -345.999 65.5s-201 105.5 -281 185.5s-141.667 173.833 -185 281.5s-65 224.167 -65 349.5c0 137.333 24.167 265.833 72.5 385.5s115.666 224.334 201.999 314.001
s188.166 159.334 305.499 209.001s243.666 74.5 378.999 74.5s256.666 -29 363.999 -87s190.5 -139.5 249.5 -244.5s88.5 -223.833 88.5 -356.5c0 -94 -14.167 -183.5 -42.5 -268.5s-67.5 -160.167 -117.5 -225.5s-108.167 -116.666 -174.5 -153.999s-135.5 -56 -207.5 -56
c-56.667 0 -97.834 11.333 -123.501 34s-38.5 59 -38.5 109c0 32 6 77.667 18 137l-4 4c-59.333 -74.667 -112.666 -133.334 -159.999 -176.001c-36 -32 -74.5 -58 -115.5 -78s-78.167 -30 -111.5 -30c-53.333 0 -97.333 22.333 -132 67s-52 102.667 -52 174
c0 54 10.833 112.667 32.5 176s51.667 126 90 188s81.5 117.667 129.5 167c52.667 52.667 104.667 92.834 156 120.501s99.666 41.5 144.999 41.5c92.667 0 148.667 -46.667 168 -140h4l30 111zM1061 917.998c-46.667 0 -96.002 -25.501 -148.002 -76.501
s-101.667 -122.5 -149 -214.5c-31.333 -58.667 -57 -118.834 -77 -180.501s-30 -109.5 -30 -143.5c0 -44.667 11.167 -81 33.5 -109s50.833 -42 85.5 -42c26 0 55 8.33301 87 25s61 38.334 87 65.001c28 26.667 56.333 59.167 85 97.5s50.334 71.833 65.001 100.5
c23.333 45.333 46.333 113.666 69 204.999c11.333 48.667 17 88.334 17 119.001c0 32 -5.16699 59.333 -15.5 82s-25.166 40.334 -44.499 53.001s-41 19 -65 19z" />
    <glyph glyph-name="A" unicode="A" 
d="M784 1282l519 -1243h67l-553 1327zM768 1198c-18 -35.333 -41.832 -87 -71.499 -155l-80.5 -191l-75 -189.5l-52 -132.5c39.333 -5.33301 85.166 -9 137.499 -11s102.166 -3 149.499 -3c116.667 0 212.334 4.66699 287.001 14c-25.333 75.333 -68.333 182.5 -129 321.5
s-116 254.5 -166 346.5zM874.001 1479l433 -1033c56 -134.667 121.333 -268.334 196 -401.001l166 -35v-10h-706v10l272 35c-10 66 -28.5 137.833 -55.5 215.5s-56.833 145.167 -89.5 202.5h-627l-64.5 -166c-16.333 -43.333 -32 -88.333 -47 -135
s-24.833 -85.667 -29.5 -117l262 -35v-10h-559v10l184 35c44.667 77.333 85.667 162.666 123 255.999l463 1178h79z" />
    <glyph glyph-name="A" unicode="a" 
d="M784 1282l519 -1243h67l-553 1327zM768 1198c-18 -35.333 -41.832 -87 -71.499 -155l-80.5 -191l-75 -189.5l-52 -132.5c39.333 -5.33301 85.166 -9 137.499 -11s102.166 -3 149.499 -3c116.667 0 212.334 4.66699 287.001 14c-25.333 75.333 -68.333 182.5 -129 321.5
s-116 254.5 -166 346.5zM874.001 1479l433 -1033c56 -134.667 121.333 -268.334 196 -401.001l166 -35v-10h-706v10l272 35c-10 66 -28.5 137.833 -55.5 215.5s-56.833 145.167 -89.5 202.5h-627l-64.5 -166c-16.333 -43.333 -32 -88.333 -47 -135
s-24.833 -85.667 -29.5 -117l262 -35v-10h-559v10l184 35c44.667 77.333 85.667 162.666 123 255.999l463 1178h79z" />
    <glyph glyph-name="B" unicode="B" horiz-adv-x="1366" 
d="M23 10l251 37.001c11.333 54.667 20.333 148.5 27 281.5s10 236.5 10 310.5v322c0 90.667 -2.33301 177.5 -7 260.5s-11 148.833 -19 197.5l-260 35v10h743c106.667 0 191.334 -17.167 254.001 -51.5s106.667 -77.166 132 -128.499s38 -105.333 38 -162
c0 -101.333 -33.833 -181.5 -101.5 -240.5s-149.834 -92.833 -246.501 -101.5v-4c100 -4.66699 185.167 -25.334 255.5 -62.001s123.5 -83.834 159.5 -141.501s54 -119.5 54 -185.5c0 -56 -13.833 -113.333 -41.5 -172s-78 -109.167 -151 -151.5
s-170.833 -63.5 -293.5 -63.5h-804v10zM655 1409c-51.333 0 -90 -3.99902 -116 -11.999c-16.667 -106.667 -25 -233 -25 -379c0 -106.667 2 -175 6 -205c29.333 -12 69 -18 119 -18c66.667 0 126 12.167 178 36.5s93 60.333 123 108s45 106.5 45 176.5
c0 54 -11.333 103.167 -34 147.5s-58.667 79.666 -108 105.999s-112 39.5 -188 39.5zM657 741.002c-65.333 0 -111 -4.66699 -137 -14c-5.33301 -48.667 -8 -128 -8 -238c0 -130.667 4.66699 -256 14 -376c38 -21.333 72.167 -36 102.5 -44s67.833 -12 112.5 -12
c70.667 0 132.334 12.167 185.001 36.5s93.834 60.833 123.501 109.5s44.5 108 44.5 178s-16.833 132 -50.5 186s-83.334 96.5 -149.001 127.5s-144.834 46.5 -237.501 46.5zM340 1427v-1388h70v1388h-70zM682 1440l0.000976562 -8c72.667 -2 134.5 -16.833 185.5 -44.5
s89.167 -65.334 114.5 -113.001s38 -102.5 38 -164.5c0 -58.667 -11.167 -110.167 -33.5 -154.5s-50.833 -79.166 -85.5 -104.499s-70.667 -42.666 -108 -51.999v-11c92.667 12.667 164.834 49.5 216.501 110.5s77.5 133.5 77.5 217.5c0 52 -8.5 98.333 -25.5 139
s-41.333 75.167 -73 103.5s-67.834 49.666 -108.501 63.999s-87 21.5 -139 21.5c-12.667 0 -32.334 -1.33301 -59.001 -4zM793.001 760.002l0.00195312 -8.00098c58.667 -10.667 113.667 -31.5 165 -62.5s92.5 -72.667 123.5 -125s46.5 -114.833 46.5 -187.5
c0 -59.333 -12.833 -114.833 -38.5 -166.5s-67.334 -94.167 -125.001 -127.5s-129.834 -50 -216.501 -50v-8c10.667 -3.33301 30.334 -5 59.001 -5c84 0 156 16.833 216 50.5s104.833 77.834 134.5 132.501s44.5 112.667 44.5 174c0 73.333 -15.667 138.333 -47 195
s-77.833 101.5 -139.5 134.5s-135.834 50.833 -222.501 53.5z" />
    <glyph glyph-name="B" unicode="b" horiz-adv-x="1366" 
d="M23 10l251 37.001c11.333 54.667 20.333 148.5 27 281.5s10 236.5 10 310.5v322c0 90.667 -2.33301 177.5 -7 260.5s-11 148.833 -19 197.5l-260 35v10h743c106.667 0 191.334 -17.167 254.001 -51.5s106.667 -77.166 132 -128.499s38 -105.333 38 -162
c0 -101.333 -33.833 -181.5 -101.5 -240.5s-149.834 -92.833 -246.501 -101.5v-4c100 -4.66699 185.167 -25.334 255.5 -62.001s123.5 -83.834 159.5 -141.501s54 -119.5 54 -185.5c0 -56 -13.833 -113.333 -41.5 -172s-78 -109.167 -151 -151.5
s-170.833 -63.5 -293.5 -63.5h-804v10zM655 1409c-51.333 0 -90 -3.99902 -116 -11.999c-16.667 -106.667 -25 -233 -25 -379c0 -106.667 2 -175 6 -205c29.333 -12 69 -18 119 -18c66.667 0 126 12.167 178 36.5s93 60.333 123 108s45 106.5 45 176.5
c0 54 -11.333 103.167 -34 147.5s-58.667 79.666 -108 105.999s-112 39.5 -188 39.5zM657 741.002c-65.333 0 -111 -4.66699 -137 -14c-5.33301 -48.667 -8 -128 -8 -238c0 -130.667 4.66699 -256 14 -376c38 -21.333 72.167 -36 102.5 -44s67.833 -12 112.5 -12
c70.667 0 132.334 12.167 185.001 36.5s93.834 60.833 123.501 109.5s44.5 108 44.5 178s-16.833 132 -50.5 186s-83.334 96.5 -149.001 127.5s-144.834 46.5 -237.501 46.5zM340 1427v-1388h70v1388h-70zM682 1440l0.000976562 -8c72.667 -2 134.5 -16.833 185.5 -44.5
s89.167 -65.334 114.5 -113.001s38 -102.5 38 -164.5c0 -58.667 -11.167 -110.167 -33.5 -154.5s-50.833 -79.166 -85.5 -104.499s-70.667 -42.666 -108 -51.999v-11c92.667 12.667 164.834 49.5 216.501 110.5s77.5 133.5 77.5 217.5c0 52 -8.5 98.333 -25.5 139
s-41.333 75.167 -73 103.5s-67.834 49.666 -108.501 63.999s-87 21.5 -139 21.5c-12.667 0 -32.334 -1.33301 -59.001 -4zM793.001 760.002l0.00195312 -8.00098c58.667 -10.667 113.667 -31.5 165 -62.5s92.5 -72.667 123.5 -125s46.5 -114.833 46.5 -187.5
c0 -59.333 -12.833 -114.833 -38.5 -166.5s-67.334 -94.167 -125.001 -127.5s-129.834 -50 -216.501 -50v-8c10.667 -3.33301 30.334 -5 59.001 -5c84 0 156 16.833 216 50.5s104.833 77.834 134.5 132.501s44.5 112.667 44.5 174c0 73.333 -15.667 138.333 -47 195
s-77.833 101.5 -139.5 134.5s-135.834 50.833 -222.501 53.5z" />
    <glyph glyph-name="C" unicode="C" horiz-adv-x="1579" 
d="M1069 1460l-117.003 -0.00292969c-116 0 -222.5 -19.167 -319.5 -57.5s-179 -91.666 -246 -159.999s-117.833 -147.166 -152.5 -236.499s-52 -185 -52 -287c0 -93.333 17.833 -182.5 53.5 -267.5s88.334 -160.667 158.001 -227s152.834 -118 249.501 -155
s204.667 -55.5 324 -55.5c53.333 0 87.333 0.666992 102 2v13c-132.667 -2.66699 -250.834 14.833 -354.501 52.5s-189.167 90.334 -256.5 158.001s-117.5 144.167 -150.5 229.5s-49.5 172 -49.5 260c0 86.667 14.333 172 43 256s72.834 161 132.501 231
s136.834 125.833 231.501 167.5s206 62.5 334 62.5h70v14zM1522 269.997l-147.998 -274.001c-64 5.33301 -110.333 8 -139 8c-35.333 0 -83 -2.66699 -143 -8s-106.667 -8 -140 -8c-134.667 0 -253.834 20.833 -357.501 62.5s-189.167 98 -256.5 169
s-117.333 149.333 -150 235s-49 172.5 -49 260.5c0 112.667 19.167 216.5 57.5 311.5s92.5 176.667 162.5 245s151.667 120.666 245 156.999s193.666 54.5 300.999 54.5c28 0 45.667 -0.166992 53 -0.5s23.333 -1 48 -2s49.667 -2.16699 75 -3.5c90 -6 159 -9 207 -9
c106.667 0 176.334 3 209.001 9l12 -336h-12l-67 223c-20 4.66699 -55.333 11.334 -106 20.001s-100.167 15.667 -148.5 21s-98.833 8 -151.5 8c-137.333 0 -254.833 -27.5 -352.5 -82.5s-171.167 -133 -220.5 -234s-74 -217.167 -74 -348.5
c0 -102 17.667 -195.833 53 -281.5s84.666 -158.667 147.999 -219s135.5 -106.166 216.5 -137.499s166.5 -47 256.5 -47c89.333 0 173 15.167 251 45.5s147.667 85.5 209 165.5z" />
    <glyph glyph-name="C" unicode="c" horiz-adv-x="1579" 
d="M1069 1460l-117.003 -0.00292969c-116 0 -222.5 -19.167 -319.5 -57.5s-179 -91.666 -246 -159.999s-117.833 -147.166 -152.5 -236.499s-52 -185 -52 -287c0 -93.333 17.833 -182.5 53.5 -267.5s88.334 -160.667 158.001 -227s152.834 -118 249.501 -155
s204.667 -55.5 324 -55.5c53.333 0 87.333 0.666992 102 2v13c-132.667 -2.66699 -250.834 14.833 -354.501 52.5s-189.167 90.334 -256.5 158.001s-117.5 144.167 -150.5 229.5s-49.5 172 -49.5 260c0 86.667 14.333 172 43 256s72.834 161 132.501 231
s136.834 125.833 231.501 167.5s206 62.5 334 62.5h70v14zM1522 269.997l-147.998 -274.001c-64 5.33301 -110.333 8 -139 8c-35.333 0 -83 -2.66699 -143 -8s-106.667 -8 -140 -8c-134.667 0 -253.834 20.833 -357.501 62.5s-189.167 98 -256.5 169
s-117.333 149.333 -150 235s-49 172.5 -49 260.5c0 112.667 19.167 216.5 57.5 311.5s92.5 176.667 162.5 245s151.667 120.666 245 156.999s193.666 54.5 300.999 54.5c28 0 45.667 -0.166992 53 -0.5s23.333 -1 48 -2s49.667 -2.16699 75 -3.5c90 -6 159 -9 207 -9
c106.667 0 176.334 3 209.001 9l12 -336h-12l-67 223c-20 4.66699 -55.333 11.334 -106 20.001s-100.167 15.667 -148.5 21s-98.833 8 -151.5 8c-137.333 0 -254.833 -27.5 -352.5 -82.5s-171.167 -133 -220.5 -234s-74 -217.167 -74 -348.5
c0 -102 17.667 -195.833 53 -281.5s84.666 -158.667 147.999 -219s135.5 -106.166 216.5 -137.499s166.5 -47 256.5 -47c89.333 0 173 15.167 251 45.5s147.667 85.5 209 165.5z" />
    <glyph glyph-name="D" unicode="D" horiz-adv-x="1772" 
d="M35 1464l823 -0.00292969c153.333 0 283.833 -22.167 391.5 -66.5s192.667 -102.166 255 -173.499s107 -149 134 -233s40.5 -169.333 40.5 -256c0 -105.333 -17.5 -203.166 -52.5 -293.499s-85.333 -168.666 -151 -234.999s-143 -117.333 -232 -153
s-186.833 -53.5 -293.5 -53.5h-921v10l243 35c11.333 56.667 20.333 150.5 27 281.5s10 233.833 10 308.5v262c0 194 -8.66699 367.333 -26 520l-248 37v10zM510 962.997l0.00195312 -584c0 -86 4.66699 -173.333 14 -262c42.667 -20 91 -34.667 145 -44s108 -14 162 -14
c74.667 0 148.334 14.167 221.001 42.5s138.167 70.166 196.5 125.499s105.166 125.833 140.499 211.5s53 183.834 53 294.501c0 116 -18.667 216.5 -56 301.5s-88.833 154.667 -154.5 209s-140.834 94.5 -225.501 120.5s-173.667 39 -267 39
c-75.333 0 -143.333 -8.33301 -204 -25c-4 -25.333 -7.83301 -61.5 -11.5 -108.5s-6.83398 -102.167 -9.50098 -165.5s-4 -110.333 -4 -141zM338.002 1425v-1386h70v1386h-70zM700.002 1440l0.00195312 -10.002c96.667 0 183.5 -8.33301 260.5 -25
s141.667 -39.334 194 -68.001s97.5 -62 135.5 -100c39.333 -39.333 73.166 -84.666 101.499 -135.999s50.666 -108.333 66.999 -171s24.5 -129 24.5 -199c0 -155.333 -33.333 -285.666 -100 -390.999s-148.667 -182.5 -246 -231.5s-189.666 -73.5 -276.999 -73.5h-76v-10h76
c145.333 0 271.166 31.833 377.499 95.5s186.833 149.334 241.5 257.001s82 224.167 82 349.5c0 112 -19.5 211.833 -58.5 299.5s-87.833 160.5 -146.5 218.5c-126 130 -324.667 195 -596 195h-60z" />
    <glyph glyph-name="D" unicode="d" horiz-adv-x="1772" 
d="M35 1464l823 -0.00292969c153.333 0 283.833 -22.167 391.5 -66.5s192.667 -102.166 255 -173.499s107 -149 134 -233s40.5 -169.333 40.5 -256c0 -105.333 -17.5 -203.166 -52.5 -293.499s-85.333 -168.666 -151 -234.999s-143 -117.333 -232 -153
s-186.833 -53.5 -293.5 -53.5h-921v10l243 35c11.333 56.667 20.333 150.5 27 281.5s10 233.833 10 308.5v262c0 194 -8.66699 367.333 -26 520l-248 37v10zM510 962.997l0.00195312 -584c0 -86 4.66699 -173.333 14 -262c42.667 -20 91 -34.667 145 -44s108 -14 162 -14
c74.667 0 148.334 14.167 221.001 42.5s138.167 70.166 196.5 125.499s105.166 125.833 140.499 211.5s53 183.834 53 294.501c0 116 -18.667 216.5 -56 301.5s-88.833 154.667 -154.5 209s-140.834 94.5 -225.501 120.5s-173.667 39 -267 39
c-75.333 0 -143.333 -8.33301 -204 -25c-4 -25.333 -7.83301 -61.5 -11.5 -108.5s-6.83398 -102.167 -9.50098 -165.5s-4 -110.333 -4 -141zM338.002 1425v-1386h70v1386h-70zM700.002 1440l0.00195312 -10.002c96.667 0 183.5 -8.33301 260.5 -25
s141.667 -39.334 194 -68.001s97.5 -62 135.5 -100c39.333 -39.333 73.166 -84.666 101.499 -135.999s50.666 -108.333 66.999 -171s24.5 -129 24.5 -199c0 -155.333 -33.333 -285.666 -100 -390.999s-148.667 -182.5 -246 -231.5s-189.666 -73.5 -276.999 -73.5h-76v-10h76
c145.333 0 271.166 31.833 377.499 95.5s186.833 149.334 241.5 257.001s82 224.167 82 349.5c0 112 -19.5 211.833 -58.5 299.5s-87.833 160.5 -146.5 218.5c-126 130 -324.667 195 -596 195h-60z" />
    <glyph glyph-name="E" unicode="E" horiz-adv-x="1174" 
d="M324 1425v-1386h69v1386h-69zM20 1454l0.00585938 10.0029h1065l25 -311h-16l-72 244c-56.667 4 -120.334 6 -191.001 6c-128.667 0 -232.334 -9 -311.001 -27c-13.333 -108 -20 -231.333 -20 -370c0 -86.667 2.66699 -157 8 -211c105.333 -6 172.333 -9 201 -9
c75.333 0 153 4.33301 233 13l45 170h17v-426h-17l-47 180c-58 6.66699 -122 10 -192 10c-88 0 -168 -4 -240 -12c-8.66699 -77.333 -11.334 -153 -8.00098 -227c1.33301 -94.667 3 -172.834 5 -234.501s5.66699 -114.834 11 -159.501c81.333 -24.667 188 -37 320 -37
c76 0 140 3 192 9l80 241h14l-22 -313h-1077v10l239 35c5.33301 27.333 10.166 69 14.499 125s8.16602 118.833 11.499 188.5s5.66602 128 6.99902 175s2 88.167 2 123.5v252c0 32 -1 77.5 -3 136.5s-5 120.167 -9 183.5s-9.66699 126.666 -17 189.999z" />
    <glyph glyph-name="E" unicode="e" horiz-adv-x="1174" 
d="M324 1425v-1386h69v1386h-69zM20 1454l0.00585938 10.0029h1065l25 -311h-16l-72 244c-56.667 4 -120.334 6 -191.001 6c-128.667 0 -232.334 -9 -311.001 -27c-13.333 -108 -20 -231.333 -20 -370c0 -86.667 2.66699 -157 8 -211c105.333 -6 172.333 -9 201 -9
c75.333 0 153 4.33301 233 13l45 170h17v-426h-17l-47 180c-58 6.66699 -122 10 -192 10c-88 0 -168 -4 -240 -12c-8.66699 -77.333 -11.334 -153 -8.00098 -227c1.33301 -94.667 3 -172.834 5 -234.501s5.66699 -114.834 11 -159.501c81.333 -24.667 188 -37 320 -37
c76 0 140 3 192 9l80 241h14l-22 -313h-1077v10l239 35c5.33301 27.333 10.166 69 14.499 125s8.16602 118.833 11.499 188.5s5.66602 128 6.99902 175s2 88.167 2 123.5v252c0 32 -1 77.5 -3 136.5s-5 120.167 -9 183.5s-9.66699 126.666 -17 189.999z" />
    <glyph glyph-name="F" unicode="F" horiz-adv-x="1174" 
d="M326 1425v-1388h69v1388h-69zM23 1464l1069 -0.000976562l20 -317h-14l-72 252c-74 4 -136 6 -186 6c-126 0 -232 -9.66699 -318 -29c-5.33301 -46 -10.333 -109.333 -15 -190s-7 -142.334 -7 -185.001c0 -46.667 2.66699 -114.667 8 -204
c62 -7.33301 134.333 -11 217 -11c87.333 0 159.666 3.66699 216.999 11l49 172h13v-428h-13l-49 182c-38 4 -74.5 6.66699 -109.5 8s-71.5 2 -109.5 2c-36 0 -108.333 -3.33301 -217 -10c-4 -70 -6 -141.667 -6 -215c0 -51.333 2.66699 -127.5 8 -228.5
s12 -179.167 20 -234.5l250 -35v-10h-755v10l241 35c10 70 18 164.333 24 283s9 218.334 9 299.001v278c0 34.667 -1.16699 85.834 -3.5 153.501s-5.33301 133.667 -9 198s-9.16699 117.833 -16.5 160.5l-245 37v10z" />
    <glyph glyph-name="F" unicode="f" horiz-adv-x="1174" 
d="M326 1425v-1388h69v1388h-69zM23 1464l1069 -0.000976562l20 -317h-14l-72 252c-74 4 -136 6 -186 6c-126 0 -232 -9.66699 -318 -29c-5.33301 -46 -10.333 -109.333 -15 -190s-7 -142.334 -7 -185.001c0 -46.667 2.66699 -114.667 8 -204
c62 -7.33301 134.333 -11 217 -11c87.333 0 159.666 3.66699 216.999 11l49 172h13v-428h-13l-49 182c-38 4 -74.5 6.66699 -109.5 8s-71.5 2 -109.5 2c-36 0 -108.333 -3.33301 -217 -10c-4 -70 -6 -141.667 -6 -215c0 -51.333 2.66699 -127.5 8 -228.5
s12 -179.167 20 -234.5l250 -35v-10h-755v10l241 35c10 70 18 164.333 24 283s9 218.334 9 299.001v278c0 34.667 -1.16699 85.834 -3.5 153.501s-5.33301 133.667 -9 198s-9.16699 117.833 -16.5 160.5l-245 37v10z" />
    <glyph glyph-name="G" unicode="G" 
d="M1307 522v-391l67 25v366h-67zM1667 551l-160.002 -36.999c-8.66699 -48.667 -15.667 -111 -21 -187s-7.66602 -144 -6.99902 -204c-76.667 -30 -139.167 -53 -187.5 -69s-106 -30.333 -173 -43s-140.167 -19 -219.5 -19c-131.333 0 -247 20.667 -347 62
s-182.5 96.833 -247.5 166.5s-113.167 147.167 -144.5 232.5s-47 171.333 -47 258c0 102 17.333 199.5 52 292.5s85.667 176 153 249s149.833 130.333 247.5 172s208.167 62.5 331.5 62.5c19.333 0 34.5 -0.333008 45.5 -1s24.833 -1.33398 41.5 -2.00098s39 -1.66699 67 -3
c81.333 -5.33301 158.333 -8 231 -8c67.333 0 122 2 164 6l14 -334h-14l-64 223c-25.333 6.66699 -57 13.5 -95 20.5s-80.833 13.167 -128.5 18.5s-99.167 8 -154.5 8c-116.667 0 -218 -18.833 -304 -56.5s-155.167 -88.334 -207.5 -152.001s-90.5 -134.167 -114.5 -211.5
s-36 -156.333 -36 -237c0 -91.333 16.833 -177.666 50.5 -258.999s81.334 -153.333 143.001 -216s133.5 -111.5 215.5 -146.5s169 -52.5 261 -52.5c24 0 48.667 1.33301 74 4s51.5 6.16699 78.5 10.5l92.5 14.5c14 59.333 21 122 21 188c0 91.333 -7 163 -21 215l-258 35v12
h668v-12zM1018 1450l-0.000976562 8c-44.667 4 -85 6 -121 6c-108 0 -207.5 -18.667 -298.5 -56s-169.667 -89.833 -236 -157.5s-117.666 -148 -153.999 -241s-54.5 -192.5 -54.5 -298.5c0 -124 31 -239.167 93 -345.5s151 -190.833 267 -253.5s252.667 -94 410 -94
c29.333 0 69.333 3 120 9v8c-146.667 -0.666992 -272.667 19.333 -378 60s-190.333 96 -255 166s-111.5 146.667 -140.5 230s-43.5 166.666 -43.5 249.999c0 102.667 16.5 197.334 49.5 284.001s81.167 161.667 144.5 225s142.833 112.5 238.5 147.5s203.5 52.5 323.5 52.5
h35z" />
    <glyph glyph-name="G" unicode="g" 
d="M1307 522v-391l67 25v366h-67zM1667 551l-160.002 -36.999c-8.66699 -48.667 -15.667 -111 -21 -187s-7.66602 -144 -6.99902 -204c-76.667 -30 -139.167 -53 -187.5 -69s-106 -30.333 -173 -43s-140.167 -19 -219.5 -19c-131.333 0 -247 20.667 -347 62
s-182.5 96.833 -247.5 166.5s-113.167 147.167 -144.5 232.5s-47 171.333 -47 258c0 102 17.333 199.5 52 292.5s85.667 176 153 249s149.833 130.333 247.5 172s208.167 62.5 331.5 62.5c19.333 0 34.5 -0.333008 45.5 -1s24.833 -1.33398 41.5 -2.00098s39 -1.66699 67 -3
c81.333 -5.33301 158.333 -8 231 -8c67.333 0 122 2 164 6l14 -334h-14l-64 223c-25.333 6.66699 -57 13.5 -95 20.5s-80.833 13.167 -128.5 18.5s-99.167 8 -154.5 8c-116.667 0 -218 -18.833 -304 -56.5s-155.167 -88.334 -207.5 -152.001s-90.5 -134.167 -114.5 -211.5
s-36 -156.333 -36 -237c0 -91.333 16.833 -177.666 50.5 -258.999s81.334 -153.333 143.001 -216s133.5 -111.5 215.5 -146.5s169 -52.5 261 -52.5c24 0 48.667 1.33301 74 4s51.5 6.16699 78.5 10.5l92.5 14.5c14 59.333 21 122 21 188c0 91.333 -7 163 -21 215l-258 35v12
h668v-12zM1018 1450l-0.000976562 8c-44.667 4 -85 6 -121 6c-108 0 -207.5 -18.667 -298.5 -56s-169.667 -89.833 -236 -157.5s-117.666 -148 -153.999 -241s-54.5 -192.5 -54.5 -298.5c0 -124 31 -239.167 93 -345.5s151 -190.833 267 -253.5s252.667 -94 410 -94
c29.333 0 69.333 3 120 9v8c-146.667 -0.666992 -272.667 19.333 -378 60s-190.333 96 -255 166s-111.5 146.667 -140.5 230s-43.5 166.666 -43.5 249.999c0 102.667 16.5 197.334 49.5 284.001s81.167 161.667 144.5 225s142.833 112.5 238.5 147.5s203.5 52.5 323.5 52.5
h35z" />
    <glyph glyph-name="H" unicode="H" horiz-adv-x="1855" 
d="M1446 1427v-1388h70v1388h-70zM289 1425v-1386h69v1386h-69zM27 1464l727 -0.000976562v-10l-265 -35c-7.33301 -36.667 -13.5 -101.334 -18.5 -194.001s-7.5 -171.334 -7.5 -236.001c0 -56 2 -125 6 -207c97.333 -18.667 243.333 -28 438 -28
c96.667 0 187.334 2 272.001 6s162 11.333 232 22c5.33301 64.667 8 142 8 232c0 53.333 -1.5 106.833 -4.5 160.5s-6.16699 96.834 -9.5 129.501s-8 71.667 -14 117l-265 33v10h727v-10l-204 -33c-10.667 -49.333 -18.5 -132.5 -23.5 -249.5s-7.5 -230.5 -7.5 -340.5v-335
c0 -200.667 10.333 -351 31 -451l206 -35v-10h-729v10l260 35c18.667 113.333 29.667 237.666 33 372.999c1.33301 34.667 1.33301 76.834 0 126.501s-4 101.5 -8 155.5h-944c-2.66699 -50 -4 -128.333 -4 -235c0 -63.333 2.16699 -137.166 6.5 -221.499
s11.833 -150.5 22.5 -198.5l262 -35v-10h-729v10l202 35c4.66699 26.667 9.66699 74.5 15 143.5s9.66602 146.667 12.999 233s5 158.833 5 217.5v369c0 10.667 -1 45.834 -3 105.501s-5.5 119 -10.5 178s-10.167 102.167 -15.5 129.5l-204 33v10z" />
    <glyph glyph-name="H" unicode="h" horiz-adv-x="1855" 
d="M1446 1427v-1388h70v1388h-70zM289 1425v-1386h69v1386h-69zM27 1464l727 -0.000976562v-10l-265 -35c-7.33301 -36.667 -13.5 -101.334 -18.5 -194.001s-7.5 -171.334 -7.5 -236.001c0 -56 2 -125 6 -207c97.333 -18.667 243.333 -28 438 -28
c96.667 0 187.334 2 272.001 6s162 11.333 232 22c5.33301 64.667 8 142 8 232c0 53.333 -1.5 106.833 -4.5 160.5s-6.16699 96.834 -9.5 129.501s-8 71.667 -14 117l-265 33v10h727v-10l-204 -33c-10.667 -49.333 -18.5 -132.5 -23.5 -249.5s-7.5 -230.5 -7.5 -340.5v-335
c0 -200.667 10.333 -351 31 -451l206 -35v-10h-729v10l260 35c18.667 113.333 29.667 237.666 33 372.999c1.33301 34.667 1.33301 76.834 0 126.501s-4 101.5 -8 155.5h-944c-2.66699 -50 -4 -128.333 -4 -235c0 -63.333 2.16699 -137.166 6.5 -221.499
s11.833 -150.5 22.5 -198.5l262 -35v-10h-729v10l202 35c4.66699 26.667 9.66699 74.5 15 143.5s9.66602 146.667 12.999 233s5 158.833 5 217.5v369c0 10.667 -1 45.834 -3 105.501s-5.5 119 -10.5 178s-10.167 102.167 -15.5 129.5l-204 33v10z" />
    <glyph glyph-name="I" unicode="I" horiz-adv-x="788" 
d="M340 1425v-1386h70v1386h-70zM791 0l-756.001 -0.00390625v10l244 37c11.333 83.333 19.833 183.833 25.5 301.5s8.5 232.834 8.5 345.501v168c0 228.667 -10 414.334 -30 557.001l-248 35v10h756v-10l-250 -35c-7.33301 -64.667 -12.666 -123.167 -15.999 -175.5
s-6.33301 -115.666 -9 -189.999s-4 -144.166 -4 -209.499v-221c0 -40.667 1.5 -107.167 4.5 -199.5s7 -170.5 12 -234.5s9.83301 -112 14.5 -144l248 -35v-10z" />
    <glyph glyph-name="I" unicode="&#x131;" horiz-adv-x="788" 
d="M340 1425v-1386h70v1386h-70zM791 0l-756.001 -0.00390625v10l244 37c11.333 83.333 19.833 183.833 25.5 301.5s8.5 232.834 8.5 345.501v168c0 228.667 -10 414.334 -30 557.001l-248 35v10h756v-10l-250 -35c-7.33301 -64.667 -12.666 -123.167 -15.999 -175.5
s-6.33301 -115.666 -9 -189.999s-4 -144.166 -4 -209.499v-221c0 -40.667 1.5 -107.167 4.5 -199.5s7 -170.5 12 -234.5s9.83301 -112 14.5 -144l248 -35v-10z" />
    <glyph glyph-name="I" unicode="i" horiz-adv-x="788" 
d="M340 1425v-1386h70v1386h-70zM791 0l-756.001 -0.00390625v10l244 37c11.333 83.333 19.833 183.833 25.5 301.5s8.5 232.834 8.5 345.501v168c0 228.667 -10 414.334 -30 557.001l-248 35v10h756v-10l-250 -35c-7.33301 -64.667 -12.666 -123.167 -15.999 -175.5
s-6.33301 -115.666 -9 -189.999s-4 -144.166 -4 -209.499v-221c0 -40.667 1.5 -107.167 4.5 -199.5s7 -170.5 12 -234.5s9.83301 -112 14.5 -144l248 -35v-10z" />
    <glyph glyph-name="J" unicode="J" horiz-adv-x="1087" 
d="M680 1425v-1046c0 -48 -9 -99.167 -27 -153.5s-49.5 -101.166 -94.5 -140.499s-104.833 -59.333 -179.5 -60l4 -11c90.667 4.66699 163 25.334 217 62.001s92.5 86.334 115.5 149.001s34.5 138 34.5 226v974h-70zM854 945.997l-0.000976562 -452.002
c0 -166 -41.167 -292.167 -123.5 -378.5s-192.166 -129.5 -329.499 -129.5c-22.667 0 -52 1.83301 -88 5.5s-72.5 8.83398 -109.5 15.501s-72.833 16 -107.5 28l-41 327h15l102 -251c64.667 -42.667 131 -64 199 -64c72 0 137 27.833 195 83.5s87 151.5 87 287.5v489
c0 72.667 -2.66699 162.334 -8 269.001s-12 187.667 -20 243l-265 35v10h727v-10l-208 -37c-16.667 -152 -25 -309 -25 -471z" />
    <glyph glyph-name="J" unicode="j" horiz-adv-x="1087" 
d="M680 1425v-1046c0 -48 -9 -99.167 -27 -153.5s-49.5 -101.166 -94.5 -140.499s-104.833 -59.333 -179.5 -60l4 -11c90.667 4.66699 163 25.334 217 62.001s92.5 86.334 115.5 149.001s34.5 138 34.5 226v974h-70zM854 945.997l-0.000976562 -452.002
c0 -166 -41.167 -292.167 -123.5 -378.5s-192.166 -129.5 -329.499 -129.5c-22.667 0 -52 1.83301 -88 5.5s-72.5 8.83398 -109.5 15.501s-72.833 16 -107.5 28l-41 327h15l102 -251c64.667 -42.667 131 -64 199 -64c72 0 137 27.833 195 83.5s87 151.5 87 287.5v489
c0 72.667 -2.66699 162.334 -8 269.001s-12 187.667 -20 243l-265 35v10h727v-10l-208 -37c-16.667 -152 -25 -309 -25 -471z" />
    <glyph glyph-name="K" unicode="K" 
d="M315 1425v-1388h72v1388h-72zM651 844l-45 -45l627 -762h84zM774 10l0.00488281 -9.99902h-749v10l227 31c8 55.333 14.667 122 20 200s9.5 153.667 12.5 227s4.5 140 4.5 200v282c0 79.333 -2.83301 164.5 -8.5 255.5s-12.5 161.5 -20.5 211.5l-235 37v10h751v-10
l-260 -37c-6.66699 -48 -12.334 -112.333 -17.001 -193s-7 -139 -7 -175v-258c45.333 31.333 96.333 71.833 153 121.5l191 174.5c143.333 136.667 249.666 246.667 318.999 330l-235 37v10h571v-10l-197 -35c-16.667 -11.333 -44.667 -34.666 -84 -69.999l-142 -131
l-180 -168l-147 -135c39.333 -66.667 99.666 -147.667 180.999 -243l221 -271c130.667 -157.333 243.334 -276 338.001 -356l184 -35v-10h-700v10l190 35c-40.667 68 -93.834 145.667 -159.501 233s-135.334 174.833 -209.001 262.5s-141.167 164.167 -202.5 229.5l-95 -88
v-219c0 -38.667 2.66699 -106.834 8 -204.501s11.666 -168.834 18.999 -213.501z" />
    <glyph glyph-name="K" unicode="k" 
d="M315 1425v-1388h72v1388h-72zM651 844l-45 -45l627 -762h84zM774 10l0.00488281 -9.99902h-749v10l227 31c8 55.333 14.667 122 20 200s9.5 153.667 12.5 227s4.5 140 4.5 200v282c0 79.333 -2.83301 164.5 -8.5 255.5s-12.5 161.5 -20.5 211.5l-235 37v10h751v-10
l-260 -37c-6.66699 -48 -12.334 -112.333 -17.001 -193s-7 -139 -7 -175v-258c45.333 31.333 96.333 71.833 153 121.5l191 174.5c143.333 136.667 249.666 246.667 318.999 330l-235 37v10h571v-10l-197 -35c-16.667 -11.333 -44.667 -34.666 -84 -69.999l-142 -131
l-180 -168l-147 -135c39.333 -66.667 99.666 -147.667 180.999 -243l221 -271c130.667 -157.333 243.334 -276 338.001 -356l184 -35v-10h-700v10l190 35c-40.667 68 -93.834 145.667 -159.501 233s-135.334 174.833 -209.001 262.5s-141.167 164.167 -202.5 229.5l-95 -88
v-219c0 -38.667 2.66699 -106.834 8 -204.501s11.666 -168.834 18.999 -213.501z" />
    <glyph glyph-name="L" unicode="L" horiz-adv-x="1280" 
d="M340 1427v-1388h70v1388h-70zM37 1454l0.000976562 10.001h756v-10l-248 -35c-8.66699 -64.667 -16 -151.834 -22 -261.501s-9 -205.5 -9 -287.5v-430c0 -103.333 5.33301 -211 16 -323c114 -36 231.667 -54 353 -54c58.667 0 112.667 3.33301 162 10s84 13 104 19
l104 273h15l-47 -365h-1186v10l239 35c8 32 14.833 89 20.5 171s10.167 166.667 13.5 254s5 149 5 185v252c0 55.333 -1.33301 118.833 -4 190.5s-5.83398 134.5 -9.50098 188.5s-8.5 98.333 -14.5 133z" />
    <glyph glyph-name="L" unicode="l" horiz-adv-x="1280" 
d="M340 1427v-1388h70v1388h-70zM37 1454l0.000976562 10.001h756v-10l-248 -35c-8.66699 -64.667 -16 -151.834 -22 -261.501s-9 -205.5 -9 -287.5v-430c0 -103.333 5.33301 -211 16 -323c114 -36 231.667 -54 353 -54c58.667 0 112.667 3.33301 162 10s84 13 104 19
l104 273h15l-47 -365h-1186v10l239 35c8 32 14.833 89 20.5 171s10.167 166.667 13.5 254s5 149 5 185v252c0 55.333 -1.33301 118.833 -4 190.5s-5.83398 134.5 -9.50098 188.5s-8.5 98.333 -14.5 133z" />
    <glyph glyph-name="M" unicode="M" horiz-adv-x="2154" 
d="M276 1425l723 -1335l35 68l-688 1267h-70zM1733 1360l-58 -117l88 -1204h72l-98 1321h-4zM27 1464l429.996 0.00292969c36 -80 66.667 -145.333 92 -196l92 -178l281 -521c69.333 -125.333 127.333 -219.333 174 -282c38.667 62.667 100 174.667 184 336l256 481
c73.333 139.333 129.333 259.333 168 360h428v-10l-266 -37c-4 -58.667 -6 -117.334 -6 -176.001c0 -61.333 5.83301 -186.833 17.5 -376.5s25.834 -366.334 42.501 -530.001s32 -260.167 46 -289.5l184 -35v-10h-686v10l238 35c5.33301 50.667 8 119 8 205
c0 47.333 -1.66699 109.166 -5 185.499s-8.5 164 -15.5 263s-15.5 190.5 -25.5 274.5s-19.333 140.667 -28 170c-31.333 -50 -64 -107.333 -98 -172l-389 -729c-61.333 -119.333 -102.333 -204.666 -123 -255.999h-14c-14 30.667 -38 79.667 -72 147l-82 158l-326 604
c-55.333 102.667 -101 184.667 -137 246c-4.66699 -26.667 -11.667 -87.334 -21 -182.001s-18.166 -197.334 -26.499 -308.001s-14.666 -205 -18.999 -283s-6.5 -139.333 -6.5 -184c0 -31.333 1.33301 -77 4 -137l190 -37v-10h-491v10l190 37c9.33301 28 22 120.333 38 277
s30 317.834 42 483.501s18 285.5 18 359.5c0 26 -1.33301 66.333 -4 121c-19.333 40 -56.666 83 -111.999 129l-170 37v10z" />
    <glyph glyph-name="M" unicode="m" horiz-adv-x="2154" 
d="M276 1425l723 -1335l35 68l-688 1267h-70zM1733 1360l-58 -117l88 -1204h72l-98 1321h-4zM27 1464l429.996 0.00292969c36 -80 66.667 -145.333 92 -196l92 -178l281 -521c69.333 -125.333 127.333 -219.333 174 -282c38.667 62.667 100 174.667 184 336l256 481
c73.333 139.333 129.333 259.333 168 360h428v-10l-266 -37c-4 -58.667 -6 -117.334 -6 -176.001c0 -61.333 5.83301 -186.833 17.5 -376.5s25.834 -366.334 42.501 -530.001s32 -260.167 46 -289.5l184 -35v-10h-686v10l238 35c5.33301 50.667 8 119 8 205
c0 47.333 -1.66699 109.166 -5 185.499s-8.5 164 -15.5 263s-15.5 190.5 -25.5 274.5s-19.333 140.667 -28 170c-31.333 -50 -64 -107.333 -98 -172l-389 -729c-61.333 -119.333 -102.333 -204.666 -123 -255.999h-14c-14 30.667 -38 79.667 -72 147l-82 158l-326 604
c-55.333 102.667 -101 184.667 -137 246c-4.66699 -26.667 -11.667 -87.334 -21 -182.001s-18.166 -197.334 -26.499 -308.001s-14.666 -205 -18.999 -283s-6.5 -139.333 -6.5 -184c0 -31.333 1.33301 -77 4 -137l190 -37v-10h-491v10l190 37c9.33301 28 22 120.333 38 277
s30 317.834 42 483.501s18 285.5 18 359.5c0 26 -1.33301 66.333 -4 121c-19.333 40 -56.666 83 -111.999 129l-170 37v10z" />
    <glyph glyph-name="N" unicode="N" horiz-adv-x="1855" 
d="M25 1454v10.001h505c33.333 -45.333 76.5 -100 129.5 -164l141.5 -165l448 -498l138.5 -150c33 -35.333 75.833 -78.333 128.5 -129c4 46 6.66699 89 8 129s2 77.667 2 113v432c0 155.333 -7.66699 283.666 -23 384.999l-243 37v10h595v-10l-243 -39
c-12.667 -93.333 -19 -212.666 -19 -357.999v-1096h-10c-102 129.333 -203 250.333 -303 363l-612 682c-90.667 96.667 -168 173.667 -232 231c-9.33301 -90.667 -14 -175.334 -14 -254.001v-633c0 -84.667 6.66699 -185.667 20 -303l254 -37v-10h-608v10l246 35
c8 48 13.667 116.333 17 205s5 167.667 5 237v490c0 58 -1 115.5 -3 172.5s-5.66699 113.5 -11 169.5l-133 98zM324 1427l1208 -1343v94l-1124 1249h-84z" />
    <glyph glyph-name="N" unicode="n" horiz-adv-x="1855" 
d="M25 1454v10.001h505c33.333 -45.333 76.5 -100 129.5 -164l141.5 -165l448 -498l138.5 -150c33 -35.333 75.833 -78.333 128.5 -129c4 46 6.66699 89 8 129s2 77.667 2 113v432c0 155.333 -7.66699 283.666 -23 384.999l-243 37v10h595v-10l-243 -39
c-12.667 -93.333 -19 -212.666 -19 -357.999v-1096h-10c-102 129.333 -203 250.333 -303 363l-612 682c-90.667 96.667 -168 173.667 -232 231c-9.33301 -90.667 -14 -175.334 -14 -254.001v-633c0 -84.667 6.66699 -185.667 20 -303l254 -37v-10h-608v10l246 35
c8 48 13.667 116.333 17 205s5 167.667 5 237v490c0 58 -1 115.5 -3 172.5s-5.66699 113.5 -11 169.5l-133 98zM324 1427l1208 -1343v94l-1124 1249h-84z" />
    <glyph glyph-name="O" unicode="O" horiz-adv-x="1772" 
d="M893 1485c142 0 264.999 -23.6738 368.999 -71.0068s189.167 -109.333 255.5 -186s115 -158.167 146 -244.5s46.5 -169.166 46.5 -248.499c0 -90.667 -17.5 -179.667 -52.5 -267s-86.667 -167.166 -155 -239.499s-153 -130.166 -254 -173.499s-213.5 -65 -337.5 -65
c-179.333 0 -331.333 38.833 -456 116.5s-216.667 173.834 -276 288.501s-89 226.667 -89 336c0 96.667 18.833 190.334 56.5 281.001s92.334 171.834 164.001 243.501s157.5 127.834 257.5 168.501s208.333 61 325 61zM898.999 1414.99
c-103.333 0 -198.832 -26.999 -286.499 -80.999s-157.334 -132 -209.001 -234s-77.5 -222.333 -77.5 -361c0 -149.333 28.167 -275.5 84.5 -378.5s128.666 -179.333 216.999 -229s179.5 -74.5 273.5 -74.5c76.667 0 149.334 14.667 218.001 44s130 72.166 184 128.499
s96.167 125.666 126.5 207.999s45.5 174.166 45.5 275.499c0 138.667 -16 249.334 -48 332.001s-79 155 -141 217c-52.667 52.667 -112.5 91.334 -179.5 116.001s-136.167 37 -207.5 37zM950 1455.99l-0.00195312 -10c64.667 -4.66699 129.667 -19.834 195 -45.501
s126.5 -65.667 183.5 -120s102.833 -127.5 137.5 -219.5s52 -202.667 52 -332c0 -84.667 -10.167 -165.667 -30.5 -243s-53 -148.666 -98 -213.999s-103.833 -119.333 -176.5 -162s-159.667 -69 -261 -79v-11c85.333 4 166.333 22.333 243 55s144.834 79.5 204.501 140.5
s106.834 135.5 141.501 223.5s52 186 52 294c0 118 -18 222.167 -54 312.5s-85 165.5 -147 225.5s-130.833 105.333 -206.5 136s-154.167 47 -235.5 49zM851.998 1445.99v10.001c-93.333 -0.666992 -184.333 -20.667 -273 -60s-166.667 -92.666 -234 -159.999
s-119.833 -144 -157.5 -230s-56.5 -176.333 -56.5 -271c0 -116 31.5 -228.833 94.5 -338.5s150.167 -198.834 261.5 -267.501s233.666 -105 366.999 -109v11c-129.333 11.333 -243.666 51.666 -342.999 120.999s-174.833 155.333 -226.5 258s-77.5 209 -77.5 319
c0 90.667 15 177.667 45 261s73.333 157.666 130 222.999s125.167 118.333 205.5 159s168.5 65.334 264.5 74.001z" />
    <glyph glyph-name="O" unicode="o" horiz-adv-x="1772" 
d="M893 1485c142 0 264.999 -23.6738 368.999 -71.0068s189.167 -109.333 255.5 -186s115 -158.167 146 -244.5s46.5 -169.166 46.5 -248.499c0 -90.667 -17.5 -179.667 -52.5 -267s-86.667 -167.166 -155 -239.499s-153 -130.166 -254 -173.499s-213.5 -65 -337.5 -65
c-179.333 0 -331.333 38.833 -456 116.5s-216.667 173.834 -276 288.501s-89 226.667 -89 336c0 96.667 18.833 190.334 56.5 281.001s92.334 171.834 164.001 243.501s157.5 127.834 257.5 168.501s208.333 61 325 61zM898.999 1414.99
c-103.333 0 -198.832 -26.999 -286.499 -80.999s-157.334 -132 -209.001 -234s-77.5 -222.333 -77.5 -361c0 -149.333 28.167 -275.5 84.5 -378.5s128.666 -179.333 216.999 -229s179.5 -74.5 273.5 -74.5c76.667 0 149.334 14.667 218.001 44s130 72.166 184 128.499
s96.167 125.666 126.5 207.999s45.5 174.166 45.5 275.499c0 138.667 -16 249.334 -48 332.001s-79 155 -141 217c-52.667 52.667 -112.5 91.334 -179.5 116.001s-136.167 37 -207.5 37zM950 1455.99l-0.00195312 -10c64.667 -4.66699 129.667 -19.834 195 -45.501
s126.5 -65.667 183.5 -120s102.833 -127.5 137.5 -219.5s52 -202.667 52 -332c0 -84.667 -10.167 -165.667 -30.5 -243s-53 -148.666 -98 -213.999s-103.833 -119.333 -176.5 -162s-159.667 -69 -261 -79v-11c85.333 4 166.333 22.333 243 55s144.834 79.5 204.501 140.5
s106.834 135.5 141.501 223.5s52 186 52 294c0 118 -18 222.167 -54 312.5s-85 165.5 -147 225.5s-130.833 105.333 -206.5 136s-154.167 47 -235.5 49zM851.998 1445.99v10.001c-93.333 -0.666992 -184.333 -20.667 -273 -60s-166.667 -92.666 -234 -159.999
s-119.833 -144 -157.5 -230s-56.5 -176.333 -56.5 -271c0 -116 31.5 -228.833 94.5 -338.5s150.167 -198.834 261.5 -267.501s233.666 -105 366.999 -109v11c-129.333 11.333 -243.666 51.666 -342.999 120.999s-174.833 155.333 -226.5 258s-77.5 209 -77.5 319
c0 90.667 15 177.667 45 261s73.333 157.666 130 222.999s125.167 118.333 205.5 159s168.5 65.334 264.5 74.001z" />
    <glyph glyph-name="P" unicode="P" horiz-adv-x="1280" 
d="M35 1468l693.995 0.000976562c111.333 0 198.333 -10.167 261 -30.5s114.334 -50.833 155.001 -91.5c34 -34 60.167 -75.833 78.5 -125.5s27.5 -100.834 27.5 -153.501c0 -78.667 -20.5 -151.5 -61.5 -218.5s-98.667 -120.667 -173 -161s-159.166 -60.5 -254.499 -60.5
c-75.333 0 -143.666 6 -204.999 18v10c14 -1.33301 35.333 -2 64 -2c74.667 0 143.834 12.833 207.501 38.5s114.834 65.667 153.501 120s58 122.5 58 204.5c0 95.333 -29.667 185 -89 269s-147 126 -263 126c-56 0 -105.667 -5.33301 -149 -16
c-4.66699 -26.667 -9.66699 -93 -15 -199s-8 -180.333 -8 -223v-477c0 -20 1.5 -65.167 4.5 -135.5s6.16699 -131.166 9.5 -182.499s8.33301 -94.333 15 -129l250 -37l-11 -12h-749l4 14l242 35c7.33301 56 13 115.333 17 178s7.5 138.167 10.5 226.5
s4.5 154.166 4.5 197.499v240c0 84.667 -2.66699 179.5 -8 284.5s-12 186.833 -20 245.5l-248 35zM339.995 1430v-1389h70v1389h-70zM740.995 1444h-35.999v-10c75.333 -4 141.166 -25.5 197.499 -64.5s98.833 -89.5 127.5 -151.5s43 -128.667 43 -200
c0 -81.333 -17.333 -148.666 -52 -201.999s-76 -92 -124 -116s-95.667 -38.333 -143 -43v-12h18c37.333 0 84.833 10.167 142.5 30.5s110.5 59.5 158.5 117.5s72 138.333 72 241c0 63.333 -13 126.666 -39 189.999s-69.5 115.833 -130.5 157.5s-139.167 62.5 -234.5 62.5z
" />
    <glyph glyph-name="P" unicode="p" horiz-adv-x="1280" 
d="M35 1468l693.995 0.000976562c111.333 0 198.333 -10.167 261 -30.5s114.334 -50.833 155.001 -91.5c34 -34 60.167 -75.833 78.5 -125.5s27.5 -100.834 27.5 -153.501c0 -78.667 -20.5 -151.5 -61.5 -218.5s-98.667 -120.667 -173 -161s-159.166 -60.5 -254.499 -60.5
c-75.333 0 -143.666 6 -204.999 18v10c14 -1.33301 35.333 -2 64 -2c74.667 0 143.834 12.833 207.501 38.5s114.834 65.667 153.501 120s58 122.5 58 204.5c0 95.333 -29.667 185 -89 269s-147 126 -263 126c-56 0 -105.667 -5.33301 -149 -16
c-4.66699 -26.667 -9.66699 -93 -15 -199s-8 -180.333 -8 -223v-477c0 -20 1.5 -65.167 4.5 -135.5s6.16699 -131.166 9.5 -182.499s8.33301 -94.333 15 -129l250 -37l-11 -12h-749l4 14l242 35c7.33301 56 13 115.333 17 178s7.5 138.167 10.5 226.5
s4.5 154.166 4.5 197.499v240c0 84.667 -2.66699 179.5 -8 284.5s-12 186.833 -20 245.5l-248 35zM339.995 1430v-1389h70v1389h-70zM740.995 1444h-35.999v-10c75.333 -4 141.166 -25.5 197.499 -64.5s98.833 -89.5 127.5 -151.5s43 -128.667 43 -200
c0 -81.333 -17.333 -148.666 -52 -201.999s-76 -92 -124 -116s-95.667 -38.333 -143 -43v-12h18c37.333 0 84.833 10.167 142.5 30.5s110.5 59.5 158.5 117.5s72 138.333 72 241c0 63.333 -13 126.666 -39 189.999s-69.5 115.833 -130.5 157.5s-139.167 62.5 -234.5 62.5z
" />
    <glyph glyph-name="Q" unicode="Q" horiz-adv-x="1855" 
d="M1835 242l14.001 -6c-26 -74 -65.5 -133.167 -118.5 -177.5s-120.5 -66.5 -202.5 -66.5c-45.333 0 -89.166 5.5 -131.499 16.5s-94.166 27.833 -155.499 50.5c-56.667 -24.667 -115.334 -42 -176.001 -52s-116 -15 -166 -15c-136 0 -256.5 23 -361.5 69
s-191.333 106.833 -259 182.5s-117.334 156.167 -149.001 241.5s-47.5 167.333 -47.5 246c0 96 18.667 189.333 56 280s91.666 172 162.999 244s156.666 128.333 255.999 169s208 61 326 61c142 0 265.333 -23.833 370 -71.5s189.667 -109 255 -184s114 -156.333 146 -244
s48 -171.167 48 -250.5c0 -98.667 -22.167 -196.5 -66.5 -293.5s-105.5 -180.833 -183.5 -251.5c58.667 -26.667 117.334 -40 176.001 -40c46.667 0 88.667 8.5 126 25.5s64.333 39.167 81 66.5zM1307 248c24.667 26 49.3281 61.665 73.9951 106.998s45 98.833 61 160.5
s24 127.5 24 197.5c0 96 -7.66699 177.667 -23 245s-36.666 124.5 -63.999 171.5s-61.666 91.167 -102.999 132.5c-102.667 102 -231.667 153 -387 153c-103.333 0 -198.666 -27 -285.999 -81s-157.166 -132.5 -209.499 -235.5s-78.5 -222.833 -78.5 -359.5
c0 -100.667 12.5 -188.667 37.5 -264s55.167 -136.666 90.5 -183.999s70 -83.666 104 -108.999c54 62 106.833 107.5 158.5 136.5s113.5 43.5 185.5 43.5c100.667 0 239.334 -38 416.001 -114zM941.995 1456l0.00195312 -9.99805c70 -8.66699 137.667 -26.334 203 -53.001
s125.166 -66.334 179.499 -119.001s98.333 -124.5 132 -215.5s50.5 -200.833 50.5 -329.5c0 -180 -46.833 -337.833 -140.5 -473.5s-237.834 -209.834 -432.501 -222.501v-13c71.333 0 144.833 14.333 220.5 43s146.167 72.5 211.5 131.5s118.166 133.833 158.499 224.5
s60.5 195.334 60.5 314.001c0 119.333 -18.667 224.5 -56 315.5s-87.5 166 -150.5 225s-132.667 103.333 -209 133s-152.166 46.167 -227.499 49.5zM843.997 1446l-0.000976562 10.002c-91.333 -0.666992 -181.333 -20.834 -270 -60.501s-166.834 -93 -234.501 -160
s-121 -143.833 -160 -230.5s-58.5 -176.667 -58.5 -270c0 -88 17.833 -174.167 53.5 -258.5s86.667 -160.5 153 -228.5s144.166 -122.333 233.499 -163s186.333 -62.334 291 -65.001v13c-101.333 8.66699 -193.166 34 -275.499 76s-151.666 96 -207.999 162
s-98.666 138.333 -126.999 217s-42.5 159 -42.5 241c0 120.667 26.5 233.5 79.5 338.5s128.5 191.167 226.5 258.5s211 107.333 339 120zM1161 129.002l72.002 47l-129.5 57c-29.667 12.667 -55.834 23 -78.501 31s-48.5 14.833 -77.5 20.5s-58.167 8.5 -87.5 8.5
c-74 0 -140 -15.667 -198 -47l2 -10c35.333 12 72.666 18 111.999 18c45.333 0 95.5 -9.33301 150.5 -28s133.167 -51 234.5 -97zM558.998 170.002c105.333 -74 218.667 -111 340 -111c78 0 149 15.667 213 47c-168.667 79.333 -295 119 -379 119
c-71.333 0 -129.333 -18.333 -174 -55zM1368 125.002l-76 -43c78 -36.667 160 -55 246 -55c100 0 180.667 36.667 242 110h-13c-45.333 -38.667 -104 -59 -176 -61c-60.667 0 -135 16.333 -223 49z" />
    <glyph glyph-name="Q" unicode="q" horiz-adv-x="1855" 
d="M1835 242l14.001 -6c-26 -74 -65.5 -133.167 -118.5 -177.5s-120.5 -66.5 -202.5 -66.5c-45.333 0 -89.166 5.5 -131.499 16.5s-94.166 27.833 -155.499 50.5c-56.667 -24.667 -115.334 -42 -176.001 -52s-116 -15 -166 -15c-136 0 -256.5 23 -361.5 69
s-191.333 106.833 -259 182.5s-117.334 156.167 -149.001 241.5s-47.5 167.333 -47.5 246c0 96 18.667 189.333 56 280s91.666 172 162.999 244s156.666 128.333 255.999 169s208 61 326 61c142 0 265.333 -23.833 370 -71.5s189.667 -109 255 -184s114 -156.333 146 -244
s48 -171.167 48 -250.5c0 -98.667 -22.167 -196.5 -66.5 -293.5s-105.5 -180.833 -183.5 -251.5c58.667 -26.667 117.334 -40 176.001 -40c46.667 0 88.667 8.5 126 25.5s64.333 39.167 81 66.5zM1307 248c24.667 26 49.3281 61.665 73.9951 106.998s45 98.833 61 160.5
s24 127.5 24 197.5c0 96 -7.66699 177.667 -23 245s-36.666 124.5 -63.999 171.5s-61.666 91.167 -102.999 132.5c-102.667 102 -231.667 153 -387 153c-103.333 0 -198.666 -27 -285.999 -81s-157.166 -132.5 -209.499 -235.5s-78.5 -222.833 -78.5 -359.5
c0 -100.667 12.5 -188.667 37.5 -264s55.167 -136.666 90.5 -183.999s70 -83.666 104 -108.999c54 62 106.833 107.5 158.5 136.5s113.5 43.5 185.5 43.5c100.667 0 239.334 -38 416.001 -114zM941.995 1456l0.00195312 -9.99805c70 -8.66699 137.667 -26.334 203 -53.001
s125.166 -66.334 179.499 -119.001s98.333 -124.5 132 -215.5s50.5 -200.833 50.5 -329.5c0 -180 -46.833 -337.833 -140.5 -473.5s-237.834 -209.834 -432.501 -222.501v-13c71.333 0 144.833 14.333 220.5 43s146.167 72.5 211.5 131.5s118.166 133.833 158.499 224.5
s60.5 195.334 60.5 314.001c0 119.333 -18.667 224.5 -56 315.5s-87.5 166 -150.5 225s-132.667 103.333 -209 133s-152.166 46.167 -227.499 49.5zM843.997 1446l-0.000976562 10.002c-91.333 -0.666992 -181.333 -20.834 -270 -60.501s-166.834 -93 -234.501 -160
s-121 -143.833 -160 -230.5s-58.5 -176.667 -58.5 -270c0 -88 17.833 -174.167 53.5 -258.5s86.667 -160.5 153 -228.5s144.166 -122.333 233.499 -163s186.333 -62.334 291 -65.001v13c-101.333 8.66699 -193.166 34 -275.499 76s-151.666 96 -207.999 162
s-98.666 138.333 -126.999 217s-42.5 159 -42.5 241c0 120.667 26.5 233.5 79.5 338.5s128.5 191.167 226.5 258.5s211 107.333 339 120zM1161 129.002l72.002 47l-129.5 57c-29.667 12.667 -55.834 23 -78.501 31s-48.5 14.833 -77.5 20.5s-58.167 8.5 -87.5 8.5
c-74 0 -140 -15.667 -198 -47l2 -10c35.333 12 72.666 18 111.999 18c45.333 0 95.5 -9.33301 150.5 -28s133.167 -51 234.5 -97zM558.998 170.002c105.333 -74 218.667 -111 340 -111c78 0 149 15.667 213 47c-168.667 79.333 -295 119 -379 119
c-71.333 0 -129.333 -18.333 -174 -55zM1368 125.002l-76 -43c78 -36.667 160 -55 246 -55c100 0 180.667 36.667 242 110h-13c-45.333 -38.667 -104 -59 -176 -61c-60.667 0 -135 16.333 -223 49z" />
    <glyph glyph-name="R" unicode="R" horiz-adv-x="1579" 
d="M309 596v308.999c0 79.333 -2.66699 170.166 -8 272.499s-12 182.833 -20 241.5l-240 35v10h657c124.667 0 224.167 -24.833 298.5 -74.5s125.833 -106.334 154.5 -170.001s43 -118.5 43 -164.5c0 -63.333 -14.333 -119.833 -43 -169.5s-66.167 -89.167 -112.5 -118.5
s-93.5 -46.666 -141.5 -51.999v-4c45.333 -18 83 -42 113 -72c23.333 -23.333 50 -56.166 80 -98.499l119 -173.5l119 -172c30 -41.333 57.667 -75 83 -101c56 -56 111.333 -84 166 -84v-10h-174c-97.333 0 -174.666 29.333 -231.999 88
c-22.667 22.667 -45.167 49.5 -67.5 80.5l-106 152.5l-122 175c-33 46 -59.167 78.667 -78.5 98c-28.667 28.667 -54.834 47.834 -78.501 57.501s-58.5 14.5 -104.5 14.5c-42 0 -74.667 -2.33301 -98 -7c-4 -36 -6 -76 -6 -120v-185c0 -78 8.33301 -181 25 -309l249 -35v-10
h-743v10l235 35c10 67.333 18 162 24 284s9 211 9 267zM508 1053l0.000976562 -164c0 -58 2 -112 6 -162c26 -4 63.667 -6 113 -6c85.333 0 154.166 14.667 206.499 44s89.666 67.5 111.999 114.5s33.5 98.5 33.5 154.5c0 55.333 -10.833 106.333 -32.5 153
s-49.667 86.167 -84 118.5s-72.666 57.333 -114.999 75s-83.833 26.5 -124.5 26.5c-38.667 0 -69 -2.66699 -91 -8c-6 -38.667 -11.5 -94 -16.5 -166s-7.5 -132 -7.5 -180zM868.001 556.999l217.002 -314.999c52 -74 98.333 -126.833 139 -158.5s88.667 -47.834 144 -48.501
v10c-52.667 15.333 -120.334 83 -203.001 203l-174 250c-37.333 54.667 -72.333 96 -105 124s-72.667 46.667 -120 56l-4 -8c37.333 -24 72.666 -61.667 105.999 -113zM334.003 1425v-1386h72v1386h-72zM608.003 1442v-10.002c91.333 -2 167.833 -24.167 229.5 -66.5
s106.5 -94.166 134.5 -155.499s42 -122 42 -182c0 -133.333 -58 -229.666 -174 -288.999l6 -4c68 17.333 124.167 54.333 168.5 111s66.5 124.334 66.5 203.001c0 61.333 -12 116.833 -36 166.5s-56.5 91.167 -97.5 124.5s-86.833 58.666 -137.5 75.999s-101.667 26 -153 26
h-49z" />
    <glyph glyph-name="R" unicode="r" horiz-adv-x="1579" 
d="M309 596v308.999c0 79.333 -2.66699 170.166 -8 272.499s-12 182.833 -20 241.5l-240 35v10h657c124.667 0 224.167 -24.833 298.5 -74.5s125.833 -106.334 154.5 -170.001s43 -118.5 43 -164.5c0 -63.333 -14.333 -119.833 -43 -169.5s-66.167 -89.167 -112.5 -118.5
s-93.5 -46.666 -141.5 -51.999v-4c45.333 -18 83 -42 113 -72c23.333 -23.333 50 -56.166 80 -98.499l119 -173.5l119 -172c30 -41.333 57.667 -75 83 -101c56 -56 111.333 -84 166 -84v-10h-174c-97.333 0 -174.666 29.333 -231.999 88
c-22.667 22.667 -45.167 49.5 -67.5 80.5l-106 152.5l-122 175c-33 46 -59.167 78.667 -78.5 98c-28.667 28.667 -54.834 47.834 -78.501 57.501s-58.5 14.5 -104.5 14.5c-42 0 -74.667 -2.33301 -98 -7c-4 -36 -6 -76 -6 -120v-185c0 -78 8.33301 -181 25 -309l249 -35v-10
h-743v10l235 35c10 67.333 18 162 24 284s9 211 9 267zM508 1053l0.000976562 -164c0 -58 2 -112 6 -162c26 -4 63.667 -6 113 -6c85.333 0 154.166 14.667 206.499 44s89.666 67.5 111.999 114.5s33.5 98.5 33.5 154.5c0 55.333 -10.833 106.333 -32.5 153
s-49.667 86.167 -84 118.5s-72.666 57.333 -114.999 75s-83.833 26.5 -124.5 26.5c-38.667 0 -69 -2.66699 -91 -8c-6 -38.667 -11.5 -94 -16.5 -166s-7.5 -132 -7.5 -180zM868.001 556.999l217.002 -314.999c52 -74 98.333 -126.833 139 -158.5s88.667 -47.834 144 -48.501
v10c-52.667 15.333 -120.334 83 -203.001 203l-174 250c-37.333 54.667 -72.333 96 -105 124s-72.667 46.667 -120 56l-4 -8c37.333 -24 72.666 -61.667 105.999 -113zM334.003 1425v-1386h72v1386h-72zM608.003 1442v-10.002c91.333 -2 167.833 -24.167 229.5 -66.5
s106.5 -94.166 134.5 -155.499s42 -122 42 -182c0 -133.333 -58 -229.666 -174 -288.999l6 -4c68 17.333 124.167 54.333 168.5 111s66.5 124.334 66.5 203.001c0 61.333 -12 116.833 -36 166.5s-56.5 91.167 -97.5 124.5s-86.833 58.666 -137.5 75.999s-101.667 26 -153 26
h-49z" />
    <glyph glyph-name="S" unicode="S" horiz-adv-x="981" 
d="M571 1462l-32 0.00488281c-73.333 0 -141 -14.667 -203 -44s-111 -71 -147 -125s-54 -115 -54 -183c0 -84.667 37 -164 111 -238c32.667 -31.333 63.167 -57.666 91.5 -78.999s71.166 -51.5 128.499 -90.5l137.5 -96c34.333 -25 62.5 -48.833 84.5 -71.5
c60 -60 90 -127 90 -201c0 -50.667 -13.833 -99.5 -41.5 -146.5s-67.667 -85.333 -120 -115s-113.833 -44.834 -184.5 -45.501v-11c81.333 -2.66699 153.833 11.666 217.5 42.999s112.334 72.666 146.001 123.999s50.5 104.333 50.5 159c0 47.333 -7.66699 90.333 -23 129
s-43.333 78.334 -84 119.001c-23.333 23.333 -65.333 55.833 -126 97.5l-184 126c-62 42.333 -107.333 77.166 -136 104.499c-70 69.333 -105 145.666 -105 228.999c0 73.333 31.833 141.666 95.5 204.999s159.5 96.666 287.5 99.999v10zM82 350.005l76.0029 -246.002
c38 -17.333 82.5 -31.333 133.5 -42s95.167 -15.667 132.5 -15c50 0 95.833 8.66699 137.5 26s75.667 39.333 102 66s46.5 56.834 60.5 90.501s21 66.5 21 98.5c0 66 -22.333 121.667 -67 167s-119.5 103.333 -224.5 174s-181.167 129.667 -228.5 177
c-40.667 42 -71 84.167 -91 126.5s-30 89.5 -30 141.5c0 57.333 15.667 114.333 47 171s79.666 103.834 144.999 141.501s145.666 56.5 240.999 56.5c43.333 0 89.333 -2.16699 138 -6.5s82.334 -6.5 101.001 -6.5c16 0.666992 31 1.16699 45 1.5s25.167 1 33.5 2
s17.166 2.16699 26.499 3.5l6 -342h-13l-63 231c-92.667 40.667 -173.334 61 -242.001 61c-57.333 0 -108.833 -10.833 -154.5 -32.5s-81.167 -51.334 -106.5 -89.001s-38 -80.167 -38 -127.5c0 -49.333 17 -94.5 51 -135.5s80.5 -81.167 139.5 -120.5l190 -125
c67.667 -44 121.834 -86.333 162.501 -127c79.333 -79.333 119 -171 119 -275c0 -58.667 -15.333 -119.167 -46 -181.5s-82.334 -115.166 -155.001 -158.499s-166.667 -65 -282 -65c-40.667 0 -90.167 2.33301 -148.5 7s-101.166 7 -128.499 7
c-12.667 0 -22.5 -0.333008 -29.5 -1l-32.5 -3c-14.667 -1.33301 -23.334 -2 -26.001 -2l-16 352h14z" />
    <glyph glyph-name="S" unicode="s" horiz-adv-x="981" 
d="M571 1462l-32 0.00488281c-73.333 0 -141 -14.667 -203 -44s-111 -71 -147 -125s-54 -115 -54 -183c0 -84.667 37 -164 111 -238c32.667 -31.333 63.167 -57.666 91.5 -78.999s71.166 -51.5 128.499 -90.5l137.5 -96c34.333 -25 62.5 -48.833 84.5 -71.5
c60 -60 90 -127 90 -201c0 -50.667 -13.833 -99.5 -41.5 -146.5s-67.667 -85.333 -120 -115s-113.833 -44.834 -184.5 -45.501v-11c81.333 -2.66699 153.833 11.666 217.5 42.999s112.334 72.666 146.001 123.999s50.5 104.333 50.5 159c0 47.333 -7.66699 90.333 -23 129
s-43.333 78.334 -84 119.001c-23.333 23.333 -65.333 55.833 -126 97.5l-184 126c-62 42.333 -107.333 77.166 -136 104.499c-70 69.333 -105 145.666 -105 228.999c0 73.333 31.833 141.666 95.5 204.999s159.5 96.666 287.5 99.999v10zM82 350.005l76.0029 -246.002
c38 -17.333 82.5 -31.333 133.5 -42s95.167 -15.667 132.5 -15c50 0 95.833 8.66699 137.5 26s75.667 39.333 102 66s46.5 56.834 60.5 90.501s21 66.5 21 98.5c0 66 -22.333 121.667 -67 167s-119.5 103.333 -224.5 174s-181.167 129.667 -228.5 177
c-40.667 42 -71 84.167 -91 126.5s-30 89.5 -30 141.5c0 57.333 15.667 114.333 47 171s79.666 103.834 144.999 141.501s145.666 56.5 240.999 56.5c43.333 0 89.333 -2.16699 138 -6.5s82.334 -6.5 101.001 -6.5c16 0.666992 31 1.16699 45 1.5s25.167 1 33.5 2
s17.166 2.16699 26.499 3.5l6 -342h-13l-63 231c-92.667 40.667 -173.334 61 -242.001 61c-57.333 0 -108.833 -10.833 -154.5 -32.5s-81.167 -51.334 -106.5 -89.001s-38 -80.167 -38 -127.5c0 -49.333 17 -94.5 51 -135.5s80.5 -81.167 139.5 -120.5l190 -125
c67.667 -44 121.834 -86.333 162.501 -127c79.333 -79.333 119 -171 119 -275c0 -58.667 -15.333 -119.167 -46 -181.5s-82.334 -115.166 -155.001 -158.499s-166.667 -65 -282 -65c-40.667 0 -90.167 2.33301 -148.5 7s-101.166 7 -128.499 7
c-12.667 0 -22.5 -0.333008 -29.5 -1l-32.5 -3c-14.667 -1.33301 -23.334 -2 -26.001 -2l-16 352h14z" />
    <glyph glyph-name="T" unicode="T" horiz-adv-x="1473" 
d="M676 1427v-1388h67v1388h-67zM244 1464h868.002c52.667 0 101 1.5 145 4.5s100.667 7.83301 170 14.5l23 -324h-12l-74 236c-60.667 10.667 -124 16 -190 16c-56.667 0 -108.334 -3 -155.001 -9s-97 -16 -151 -30c-5.33301 -62 -9.33301 -121.833 -12 -179.5
s-4.66699 -111 -6 -160s-2 -82.5 -2 -100.5v-332c0 -87.333 3 -185.166 9 -293.499s13.333 -194.833 22 -259.5l247 -37v-10h-755v10l243 37c20.667 147.333 31 325.666 31 534.999v362c0 74.667 -1.66699 148.334 -5 221.001s-9 141.667 -17 207
c-38.667 10.667 -83.667 19.167 -135 25.5s-100 10.166 -146 11.499c-72.667 0 -144.334 -6 -215.001 -18l-72 -238h-14l22 328c20 -1.33301 49 -4.5 87 -9.5s69.333 -7.5 94 -7.5z" />
    <glyph glyph-name="T" unicode="t" horiz-adv-x="1473" 
d="M676 1427v-1388h67v1388h-67zM244 1464h868.002c52.667 0 101 1.5 145 4.5s100.667 7.83301 170 14.5l23 -324h-12l-74 236c-60.667 10.667 -124 16 -190 16c-56.667 0 -108.334 -3 -155.001 -9s-97 -16 -151 -30c-5.33301 -62 -9.33301 -121.833 -12 -179.5
s-4.66699 -111 -6 -160s-2 -82.5 -2 -100.5v-332c0 -87.333 3 -185.166 9 -293.499s13.333 -194.833 22 -259.5l247 -37v-10h-755v10l243 37c20.667 147.333 31 325.666 31 534.999v362c0 74.667 -1.66699 148.334 -5 221.001s-9 141.667 -17 207
c-38.667 10.667 -83.667 19.167 -135 25.5s-100 10.166 -146 11.499c-72.667 0 -144.334 -6 -215.001 -18l-72 -238h-14l22 328c20 -1.33301 49 -4.5 87 -9.5s69.333 -7.5 94 -7.5z" />
    <glyph glyph-name="U" unicode="U" horiz-adv-x="1772" 
d="M971 25l-0.000976562 -13.0029c78.667 4.66699 146.667 17.5 204 38.5s104.833 50.333 142.5 88s65.834 84.834 84.501 141.501s28 122.334 28 197.001v950h-70v-948c0 -133.333 -30.667 -238.666 -92 -315.999s-160.333 -123.333 -297 -138zM839.999 11.9971v13.001
c-94 5.33301 -176.167 24.166 -246.5 56.499s-125.333 80.333 -165 144s-59.5 141.5 -59.5 233.5v968h-70v-1003c0 -123.333 43.167 -220.833 129.5 -292.5s223.5 -111.5 411.5 -119.5zM269.999 423.998v557.002c0 124 -8 270.667 -24 440l-209 33v10h729v-10l-264 -33
c-6.66699 -46.667 -12 -102.667 -16 -168s-7.5 -135 -10.5 -209s-4.5 -133.333 -4.5 -178v-411c0 -98 19.833 -176.833 59.5 -236.5s92 -101.834 157 -126.501s136.833 -37 215.5 -37c134 0 239.167 34 315.5 102s114.5 178 114.5 330v428c0 76 -2.66699 165.833 -8 269.5
s-12 182.5 -20 236.5l-263 33v10h725v-10l-204 -33c-9.33301 -43.333 -16.5 -115.5 -21.5 -216.5s-7.5 -185.833 -7.5 -254.5v-485c0 -75.333 -9 -139.333 -27 -192s-46 -98 -84 -136c-26 -26 -53.333 -48 -82 -66s-65 -33.667 -109 -47s-92 -23 -144 -29
s-116.333 -9 -193 -9c-125.333 0 -234.333 14 -327 42s-165.5 74.667 -218.5 140s-79.5 150.666 -79.5 255.999z" />
    <glyph glyph-name="U" unicode="u" horiz-adv-x="1772" 
d="M971 25l-0.000976562 -13.0029c78.667 4.66699 146.667 17.5 204 38.5s104.833 50.333 142.5 88s65.834 84.834 84.501 141.501s28 122.334 28 197.001v950h-70v-948c0 -133.333 -30.667 -238.666 -92 -315.999s-160.333 -123.333 -297 -138zM839.999 11.9971v13.001
c-94 5.33301 -176.167 24.166 -246.5 56.499s-125.333 80.333 -165 144s-59.5 141.5 -59.5 233.5v968h-70v-1003c0 -123.333 43.167 -220.833 129.5 -292.5s223.5 -111.5 411.5 -119.5zM269.999 423.998v557.002c0 124 -8 270.667 -24 440l-209 33v10h729v-10l-264 -33
c-6.66699 -46.667 -12 -102.667 -16 -168s-7.5 -135 -10.5 -209s-4.5 -133.333 -4.5 -178v-411c0 -98 19.833 -176.833 59.5 -236.5s92 -101.834 157 -126.501s136.833 -37 215.5 -37c134 0 239.167 34 315.5 102s114.5 178 114.5 330v428c0 76 -2.66699 165.833 -8 269.5
s-12 182.5 -20 236.5l-263 33v10h725v-10l-204 -33c-9.33301 -43.333 -16.5 -115.5 -21.5 -216.5s-7.5 -185.833 -7.5 -254.5v-485c0 -75.333 -9 -139.333 -27 -192s-46 -98 -84 -136c-26 -26 -53.333 -48 -82 -66s-65 -33.667 -109 -47s-92 -23 -144 -29
s-116.333 -9 -193 -9c-125.333 0 -234.333 14 -327 42s-165.5 74.667 -218.5 140s-79.5 150.666 -79.5 255.999z" />
    <glyph glyph-name="V" unicode="V" 
d="M254 1425l573 -1339l35 82l-536 1257h-72zM723 1454l-262.002 -37.001c37.333 -132 96 -291 176 -477l139 -324c30.667 -74 76.334 -168.667 137.001 -284c24 42 52.5 98 85.5 168s61.833 135.333 86.5 196l156 371c60.667 148.667 103 265.334 127 350.001l-303 37v10
h594v-8l-182 -39c-39.333 -60.667 -96.666 -180.667 -171.999 -360l-340 -807c-48 -112.667 -84.333 -209.667 -109 -291h-14c-38.667 110 -79.667 214.333 -123 313l-318 742c-59.333 139.333 -126 274.333 -200 405l-176 35v10h698v-10z" />
    <glyph glyph-name="V" unicode="v" 
d="M254 1425l573 -1339l35 82l-536 1257h-72zM723 1454l-262.002 -37.001c37.333 -132 96 -291 176 -477l139 -324c30.667 -74 76.334 -168.667 137.001 -284c24 42 52.5 98 85.5 168s61.833 135.333 86.5 196l156 371c60.667 148.667 103 265.334 127 350.001l-303 37v10
h594v-8l-182 -39c-39.333 -60.667 -96.666 -180.667 -171.999 -360l-340 -807c-48 -112.667 -84.333 -209.667 -109 -291h-14c-38.667 110 -79.667 214.333 -123 313l-318 742c-59.333 139.333 -126 274.333 -200 405l-176 35v10h698v-10z" />
    <glyph glyph-name="W" unicode="W" horiz-adv-x="2261" 
d="M262 1425l373 -1308h4l33 96l-344 1212h-66zM1163 1264l-30 -82l485 -1073l29 90zM764 1454l-284.999 -36.998c0 -48 8.16699 -117 24.5 -207s34.833 -171 55.5 -243l96 -330c21.333 -76 48 -155.333 80 -238c61.333 130 110 240 146 330l172 428
c60.667 156.667 98.667 264 114 322h19c8 -18.667 24 -58.667 48 -120l66 -163l242 -530c37.333 -86 84.333 -183 141 -291c21.333 53.333 54.333 153 99 299l114 403c16 53.333 30 110.666 42 171.999s20.667 118.666 26 171.999l-291 33v10h588v-10l-178 -35
c-22 -51.333 -43.333 -106.666 -64 -165.999s-41 -124.666 -61 -195.999l-178 -615l-79.5 -285.5c-23.667 -87.667 -39.5 -152.834 -47.5 -195.501h-17c-6.66699 19.333 -16.334 46 -29.001 80l-30 80c-7.33301 19.333 -17 43.166 -29 71.499s-24.333 55.5 -37 81.5
l-280 625c-57.333 118 -94.333 192.333 -111 223c-14 -21.333 -34.167 -63 -60.5 -125s-41.5 -99.333 -45.5 -112l-234 -578c-16 -39.333 -30.167 -75.833 -42.5 -109.5l-39 -107l-45.5 -129.5h-16c-12 67.333 -42.667 190.333 -92 369l-189 665
c-44 154.667 -93 296 -147 424l-174 35v10h729v-10z" />
    <glyph glyph-name="W" unicode="w" horiz-adv-x="2261" 
d="M262 1425l373 -1308h4l33 96l-344 1212h-66zM1163 1264l-30 -82l485 -1073l29 90zM764 1454l-284.999 -36.998c0 -48 8.16699 -117 24.5 -207s34.833 -171 55.5 -243l96 -330c21.333 -76 48 -155.333 80 -238c61.333 130 110 240 146 330l172 428
c60.667 156.667 98.667 264 114 322h19c8 -18.667 24 -58.667 48 -120l66 -163l242 -530c37.333 -86 84.333 -183 141 -291c21.333 53.333 54.333 153 99 299l114 403c16 53.333 30 110.666 42 171.999s20.667 118.666 26 171.999l-291 33v10h588v-10l-178 -35
c-22 -51.333 -43.333 -106.666 -64 -165.999s-41 -124.666 -61 -195.999l-178 -615l-79.5 -285.5c-23.667 -87.667 -39.5 -152.834 -47.5 -195.501h-17c-6.66699 19.333 -16.334 46 -29.001 80l-30 80c-7.33301 19.333 -17 43.166 -29 71.499s-24.333 55.5 -37 81.5
l-280 625c-57.333 118 -94.333 192.333 -111 223c-14 -21.333 -34.167 -63 -60.5 -125s-41.5 -99.333 -45.5 -112l-234 -578c-16 -39.333 -30.167 -75.833 -42.5 -109.5l-39 -107l-45.5 -129.5h-16c-12 67.333 -42.667 190.333 -92 369l-189 665
c-44 154.667 -93 296 -147 424l-174 35v10h729v-10z" />
    <glyph glyph-name="X" unicode="X" horiz-adv-x="1855" 
d="M299 1430l1133 -1391h81l-1130 1391h-84zM23 1464l837.001 0.00195312v-10l-319 -33l100.5 -150c31 -44 65 -89.167 102 -135.5l121.5 -146.5l136 -158c52 53.333 112.167 118.833 180.5 196.5s129.166 150.5 182.499 218.5s95 126.333 125 175l-305 33v10h669v-10
l-235 -31c-42 -38.667 -89.833 -87.834 -143.5 -147.501l-170.5 -198l-156 -194c-44 -57 -73.667 -98.167 -89 -123.5l157 -202.5l175 -216l149 -172c47.333 -52.333 89 -94.5 125 -126.5l186 -33v-10h-813v10l318 35c-54.667 92.667 -126.5 194.667 -215.5 306
s-175.5 212.666 -259.5 303.999c-68 -70 -134.333 -142.667 -199 -218s-123.667 -147.5 -177 -216.5s-96 -127.5 -128 -175.5l305 -35v-10h-664v10l230 35c95.333 93.333 198.5 206.833 309.5 340.5s200.167 247.5 267.5 341.5l-198.5 256.5l-206.5 250.5
c-70 82 -128 144.333 -174 187l-223 33v10z" />
    <glyph glyph-name="X" unicode="x" horiz-adv-x="1855" 
d="M299 1430l1133 -1391h81l-1130 1391h-84zM23 1464l837.001 0.00195312v-10l-319 -33l100.5 -150c31 -44 65 -89.167 102 -135.5l121.5 -146.5l136 -158c52 53.333 112.167 118.833 180.5 196.5s129.166 150.5 182.499 218.5s95 126.333 125 175l-305 33v10h669v-10
l-235 -31c-42 -38.667 -89.833 -87.834 -143.5 -147.501l-170.5 -198l-156 -194c-44 -57 -73.667 -98.167 -89 -123.5l157 -202.5l175 -216l149 -172c47.333 -52.333 89 -94.5 125 -126.5l186 -33v-10h-813v10l318 35c-54.667 92.667 -126.5 194.667 -215.5 306
s-175.5 212.666 -259.5 303.999c-68 -70 -134.333 -142.667 -199 -218s-123.667 -147.5 -177 -216.5s-96 -127.5 -128 -175.5l305 -35v-10h-664v10l230 35c95.333 93.333 198.5 206.833 309.5 340.5s200.167 247.5 267.5 341.5l-198.5 256.5l-206.5 250.5
c-70 82 -128 144.333 -174 187l-223 33v10z" />
    <glyph glyph-name="Y" unicode="Y" 
d="M766 39h68v625l-476 763h-73l481 -770v-618zM227 1419l-202 35.002v10h778v-10l-299 -35c44.667 -98.667 107.667 -213.667 189 -345s154 -238 218 -320c70 77.333 152.667 185.666 248 324.999s166.333 252.666 213 339.999l-293 35v10h582v-12l-172 -33
c-39.333 -46.667 -77.333 -94.667 -114 -144l-142 -198l-137 -198.5l-150 -227.5c-5.33301 -82 -8 -173.333 -8 -274c0 -137.333 10.333 -248 31 -332l248 -35v-10h-758v10l243 35c10.667 42 19.167 99.333 25.5 172s9.5 141 9.5 205c0 48 -2 123 -6 225
c-38.667 70.667 -87.834 154.5 -147.501 251.5s-121.167 192 -184.5 285s-120.666 171.5 -171.999 235.5z" />
    <glyph glyph-name="Y" unicode="y" 
d="M766 39h68v625l-476 763h-73l481 -770v-618zM227 1419l-202 35.002v10h778v-10l-299 -35c44.667 -98.667 107.667 -213.667 189 -345s154 -238 218 -320c70 77.333 152.667 185.666 248 324.999s166.333 252.666 213 339.999l-293 35v10h582v-12l-172 -33
c-39.333 -46.667 -77.333 -94.667 -114 -144l-142 -198l-137 -198.5l-150 -227.5c-5.33301 -82 -8 -173.333 -8 -274c0 -137.333 10.333 -248 31 -332l248 -35v-10h-758v10l243 35c10.667 42 19.167 99.333 25.5 172s9.5 141 9.5 205c0 48 -2 123 -6 225
c-38.667 70.667 -87.834 154.5 -147.501 251.5s-121.167 192 -184.5 285s-120.666 171.5 -171.999 235.5z" />
    <glyph glyph-name="Z" unicode="Z" horiz-adv-x="1366" 
d="M1122 1423l-1026 -1382h80l1024 1382h-78zM111 1135l45.002 346.001c59.333 -6 96.666 -9.66699 111.999 -11c37.333 -4 71.666 -6 102.999 -6h950v-41l-649 -874l-151 -216c-58.667 -86 -104.667 -160 -138 -222c33.333 -10 92.666 -20.5 177.999 -31.5
s154.333 -16.5 207 -16.5h143c22.667 0 65 2.66699 127 8s112.667 11.666 152 18.999l106 256h15l-51 -346h-1199v39l674 911c104 140 193.667 274.667 269 404c-25.333 10 -73.666 21 -144.999 33s-142 18 -212 18h-155c-36 0 -86 -3 -150 -9s-107.667 -12 -131 -18
l-86 -243h-14z" />
    <glyph glyph-name="Z" unicode="z" horiz-adv-x="1366" 
d="M1122 1423l-1026 -1382h80l1024 1382h-78zM111 1135l45.002 346.001c59.333 -6 96.666 -9.66699 111.999 -11c37.333 -4 71.666 -6 102.999 -6h950v-41l-649 -874l-151 -216c-58.667 -86 -104.667 -160 -138 -222c33.333 -10 92.666 -20.5 177.999 -31.5
s154.333 -16.5 207 -16.5h143c22.667 0 65 2.66699 127 8s112.667 11.666 152 18.999l106 256h15l-51 -346h-1199v39l674 911c104 140 193.667 274.667 269 404c-25.333 10 -73.666 21 -144.999 33s-142 18 -212 18h-155c-36 0 -86 -3 -150 -9s-107.667 -12 -131 -18
l-86 -243h-14z" />
    <glyph glyph-name="bracketleft" unicode="[" horiz-adv-x="682" 
d="M131 1430v-1389h70v1389h-70zM102 174v1061c0 90 -2.66699 168.333 -8 235h584v-14l-344 -35c-20.667 -132 -31 -330 -31 -594v-233c0 -71.333 2.66699 -163.666 8 -276.999s13 -202.666 23 -267.999l346 -35v-12h-584c4 39.333 6 96.666 6 171.999z" />
    <glyph glyph-name="backslash" unicode="\" horiz-adv-x="788" 
d="M222 1468l442 -1310c16.667 -46 34 -79.667 52 -101s40.333 -35 67 -41v-12h-192l-443 1321c-28 84.667 -65.333 129 -112 133v10h186z" />
    <glyph glyph-name="bracketright" unicode="]" horiz-adv-x="788" 
d="M535 1430v-1391h69v1391h-69zM709 1231l0.000976562 -1069c0 -36 2.66699 -89.333 8 -160h-586v14l340 31c7.33301 36 13.166 81.5 17.499 136.5s8 114.5 11 178.5s5.16699 118.5 6.5 163.5s2 89.5 2 133.5v224c0 94.667 -2.16699 187.667 -6.5 279
s-11.833 178.333 -22.5 261l-346 35v12h584c-5.33301 -59.333 -8 -139 -8 -239z" />
    <glyph glyph-name="asciicircum" unicode="^" horiz-adv-x="961" 
d="M498 1384l426 -716h-93l-350 585l-350 -585h-94l432 716h29z" />
    <glyph glyph-name="underscore" unicode="_" horiz-adv-x="1024" 
d="M-12 -256v105h1048v-105h-1048z" />
    <glyph glyph-name="grave" unicode="`" horiz-adv-x="682" 
d="M111 1737h200l254 -181h-22z" />
    <glyph glyph-name="braceleft" unicode="{" horiz-adv-x="981" 
d="M840 -158l-0.00292969 -35.001c-109.333 15.333 -199.166 59.5 -269.499 132.5s-105.5 158.167 -105.5 255.5c0 50.667 6.66699 102.334 20 155.001c16.667 73.333 25 124.666 25 153.999c0 36.667 -9.5 69.834 -28.5 99.501s-45.667 54.834 -80 75.501
s-73.833 34 -118.5 40v41c67.333 8 122 31.667 164 71s63 86.666 63 141.999c0 32 -8.33301 83 -25 153c-13.333 53.333 -20 105.333 -20 156c0 65.333 16 125.666 48 180.999s76.833 101.333 134.5 138s121.834 60 192.501 70v-35c-73.333 -18 -129.333 -47.167 -168 -87.5
s-58 -90.166 -58 -149.499c0 -17.333 2.5 -41.5 7.5 -72.5s10.833 -59.5 17.5 -85.5c13.333 -65.333 20 -117.333 20 -156c0 -50 -11.667 -96.833 -35 -140.5s-57.166 -83 -101.499 -118s-96.833 -63.5 -157.5 -85.5c58 -21.333 109.5 -50.166 154.5 -86.499
s79.5 -77.333 103.5 -123s36 -92.5 36 -140.5c0 -38 -6.66699 -89.667 -20 -155c-16.667 -66.667 -25 -119.334 -25 -158.001c0 -59.333 19.333 -109 58 -149s94.667 -69 168 -87z" />
    <glyph glyph-name="bar" unicode="|" horiz-adv-x="410" 
d="M133 1378h143v-1740h-143v1740z" />
    <glyph glyph-name="braceright" unicode="}" horiz-adv-x="981" 
d="M178 1626v35.0039c72.667 -10 137.167 -33.167 193.5 -69.5s100.666 -82 132.999 -137s48.5 -115.167 48.5 -180.5c0 -42.667 -7 -95.334 -21 -158.001c-16 -62.667 -24 -113 -24 -151c0 -54.667 21.167 -102 63.5 -142s96.833 -64.333 163.5 -73v-41
c-66.667 -8.66699 -121.167 -33 -163.5 -73s-63.5 -87.333 -63.5 -142c0 -37.333 8 -88 24 -152c14 -59.333 21 -111.333 21 -156c0 -64.667 -16.167 -124.834 -48.5 -180.501s-77 -101.834 -134 -138.501s-121.167 -60 -192.5 -70v35c150 37.333 225 116.666 225 237.999
c0 32.667 -8 85 -24 157c-14 58 -21 110 -21 156c0 74 26.167 141.833 78.5 203.5s124.5 108.5 216.5 140.5c-90 34 -161.667 82.667 -215 146s-80 130.666 -80 201.999c0 46.667 7 99.334 21 158.001c16 70 24 122.667 24 158c0 59.333 -19.167 108.833 -57.5 148.5
s-94.166 68.5 -167.499 86.5z" />
    <glyph glyph-name="asciitilde" unicode="~" horiz-adv-x="1366" 
d="M1171 793l42.9971 -0.00195312c-1.33301 -52 -12.166 -98.833 -32.499 -140.5s-48.666 -74.167 -84.999 -97.5s-76.166 -35 -119.499 -35c-21.333 0 -41.333 1.5 -60 4.5s-39.334 8.16699 -62.001 15.5s-52.334 18.333 -89.001 33l-166 68
c-62 25.333 -108.5 42.333 -139.5 51s-58.167 13 -81.5 13c-98.667 0 -160 -61 -184 -183h-43c3.33301 88 27 155.667 71 203c20.667 21.333 45.334 38.333 74.001 51s56 19 82 19c48 0 121 -18.667 219 -56c56.667 -21.333 111.334 -43.666 164.001 -66.999
c40.667 -17.333 74 -30.666 100 -39.999s48.667 -16 68 -20s37 -6 53 -6c55.333 0 99 16.333 131 49s51 78.667 57 138z" />
    <glyph glyph-name="nonbreakingspace" unicode="&#xa0;" horiz-adv-x="737" 
 />
    <glyph glyph-name="exclamdown" unicode="&#xa1;" horiz-adv-x="492" 
d="M256 29v869.999h-10l-76 -723c-6 -55.333 -1.5 -93.666 13.5 -114.999s39.167 -32 72.5 -32zM244 1147l19.999 0.000976562c0 -64.667 6.83301 -150.5 20.5 -257.5s33.834 -255.833 60.501 -446.5s40 -300 40 -328c0 -37.333 -12.667 -67.833 -38 -91.5
s-54.333 -35.5 -87 -35.5s-62 10.667 -88 32s-39 53 -39 95c0 14.667 11.333 113.167 34 295.5s41 336.666 55 462.999s21.333 217.5 22 273.5zM251.999 1268v179.999c-23.333 -1.33301 -43.833 -10.166 -61.5 -26.499s-26.5 -38.833 -26.5 -67.5
c0 -20 8.66699 -39.167 26 -57.5s38 -27.833 62 -28.5zM253.999 1481c33.333 0 61.834 -12.1689 85.501 -36.502s35.5 -53.166 35.5 -86.499c0 -34 -11.667 -62.667 -35 -86s-52 -35 -86 -35c-34.667 0 -63.834 11.833 -87.501 35.5s-35.5 52.167 -35.5 85.5
c0 32.667 12 61.334 36 86.001s53 37 87 37z" />
    <glyph glyph-name="cent" unicode="&#xa2;" horiz-adv-x="874" 
d="M809 1124l-126.999 -354.003c24.667 -14.667 45 -30.5 61 -47.5s28.667 -36.333 38 -58s14 -42.5 14 -62.5c0 -28.667 -9.33301 -53.167 -28 -73.5s-42.334 -30.5 -71.001 -30.5c-43.333 0 -74 18.333 -92 55l-184 -516c26 -9.33301 53.333 -14 82 -14
c45.333 0 88.333 11.833 129 35.5s72.667 54.834 96 93.501c18 27.333 35.667 67.333 53 120h41c-12 -60.667 -33 -113.667 -63 -159s-67.667 -79.666 -113 -102.999s-96.333 -35 -153 -35c-28.667 0 -59 3.66699 -91 11l-127 -359h-45l133 371
c-79.333 29.333 -144.5 80.5 -195.5 153.5s-76.5 152.167 -76.5 237.5c0 56.667 10.5 110.5 31.5 161.5s51 96.333 90 136s84.167 70.334 135.5 92.001s105 32.5 161 32.5c48 0 93.667 -8.33301 137 -25l121 338h43zM383.001 56.9971l243.999 675.999
c-29.333 23.333 -67.666 35 -114.999 35c-34.667 0 -66 -5.33301 -94 -16c-30 -10 -52.833 -26.333 -68.5 -49s-26.667 -57.167 -33 -103.5s-9.5 -115.166 -9.5 -206.499c0 -110.667 5.33301 -188.167 16 -232.5s30.667 -78.833 60 -103.5z" />
    <glyph glyph-name="sterling" unicode="&#xa3;" horiz-adv-x="981" 
d="M209 43l75.998 919.999c4.66699 70 12.334 129.833 23.001 179.5s24 91.834 40 126.501s34.333 63 55 85c61.333 60.667 157 93.334 287 98.001v8h-41c-76 0 -139.833 -10.5 -191.5 -31.5s-94 -54.167 -127 -99.5s-59.167 -104.833 -78.5 -178.5
s-33.666 -164.834 -42.999 -273.501l-68 -834h68zM69.998 816.999l104.004 0.000976562l16 137c12 102 28.167 185 48.5 249s48.5 116.667 84.5 158s81.833 72 137.5 92s125.5 30 209.5 30c36.667 0 71.667 -1.5 105 -4.5s54.333 -4.16699 63 -3.5c28.667 0 56 2 82 6h16
l-23 -326h-12l-43 211c-73.333 31.333 -136 47 -188 47c-68.667 0 -127.334 -23.333 -176.001 -70c-27.333 -27.333 -48.833 -65.5 -64.5 -114.5s-27.834 -122.5 -36.501 -220.5l-14 -191h262l-8 -78h-260c-8 -78.667 -15.167 -173 -21.5 -283s-9.5 -187.667 -9.5 -233v-117
c114.667 -28.667 222 -43 322 -43c72 0 136.667 7.66699 194 23l84 225h14l-20 -309h-856c7.33301 26 14.166 56.167 20.499 90.5s12.666 72.666 18.999 114.999s10.833 80.5 13.5 114.5l37 417h-109z" />
    <glyph glyph-name="currency" unicode="&#xa4;" horiz-adv-x="1366" 
d="M213 1061l62.9961 63.002l125 -125c54.667 41.333 100.834 68.5 138.501 81.5s89.834 19.5 156.501 19.5c38.667 0 71.334 -2.83301 98.001 -8.5s53.5 -15.834 80.5 -30.501s57.167 -35.334 90.5 -62.001l125 125l61 -63l-125 -123c41.333 -52 68.333 -96.833 81 -134.5
s19 -89.834 19 -156.501c0 -63.333 -6.5 -112.666 -19.5 -147.999s-39.833 -76.666 -80.5 -123.999l125 -125l-61 -62l-125 125c-51.333 -40.667 -96.166 -67.5 -134.499 -80.5s-87.833 -19.5 -148.5 -19.5c-62 0 -111.5 6.33301 -148.5 19s-81.167 39.667 -132.5 81
l-125 -125l-63 62l127 125c-40.667 60 -67.5 108.833 -80.5 146.5s-19.5 85.167 -19.5 142.5c0 56.667 6.66699 103.167 20 139.5s40 81.166 80 134.499zM329.996 655.002c0 -64.667 15.498 -124 46.498 -178s73.5 -96.833 127.5 -128.5s112.667 -47.5 176 -47.5
c66 0 126.333 15.833 181 47.5s97.834 74.834 129.501 129.501s47.5 113.667 47.5 177c0 65.333 -15.667 125 -47 179s-74 96.833 -128 128.5s-113 47.5 -177 47.5c-65.333 0 -125.166 -15.833 -179.499 -47.5s-97.333 -74.834 -129 -129.501s-47.5 -114 -47.5 -178z" />
    <glyph glyph-name="yen" unicode="&#xa5;" 
d="M1159 1079h-471.001c74 -119.333 148.333 -227.666 223 -324.999c62.667 71.333 145.334 179.666 248.001 324.999zM724.999 649l-700.001 -0.00195312v47h680c-30 52.667 -66.833 114 -110.5 184l-125.5 199h-444v47l413 -2
c-21.333 33.333 -52.166 78.833 -92.499 136.5s-79.833 110.5 -118.5 158.5l-202 35v10h778v-10l-299 -35c26 -55.333 50.833 -105.166 74.5 -149.499s51.5 -92.166 83.5 -143.499h530c85.333 130 145.333 227.667 180 293l-293 35v10h582v-12l-172 -33
c-46.667 -56 -121 -153.667 -223 -293h395v-47h-426l-260 -383h686v-45h-713c-3.33301 -28 -5.83301 -67.667 -7.5 -119s-2.5 -103 -2.5 -155c0 -137.333 10.333 -248 31 -332l248 -35v-10h-758v10l243 35c10.667 42 19.167 99.333 25.5 172s9.5 141 9.5 205
c0 87.333 -4 163 -12 227zM765.998 38.998h68v625l-476 763h-73l481 -770v-618z" />
    <glyph glyph-name="brokenbar" unicode="&#xa6;" horiz-adv-x="410" 
d="M276 1378v-781h-143v781h143zM276 406v-778h-143v778h143z" />
    <glyph glyph-name="section" unicode="&#xa7;" horiz-adv-x="897" 
d="M467 12l-89.9971 104.998c-73.333 81.333 -129.333 148.333 -168 201s-66.167 99.667 -82.5 141s-24.5 84.333 -24.5 129c0 46.667 11 93.667 33 141s63 100 123 158c-32.667 45.333 -49 93.666 -49 144.999c0 56 14.167 110.5 42.5 163.5s67.666 96.333 117.999 130
s105.5 50.5 165.5 50.5c23.333 0 54.666 -4.66699 93.999 -14s59 -27 59 -53c0 -19.333 -5.33301 -38.166 -16 -56.499s-25.667 -27.5 -45 -27.5c-6 0 -35.167 8.5 -87.5 25.5s-83.5 25.5 -93.5 25.5c-31.333 0 -58.666 -6.83301 -81.999 -20.5s-41.333 -31.667 -54 -54
s-19 -44.5 -19 -66.5c0 -38 15.5 -79.833 46.5 -125.5s90.5 -120.834 178.5 -225.501c101.333 -115.333 173.166 -209 215.499 -281s63.5 -142 63.5 -210c0 -69.333 -13.167 -125 -39.5 -167s-62.5 -86 -108.5 -132c46.667 -67.333 70 -134.333 70 -201
c0 -58.667 -20.167 -116.667 -60.5 -174s-89.5 -103.333 -147.5 -138s-111 -52 -159 -52c-50 0 -98.333 11 -145 33s-70 42.333 -70 61c0 14.667 9 33.334 27 56.001s37.667 34 59 34c17.333 0 35.666 -7.66699 54.999 -23c42 -28 73.167 -46.5 93.5 -55.5
s41.833 -13.5 64.5 -13.5c35.333 0 66.5 9.33301 93.5 28s47.5 43.334 61.5 74.001s21 64.334 21 101.001c0 39.333 -9.66699 81.333 -29 126s-57.333 98.667 -114 162zM395.003 302.998l74 -86.001l37.5 -45.5l70 -85c27 -33 41.833 -51.5 44.5 -55.5
c26.667 28 45.834 52.333 57.501 73s17.5 53 17.5 97c0 50.667 -9.83301 98.834 -29.5 144.501s-49.834 95.5 -90.501 149.5s-101.667 130 -183 228c-62.667 70 -98.667 113 -108 129c-30 -30 -54 -59.167 -72 -87.5s-27 -63.5 -27 -105.5c0 -34 8 -68.5 24 -103.5
s40.167 -73.333 72.5 -115s69.833 -87.5 112.5 -137.5z" />
    <glyph glyph-name="dieresis" unicode="&#xa8;" horiz-adv-x="682" 
d="M156 1669c14.667 0 27.832 -5.49902 39.499 -16.499s17.5 -24.5 17.5 -40.5s-5.66699 -29.667 -17 -41s-24.666 -17 -39.999 -17c-17.333 0 -31.333 5.33301 -42 16s-16 24.667 -16 42s5.5 31.166 16.5 41.499s24.833 15.5 41.5 15.5zM511.998 1669
c16 0 29.501 -5.83203 40.501 -17.499s16.5 -24.834 16.5 -39.501c0 -16.667 -5.16699 -30.5 -15.5 -41.5s-24.166 -16.5 -41.499 -16.5c-16.667 0 -30.334 5.66699 -41.001 17s-16 25 -16 41c0 14 5.66699 27 17 39s24.666 18 39.999 18z" />
    <glyph glyph-name="copyright" unicode="&#xa9;" horiz-adv-x="1556" 
d="M1128 1135l20.998 -281.002h-39c-47.333 157.333 -148.333 236 -303 236c-64 0 -120.667 -15.833 -170 -47.5s-87 -77.167 -113 -136.5s-39 -128 -39 -206c0 -156 39 -267.667 117 -335c58 -50.667 129.667 -76 215 -76c132.667 0 236.334 54 311.001 162l39 -21
c-47.333 -68 -102.5 -118.833 -165.5 -152.5s-136.167 -50.5 -219.5 -50.5c-86 0 -164.5 19.667 -235.5 59s-126.667 92.833 -167 160.5s-60.5 142.834 -60.5 225.501c0 86 22 164.667 66 236s104.167 127 180.5 167s160.833 60 253.5 60c32.667 0 59.667 -2.33301 81 -7
s56 -14.667 104 -30c16 -5.33301 28 -8 36 -8c11.333 0 20.833 3.33301 28.5 10s14.834 18.334 21.501 35.001h38zM777.998 1386c128.667 0 247.669 -31.8311 357.002 -95.498s195.666 -149.834 258.999 -258.501s95 -226.667 95 -354c0 -128 -31.833 -246.333 -95.5 -355
s-150 -194.834 -259 -258.501s-227.833 -95.5 -356.5 -95.5c-127.333 0 -245.333 31.667 -354 95s-194.834 149.5 -258.501 258.5s-95.5 227.5 -95.5 355.5c0 127.333 31.667 245.5 95 354.5s149.5 195.167 258.5 258.5s227.167 95 354.5 95zM778 1325
c-116.667 0 -224.667 -29.001 -324 -87.001s-178 -136.667 -236 -236s-87 -207.333 -87 -324c0 -88.667 16.167 -171.667 48.5 -249s79.333 -146.833 141 -208.5s131.167 -108.667 208.5 -141s160.333 -48.5 249 -48.5c89.333 0 173 16.333 251 49s147.5 79.5 208.5 140.5
s107.833 130.333 140.5 208s49 160.834 49 249.501c0 116.667 -29 224.667 -87 324s-136.833 178 -236.5 236s-208.167 87 -325.5 87z" />
    <glyph glyph-name="ordfeminine" unicode="&#xaa;" horiz-adv-x="662" 
d="M418 1270l-0.00195312 62.9961c0 54.667 -4.5 88.834 -13.5 102.501s-33.167 20.5 -72.5 20.5c-31.333 0 -56.333 -3.66699 -75 -11s-28 -16.666 -28 -27.999c0 -6.66699 1.33301 -12 4 -16l9 -19c2.66699 -5.33301 4 -11.333 4 -18
c0 -15.333 -5.33301 -27.666 -16 -36.999s-24.667 -14 -42 -14c-16.667 0 -30.667 5 -42 15s-17 24 -17 42c0 33.333 21 60.166 63 80.499s96.667 30.5 164 30.5c52 0 91.667 -4 119 -12s46.166 -22 56.499 -42s15.5 -50 15.5 -90v-219c0 -30 1.66699 -49.833 5 -59.5
s11 -14.5 23 -14.5c16.667 0 32 10.333 46 31h16c-10 -58.667 -47 -88 -111 -88c-57.333 0 -93.333 31.333 -108 94c-29.333 -33.333 -57.166 -57.333 -83.499 -72s-57.166 -22 -92.499 -22c-43.333 0 -79.166 11 -107.499 33s-42.5 50 -42.5 84
c0 19.333 5.16699 38.333 15.5 57s23.5 33.667 39.5 45c31.333 20.667 67.5 35.834 108.5 45.501s95.167 15.834 162.5 18.501zM417.998 1178l0.000976562 64.998c-72.667 -2.66699 -123.667 -12.667 -153 -30s-44 -45.666 -44 -84.999c0 -25.333 7.16699 -46.333 21.5 -63
s33.166 -25 56.499 -25c36 0 64.833 12.833 86.5 38.5s32.5 58.834 32.5 99.501z" />
    <glyph glyph-name="guillemotleft" unicode="&#xab;" horiz-adv-x="788" 
d="M766 1233l-0.00195312 -133c-89.333 -56.667 -164.333 -138.667 -225 -246c14.667 -65.333 37.334 -126.833 68.001 -184.5s71.334 -114.167 122.001 -169.5l-121 -181l-233 459zM425.998 741l180 -354l35 53l-176 346zM435.998 1235v-133.001
c-88.667 -56 -163.667 -138.667 -225 -248c18 -69.333 42 -132.166 72 -188.499s69.333 -110.833 118 -163.5l-118 -183l-234 459zM97.998 740.999l181 -354l36 55l-178 346z" />
    <glyph glyph-name="logicalnot" unicode="&#xac;" horiz-adv-x="1460" 
d="M31 477v113h1362v-590h-113v477h-1249z" />
    <glyph glyph-name="sfthyphen" unicode="&#xad;" horiz-adv-x="1174" 
d="M1059 825l-60.001 -141h-727c-47.333 0 -93.666 -11.667 -138.999 -35l62 139h708c70 0 122 12.333 156 37z" />
    <glyph glyph-name="registered" unicode="&#xae;" horiz-adv-x="1556" 
d="M387 1114l385 0.000976562c58.667 0 110.5 -9.33301 155.5 -28s79.833 -44.834 104.5 -78.501s37 -72.5 37 -116.5c0 -110 -73.667 -184.333 -221 -223l209 -297c24.667 -34 45.167 -57 61.5 -69s36.166 -18.333 59.499 -19v-35h-185l-295 405h-75v-235v-74
c5.33301 -24.667 16 -41 32 -49s44.667 -12 86 -12v-35h-366v35c42.667 0 71.334 8.66699 86.001 26c6.66699 9.33301 11 16.5 13 21.5s3.33301 13.167 4 24.5s1 33 1 65v524c0 32.667 -0.333008 54.834 -1 66.501s-2.16699 20.167 -4.5 25.5s-6.5 11.666 -12.5 18.999
c-13.333 14 -38 22 -74 24v35zM623 696.001h30c80.667 0 143.5 16.167 188.5 48.5s67.5 77.166 67.5 134.499c0 36.667 -8.66699 69.334 -26 98.001s-41.5 51.167 -72.5 67.5s-65.5 24.5 -103.5 24.5c-28 0 -56 -4.66699 -84 -14v-359zM778 1386
c128.667 0 247.669 -31.8311 357.002 -95.498s195.666 -149.834 258.999 -258.501s95 -226.667 95 -354c0 -128 -31.833 -246.333 -95.5 -355s-150 -194.834 -259 -258.501s-227.833 -95.5 -356.5 -95.5c-127.333 0 -245.333 31.667 -354 95s-194.834 149.5 -258.501 258.5
s-95.5 227.5 -95.5 355.5c0 127.333 31.667 245.5 95 354.5s149.5 195.167 258.5 258.5s227.167 95 354.5 95zM778.002 1325c-116.667 0 -224.667 -29.001 -324 -87.001s-178 -136.667 -236 -236s-87 -207.333 -87 -324c0 -88.667 16.167 -171.667 48.5 -249
s79.333 -146.833 141 -208.5s131.167 -108.667 208.5 -141s160.333 -48.5 249 -48.5c89.333 0 173 16.333 251 49s147.5 79.5 208.5 140.5s107.833 130.333 140.5 208s49 160.834 49 249.501c0 116.667 -29 224.667 -87 324s-136.833 178 -236.5 236s-208.167 87 -325.5 87z
" />
    <glyph glyph-name="degree" unicode="&#xb0;" horiz-adv-x="819" 
d="M717 1096c0 -55.333 -14.001 -106.832 -42.001 -154.499s-65.5 -85.167 -112.5 -112.5s-97.833 -41 -152.5 -41c-55.333 0 -106.666 13.833 -153.999 41.5s-84.833 65.167 -112.5 112.5s-41.5 98.666 -41.5 153.999c0 42.667 7.66699 82.334 23 119.001
s37.666 69.334 66.999 98.001s62.666 50.834 99.999 66.501s76.666 23.5 117.999 23.5c40.667 0 79.834 -7.83301 117.501 -23.5s70.834 -37.834 99.501 -66.501s50.834 -61.834 66.501 -99.501s23.5 -76.834 23.5 -117.501zM634.999 1096c0 40 -10.332 77.333 -30.999 112
s-48.334 62.167 -83.001 82.5s-72.334 30.5 -113.001 30.5c-62 0 -115 -22 -159 -66s-65.667 -97 -65 -159c0 -62.667 22 -116 66 -160s97.333 -66 160 -66c40.667 0 78.334 10.333 113.001 31s62 48.167 82 82.5s30 71.833 30 112.5z" />
    <glyph glyph-name="plusminus" unicode="&#xb1;" horiz-adv-x="1124" 
d="M20 836h486v485h112v-485h486v-113h-486v-485h-112v485h-486v113zM1104 0h-1084v113h1084v-113z" />
    <glyph glyph-name="twosuperior" unicode="&#xb2;" horiz-adv-x="662" 
d="M549 770l-0.000976562 -102h-443c4 6 7.33301 11.5 10 16.5s4.33398 8.16699 5.00098 9.5c6 10.667 35.333 47 88 109c48 54 86.667 111.167 116 171.5s44 112.166 44 155.499c0 39.333 -11 70.833 -33 94.5s-51.333 35.5 -88 35.5c-50 0 -95 -24 -135 -72l-43 22
c47.333 72.667 114.666 109 201.999 109c62.667 0 113.5 -15.667 152.5 -47s58.5 -72.333 58.5 -123c0 -43.333 -12.333 -86.333 -37 -129c-18 -32 -40.167 -65.5 -66.5 -100.5s-75.833 -97.167 -148.5 -186.5h240c8.66699 0 14.334 1.33301 17.001 4
s4.66699 10.334 6 23.001c0 4 0.666992 7.33301 2 10h53z" />
    <glyph glyph-name="threesuperior" unicode="&#xb3;" horiz-adv-x="662" 
d="M63 770l46 25c30 -32 56.667 -54.667 80 -68s49 -20 77 -20c24.667 0 47 5.66699 67 17s35.667 27 47 47s17 42.333 17 67c0 29.333 -7.5 54.5 -22.5 75.5s-36.5 37.167 -64.5 48.5s-61 17 -99 17h-31v37c64 12.667 113.167 32.167 147.5 58.5s51.5 57.833 51.5 94.5
c0 27.333 -10.333 48.5 -31 63.5s-48.667 22.5 -84 22.5c-54 0 -96.333 -23 -127 -69l-45 24c46 72.667 113 109 201 109c56.667 0 102.5 -12.833 137.5 -38.5s52.5 -59.167 52.5 -100.5c0 -33.333 -11.667 -62.333 -35 -87s-60.666 -47.667 -111.999 -69v-4
c61.333 -12.667 106 -33 134 -61s42 -64.333 42 -109c0 -56.667 -22.333 -104.667 -67 -144s-99.334 -59 -164.001 -59c-102 0 -174.667 41 -218 123z" />
    <glyph glyph-name="acute" unicode="&#xb4;" horiz-adv-x="682" 
d="M385 1737h209l-434 -181h-25z" />
    <glyph glyph-name="mu" unicode="&#xb5;" horiz-adv-x="1180" 
d="M136 1024l176.001 -0.00390625v-682c0 -112.667 35.667 -185 107 -217c31.333 -13.333 59.833 -20.166 85.5 -20.499s52.834 5.83398 81.501 18.501c26.667 12 55.167 30.833 85.5 56.5s51.833 53.167 64.5 82.5v762h176v-786c0 -63.333 15.667 -111.333 47 -144
c32.667 -32.667 69 -38 109 -16c16.667 10 28.5 21.833 35.5 35.5s12.833 31.334 17.5 53.001s8 35.167 10 40.5h41c-12 -51.333 -26.167 -77 -42.5 -77h-96.5c-44 -23.333 -84.833 -32.833 -122.5 -28.5s-67.167 14.5 -88.5 30.5c-16.667 13.333 -29.5 25.833 -38.5 37.5
s-16.333 24.167 -22 37.5s-10 27.5 -13 42.5l-10.5 52.5c-32.667 -48.667 -80.334 -95.667 -143.001 -141c-54 -40 -118.333 -60 -193 -60c-28 0 -54.333 5.83301 -79 17.5s-47.334 26.167 -68.001 43.5l-45 37v-47c2 -45.333 11.333 -94.666 28 -147.999
s27.667 -94.666 33 -123.999c11.333 -62.667 6.33301 -111.834 -15 -147.501s-47.666 -53.5 -78.999 -53.5s-57.5 17.667 -78.5 53s-26.167 84.666 -15.5 147.999c5.33301 30.667 13.666 65.334 24.999 104.001s18.833 68.167 22.5 88.5s5.5 46.833 5.5 79.5v872z" />
    <glyph glyph-name="paragraph" unicode="&#xb6;" horiz-adv-x="928" 
d="M803 1300v-1742h-72v1742h-186v-1742h-74v1044h-29c-108.667 4.66699 -195 22 -259 52s-112.667 75.667 -146 137c-30 55.333 -45 117.333 -45 186c0 78.667 17.667 146.334 53 203.001s87 100.167 155 130.5s148.667 45.5 242 45.5h494v-56h-133z" />
    <glyph glyph-name="cedilla" unicode="&#xb8;" horiz-adv-x="682" 
d="M352 14l-12.001 -61h35c16.667 0 31 -6 43 -18s18 -25.667 18 -41c0 -52 -51 -78 -153 -78c-13.333 0 -40 2 -80 6l2 12h55c24.667 0 48.334 4.66699 71.001 14s34 23 34 41c0 28 -20.667 39.667 -62 35l21 90h28z" />
    <glyph glyph-name="onesuperior" unicode="&#xb9;" horiz-adv-x="662" 
d="M266 713v528l-94 -41l-18 37l215 82v-606h77v-45h-266v45h86z" />
    <glyph glyph-name="ordmasculine" unicode="&#xba;" horiz-adv-x="641" 
d="M336 1481c50.667 0 97.334 -10.6689 140.001 -32.002s75.667 -50.833 99 -88.5s35 -79.5 35 -125.5c0 -45.333 -12.333 -87.833 -37 -127.5s-58 -71 -100 -94s-87 -34.5 -135 -34.5c-72.667 0 -134.834 24.833 -186.501 74.5s-77.5 108.834 -77.5 177.501
c0 44 11.5 85.333 34.5 124s54.5 69.334 94.5 92.001s84.333 34 133 34zM461 1231l0.00195312 106.001c-0.666992 44 -9.83398 74.5 -27.501 91.5s-48.834 25.5 -93.501 25.5c-44 0 -74.5 -8.33301 -91.5 -25s-25.5 -46.667 -25.5 -90l-2 -110v-27
c0 -58 3 -100.167 9 -126.5s17.167 -44.166 33.5 -53.499s41.833 -14 76.5 -14c33.333 0 58.5 5.16699 75.5 15.5s28.833 29.166 35.5 56.499s10 66.666 10 117.999v33z" />
    <glyph glyph-name="guillemotright" unicode="&#xbb;" horiz-adv-x="788" 
d="M528 1237l234 -460.998l-385 -454v133c87.333 53.333 162.333 135.666 225 246.999c-23.333 77.333 -49.5 143.666 -78.5 198.999s-66.167 108 -111.5 158zM467 1071l176 -344l37 47l-178 350zM201 1235l233 -458.998l-385 -457v134c84 51.333 159 133.666 225 246.999
c-23.333 77.333 -49.5 143.666 -78.5 198.999s-66.167 108 -111.5 158zM139 1067l176 -342l37 45l-178 352z" />
    <glyph glyph-name="onequarter" unicode="&#xbc;" horiz-adv-x="1228" 
d="M202 729v528l-94 -41l-18 37l215 82v-606h77v-45h-266v45h86zM1008 1394h114l-950 -1411h-115zM753 259h-273v19l460 389h62c0 -8 -0.5 -18.5 -1.5 -31.5s-1.83301 -24.5 -2.5 -34.5s-1 -22.667 -1 -38v-184c0 -25.333 0.666992 -55.333 2 -90c10.667 -2 27.667 -3 51 -3
c46.667 0 81.667 5.33301 105 16h4l-18 -44h-71c-24.667 0 -47.667 -1 -69 -3c-3.33301 -20.667 -5 -49 -5 -85c0 -48 6 -92 18 -132l144 -13v-6h-447v6l143 13c15.333 48 23 98.667 23 152c0 18 -1.33301 39.667 -4 65c-52 2.66699 -92 4 -120 4zM877 374
c0 91.333 -3.99902 155.002 -11.999 191.002c-39.333 -27.333 -93.333 -70.833 -162 -130.5s-120.334 -107.834 -155.001 -144.501c44.667 -2.66699 104.667 -4 180 -4c48.667 0 97 1 145 3c2.66699 21.333 4 49.666 4 84.999z" />
    <glyph glyph-name="onehalf" unicode="&#xbd;" horiz-adv-x="1228" 
d="M202 729v528l-94 -41l-18 37l215 82v-606h77v-45h-266v45h86zM1008 1394h114l-950 -1411h-115zM1131 120l-0.000976562 -102h-443c4 6 7.33301 11.5 10 16.5s4.33398 8.16699 5.00098 9.5c6 10.667 35.333 47 88 109c48 54 86.667 111.167 116 171.5
s44 112.166 44 155.499c0 39.333 -11 70.833 -33 94.5s-51.333 35.5 -88 35.5c-50 0 -95 -24 -135 -72l-43 22c47.333 72.667 114.666 109 201.999 109c62.667 0 113.5 -15.667 152.5 -47s58.5 -72.333 58.5 -123c0 -43.333 -12.333 -86.333 -37 -129
c-18 -32 -40.167 -65.5 -66.5 -100.5s-75.833 -97.167 -148.5 -186.5h240c8.66699 0 14.334 1.33301 17.001 4s4.66699 10.334 6 23.001c0 4 0.666992 7.33301 2 10h53z" />
    <glyph glyph-name="threequarters" unicode="&#xbe;" horiz-adv-x="1228" 
d="M1008 1394h114l-950 -1411h-115zM753 259h-273v19l460 389h62c0 -8 -0.5 -18.5 -1.5 -31.5s-1.83301 -24.5 -2.5 -34.5s-1 -22.667 -1 -38v-184c0 -25.333 0.666992 -55.333 2 -90c10.667 -2 27.667 -3 51 -3c46.667 0 81.667 5.33301 105 16h4l-18 -44h-71
c-24.667 0 -47.667 -1 -69 -3c-3.33301 -20.667 -5 -49 -5 -85c0 -48 6 -92 18 -132l144 -13v-6h-447v6l143 13c15.333 48 23 98.667 23 152c0 18 -1.33301 39.667 -4 65c-52 2.66699 -92 4 -120 4zM877 374c0 91.333 -3.99902 155.002 -11.999 191.002
c-39.333 -27.333 -93.333 -70.833 -162 -130.5s-120.334 -107.834 -155.001 -144.501c44.667 -2.66699 104.667 -4 180 -4c48.667 0 97 1 145 3c2.66699 21.333 4 49.666 4 84.999zM57.001 788.002l46 25c30 -32 56.667 -54.667 80 -68s49 -20 77 -20
c24.667 0 47 5.66699 67 17s35.667 27 47 47s17 42.333 17 67c0 29.333 -7.5 54.5 -22.5 75.5s-36.5 37.167 -64.5 48.5s-61 17 -99 17h-31v37c64 12.667 113.167 32.167 147.5 58.5s51.5 57.833 51.5 94.5c0 27.333 -10.333 48.5 -31 63.5s-48.667 22.5 -84 22.5
c-54 0 -96.333 -23 -127 -69l-45 24c46 72.667 113 109 201 109c56.667 0 102.5 -12.833 137.5 -38.5s52.5 -59.167 52.5 -100.5c0 -33.333 -11.667 -62.333 -35 -87s-60.666 -47.667 -111.999 -69v-4c61.333 -12.667 106 -33 134 -61s42 -64.333 42 -109
c0 -56.667 -22.333 -104.667 -67 -144s-99.334 -59 -164.001 -59c-102 0 -174.667 41 -218 123z" />
    <glyph glyph-name="questiondown" unicode="&#xbf;" horiz-adv-x="598" 
d="M510 76l12.0029 -9.99707c-62 -50.667 -124.667 -76 -188 -76c-42 0 -83 11.167 -123 33.5s-72.5 54.666 -97.5 96.999s-37.5 91.5 -37.5 147.5c0 56.667 14.833 113.5 44.5 170.5s73.167 123.667 130.5 200s99.833 137.833 127.5 184.5s41.5 94 41.5 142
c0 46.667 -12.333 85.334 -37 116.001s-59.334 50 -104.001 58v12c47.333 -0.666992 89.5 -14.334 126.5 -41.001s65 -61.5 84 -104.5s28.5 -88.833 28.5 -137.5c0 -70 -10.833 -132.167 -32.5 -186.5s-53.334 -114 -95.001 -179s-72.167 -117.333 -91.5 -157
s-29 -82.5 -29 -128.5c0 -54.667 15.667 -96.334 47 -125.001s66.333 -43 105 -43c10.667 0 25.667 2.66699 45 8s33.666 11.666 42.999 18.999zM240.003 29.0029l5.99805 15.999c-21.333 10 -40.166 24.667 -56.499 44s-28.833 42 -37.5 68s-13 51.333 -13 76
c0 45.333 12.667 90.5 38 135.5s65.833 105.333 121.5 181s97.334 138.834 125.001 189.501s41.5 101.334 41.5 152.001c0 19.333 -2.16699 39.833 -6.5 61.5s-9.33301 40.5 -15 56.5s-9.5 25.667 -11.5 29l-8 -2c0 -0.666992 2 -10 6 -28s6 -36.667 6 -56
c0 -53.333 -14.667 -105.666 -44 -156.999s-72.333 -114.333 -129 -189s-98.667 -136.834 -126 -186.501s-41 -102.834 -41 -159.501c0 -98.667 48 -175.667 144 -231zM365.001 1485c33.333 0 62 -12 86 -36s36 -53 36 -87s-12 -63 -36 -87s-52.667 -36 -86 -36
c-34 0 -63 12 -87 36s-36 53 -36 87s12 63 36 87s53 36 87 36zM365.001 1274v180c-27.333 -3.33301 -49.333 -13.5 -66 -30.5s-25 -38.833 -25 -65.5c0 -20 8.5 -39 25.5 -57s38.833 -27 65.5 -27z" />
    <glyph glyph-name="Agrave" unicode="&#xc0;" 
d="M784 1282l519 -1243h67l-553 1327zM768 1198c-18 -35.333 -41.832 -87 -71.499 -155l-80.5 -191l-75 -189.5l-52 -132.5c39.333 -5.33301 85.166 -9 137.499 -11s102.166 -3 149.499 -3c116.667 0 212.334 4.66699 287.001 14c-25.333 75.333 -68.333 182.5 -129 321.5
s-116 254.5 -166 346.5zM874.001 1479l433 -1033c56 -134.667 121.333 -268.334 196 -401.001l166 -35v-10h-706v10l272 35c-10 66 -28.5 137.833 -55.5 215.5s-56.833 145.167 -89.5 202.5h-627l-64.5 -166c-16.333 -43.333 -32 -88.333 -47 -135
s-24.833 -85.667 -29.5 -117l262 -35v-10h-559v10l184 35c44.667 77.333 85.667 162.666 123 255.999l463 1178h79zM603.001 1737h200l254 -181h-22z" />
    <glyph glyph-name="Agrave" unicode="&#xe0;" 
d="M784 1282l519 -1243h67l-553 1327zM768 1198c-18 -35.333 -41.832 -87 -71.499 -155l-80.5 -191l-75 -189.5l-52 -132.5c39.333 -5.33301 85.166 -9 137.499 -11s102.166 -3 149.499 -3c116.667 0 212.334 4.66699 287.001 14c-25.333 75.333 -68.333 182.5 -129 321.5
s-116 254.5 -166 346.5zM874.001 1479l433 -1033c56 -134.667 121.333 -268.334 196 -401.001l166 -35v-10h-706v10l272 35c-10 66 -28.5 137.833 -55.5 215.5s-56.833 145.167 -89.5 202.5h-627l-64.5 -166c-16.333 -43.333 -32 -88.333 -47 -135
s-24.833 -85.667 -29.5 -117l262 -35v-10h-559v10l184 35c44.667 77.333 85.667 162.666 123 255.999l463 1178h79zM603.001 1737h200l254 -181h-22z" />
    <glyph glyph-name="Aacute" unicode="&#xc1;" 
d="M784 1282l519 -1243h67l-553 1327zM768 1198c-18 -35.333 -41.832 -87 -71.499 -155l-80.5 -191l-75 -189.5l-52 -132.5c39.333 -5.33301 85.166 -9 137.499 -11s102.166 -3 149.499 -3c116.667 0 212.334 4.66699 287.001 14c-25.333 75.333 -68.333 182.5 -129 321.5
s-116 254.5 -166 346.5zM874.001 1479l433 -1033c56 -134.667 121.333 -268.334 196 -401.001l166 -35v-10h-706v10l272 35c-10 66 -28.5 137.833 -55.5 215.5s-56.833 145.167 -89.5 202.5h-627l-64.5 -166c-16.333 -43.333 -32 -88.333 -47 -135
s-24.833 -85.667 -29.5 -117l262 -35v-10h-559v10l184 35c44.667 77.333 85.667 162.666 123 255.999l463 1178h79zM877.001 1737h209l-434 -181h-25z" />
    <glyph glyph-name="Aacute" unicode="&#xe1;" 
d="M784 1282l519 -1243h67l-553 1327zM768 1198c-18 -35.333 -41.832 -87 -71.499 -155l-80.5 -191l-75 -189.5l-52 -132.5c39.333 -5.33301 85.166 -9 137.499 -11s102.166 -3 149.499 -3c116.667 0 212.334 4.66699 287.001 14c-25.333 75.333 -68.333 182.5 -129 321.5
s-116 254.5 -166 346.5zM874.001 1479l433 -1033c56 -134.667 121.333 -268.334 196 -401.001l166 -35v-10h-706v10l272 35c-10 66 -28.5 137.833 -55.5 215.5s-56.833 145.167 -89.5 202.5h-627l-64.5 -166c-16.333 -43.333 -32 -88.333 -47 -135
s-24.833 -85.667 -29.5 -117l262 -35v-10h-559v10l184 35c44.667 77.333 85.667 162.666 123 255.999l463 1178h79zM877.001 1737h209l-434 -181h-25z" />
    <glyph glyph-name="Acircumflex" unicode="&#xc2;" 
d="M784 1282l519 -1243h67l-553 1327zM768 1198c-18 -35.333 -41.832 -87 -71.499 -155l-80.5 -191l-75 -189.5l-52 -132.5c39.333 -5.33301 85.166 -9 137.499 -11s102.166 -3 149.499 -3c116.667 0 212.334 4.66699 287.001 14c-25.333 75.333 -68.333 182.5 -129 321.5
s-116 254.5 -166 346.5zM874.001 1479l433 -1033c56 -134.667 121.333 -268.334 196 -401.001l166 -35v-10h-706v10l272 35c-10 66 -28.5 137.833 -55.5 215.5s-56.833 145.167 -89.5 202.5h-627l-64.5 -166c-16.333 -43.333 -32 -88.333 -47 -135
s-24.833 -85.667 -29.5 -117l262 -35v-10h-559v10l184 35c44.667 77.333 85.667 162.666 123 255.999l463 1178h79zM834.001 1743l313 -187h-26l-285 101l-287 -98h-28z" />
    <glyph glyph-name="Acircumflex" unicode="&#xe2;" 
d="M784 1282l519 -1243h67l-553 1327zM768 1198c-18 -35.333 -41.832 -87 -71.499 -155l-80.5 -191l-75 -189.5l-52 -132.5c39.333 -5.33301 85.166 -9 137.499 -11s102.166 -3 149.499 -3c116.667 0 212.334 4.66699 287.001 14c-25.333 75.333 -68.333 182.5 -129 321.5
s-116 254.5 -166 346.5zM874.001 1479l433 -1033c56 -134.667 121.333 -268.334 196 -401.001l166 -35v-10h-706v10l272 35c-10 66 -28.5 137.833 -55.5 215.5s-56.833 145.167 -89.5 202.5h-627l-64.5 -166c-16.333 -43.333 -32 -88.333 -47 -135
s-24.833 -85.667 -29.5 -117l262 -35v-10h-559v10l184 35c44.667 77.333 85.667 162.666 123 255.999l463 1178h79zM834.001 1743l313 -187h-26l-285 101l-287 -98h-28z" />
    <glyph glyph-name="Atilde" unicode="&#xc3;" 
d="M784 1282l519 -1243h67l-553 1327zM768 1198c-18 -35.333 -41.832 -87 -71.499 -155l-80.5 -191l-75 -189.5l-52 -132.5c39.333 -5.33301 85.166 -9 137.499 -11s102.166 -3 149.499 -3c116.667 0 212.334 4.66699 287.001 14c-25.333 75.333 -68.333 182.5 -129 321.5
s-116 254.5 -166 346.5zM874.001 1479l433 -1033c56 -134.667 121.333 -268.334 196 -401.001l166 -35v-10h-706v10l272 35c-10 66 -28.5 137.833 -55.5 215.5s-56.833 145.167 -89.5 202.5h-627l-64.5 -166c-16.333 -43.333 -32 -88.333 -47 -135
s-24.833 -85.667 -29.5 -117l262 -35v-10h-559v10l184 35c44.667 77.333 85.667 162.666 123 255.999l463 1178h79zM342.001 1536l-9.99805 9.99902c37.333 61.333 90.5 108.5 159.5 141.5s133.5 49.5 193.5 49.5c42 0 110.667 -17 206 -51
c63.333 -20.667 107.5 -34.5 132.5 -41.5s51.167 -10.5 78.5 -10.5c44.667 0 82.667 6.83301 114 20.5s59 39.834 83 78.501l20 -11c-40.667 -57.333 -91.167 -102 -151.5 -134s-123.833 -48 -190.5 -48c-28.667 0 -57.5 4.33301 -86.5 13s-68.167 22 -117.5 40
c-46.667 17.333 -86.334 30.333 -119.001 39s-65.667 13 -99 13c-48 0 -88.833 -8.5 -122.5 -25.5s-63.834 -44.833 -90.501 -83.5z" />
    <glyph glyph-name="Atilde" unicode="&#xe3;" 
d="M784 1282l519 -1243h67l-553 1327zM768 1198c-18 -35.333 -41.832 -87 -71.499 -155l-80.5 -191l-75 -189.5l-52 -132.5c39.333 -5.33301 85.166 -9 137.499 -11s102.166 -3 149.499 -3c116.667 0 212.334 4.66699 287.001 14c-25.333 75.333 -68.333 182.5 -129 321.5
s-116 254.5 -166 346.5zM874.001 1479l433 -1033c56 -134.667 121.333 -268.334 196 -401.001l166 -35v-10h-706v10l272 35c-10 66 -28.5 137.833 -55.5 215.5s-56.833 145.167 -89.5 202.5h-627l-64.5 -166c-16.333 -43.333 -32 -88.333 -47 -135
s-24.833 -85.667 -29.5 -117l262 -35v-10h-559v10l184 35c44.667 77.333 85.667 162.666 123 255.999l463 1178h79zM342.001 1536l-9.99805 9.99902c37.333 61.333 90.5 108.5 159.5 141.5s133.5 49.5 193.5 49.5c42 0 110.667 -17 206 -51
c63.333 -20.667 107.5 -34.5 132.5 -41.5s51.167 -10.5 78.5 -10.5c44.667 0 82.667 6.83301 114 20.5s59 39.834 83 78.501l20 -11c-40.667 -57.333 -91.167 -102 -151.5 -134s-123.833 -48 -190.5 -48c-28.667 0 -57.5 4.33301 -86.5 13s-68.167 22 -117.5 40
c-46.667 17.333 -86.334 30.333 -119.001 39s-65.667 13 -99 13c-48 0 -88.833 -8.5 -122.5 -25.5s-63.834 -44.833 -90.501 -83.5z" />
    <glyph glyph-name="Adieresis" unicode="&#xc4;" 
d="M784 1282l519 -1243h67l-553 1327zM768 1198c-18 -35.333 -41.832 -87 -71.499 -155l-80.5 -191l-75 -189.5l-52 -132.5c39.333 -5.33301 85.166 -9 137.499 -11s102.166 -3 149.499 -3c116.667 0 212.334 4.66699 287.001 14c-25.333 75.333 -68.333 182.5 -129 321.5
s-116 254.5 -166 346.5zM874.001 1479l433 -1033c56 -134.667 121.333 -268.334 196 -401.001l166 -35v-10h-706v10l272 35c-10 66 -28.5 137.833 -55.5 215.5s-56.833 145.167 -89.5 202.5h-627l-64.5 -166c-16.333 -43.333 -32 -88.333 -47 -135
s-24.833 -85.667 -29.5 -117l262 -35v-10h-559v10l184 35c44.667 77.333 85.667 162.666 123 255.999l463 1178h79zM648.001 1669c14.667 0 27.832 -5.49902 39.499 -16.499s17.5 -24.5 17.5 -40.5s-5.66699 -29.667 -17 -41s-24.666 -17 -39.999 -17
c-17.333 0 -31.333 5.33301 -42 16s-16 24.667 -16 42s5.5 31.166 16.5 41.499s24.833 15.5 41.5 15.5zM1004 1669c16 0 29.501 -5.83203 40.501 -17.499s16.5 -24.834 16.5 -39.501c0 -16.667 -5.16699 -30.5 -15.5 -41.5s-24.166 -16.5 -41.499 -16.5
c-16.667 0 -30.334 5.66699 -41.001 17s-16 25 -16 41c0 14 5.66699 27 17 39s24.666 18 39.999 18z" />
    <glyph glyph-name="Adieresis" unicode="&#xe4;" 
d="M784 1282l519 -1243h67l-553 1327zM768 1198c-18 -35.333 -41.832 -87 -71.499 -155l-80.5 -191l-75 -189.5l-52 -132.5c39.333 -5.33301 85.166 -9 137.499 -11s102.166 -3 149.499 -3c116.667 0 212.334 4.66699 287.001 14c-25.333 75.333 -68.333 182.5 -129 321.5
s-116 254.5 -166 346.5zM874.001 1479l433 -1033c56 -134.667 121.333 -268.334 196 -401.001l166 -35v-10h-706v10l272 35c-10 66 -28.5 137.833 -55.5 215.5s-56.833 145.167 -89.5 202.5h-627l-64.5 -166c-16.333 -43.333 -32 -88.333 -47 -135
s-24.833 -85.667 -29.5 -117l262 -35v-10h-559v10l184 35c44.667 77.333 85.667 162.666 123 255.999l463 1178h79zM648.001 1669c14.667 0 27.832 -5.49902 39.499 -16.499s17.5 -24.5 17.5 -40.5s-5.66699 -29.667 -17 -41s-24.666 -17 -39.999 -17
c-17.333 0 -31.333 5.33301 -42 16s-16 24.667 -16 42s5.5 31.166 16.5 41.499s24.833 15.5 41.5 15.5zM1004 1669c16 0 29.501 -5.83203 40.501 -17.499s16.5 -24.834 16.5 -39.501c0 -16.667 -5.16699 -30.5 -15.5 -41.5s-24.166 -16.5 -41.499 -16.5
c-16.667 0 -30.334 5.66699 -41.001 17s-16 25 -16 41c0 14 5.66699 27 17 39s24.666 18 39.999 18z" />
    <glyph glyph-name="Aring" unicode="&#xc5;" 
d="M784 1282l519 -1243h67l-553 1327zM768 1198c-18 -35.333 -41.832 -87 -71.499 -155l-80.5 -191l-75 -189.5l-52 -132.5c39.333 -5.33301 85.166 -9 137.499 -11s102.166 -3 149.499 -3c116.667 0 212.334 4.66699 287.001 14c-25.333 75.333 -68.333 182.5 -129 321.5
s-116 254.5 -166 346.5zM874.001 1479l433 -1033c56 -134.667 121.333 -268.334 196 -401.001l166 -35v-10h-706v10l272 35c-10 66 -28.5 137.833 -55.5 215.5s-56.833 145.167 -89.5 202.5h-627l-64.5 -166c-16.333 -43.333 -32 -88.333 -47 -135
s-24.833 -85.667 -29.5 -117l262 -35v-10h-559v10l184 35c44.667 77.333 85.667 162.666 123 255.999l463 1178h79zM838.001 1782c38 0 69.999 -13.333 95.999 -40s39 -58.334 39 -95.001c0 -38 -13.167 -70.5 -39.5 -97.5s-58.166 -40.5 -95.499 -40.5
s-69.5 13.5 -96.5 40.5s-40.5 59.5 -40.5 97.5c0 36.667 13.333 68.334 40 95.001s59 40 97 40zM836 1757c-30.667 0 -56.834 -10.832 -78.501 -32.499s-32.5 -48.167 -32.5 -79.5c0 -30.667 10.833 -56.834 32.5 -78.501s47.834 -32.5 78.501 -32.5
c32 0 58.833 10.5 80.5 31.5s32.5 47.5 32.5 79.5c0 32.667 -10.833 59.5 -32.5 80.5s-48.5 31.5 -80.5 31.5z" />
    <glyph glyph-name="Aring" unicode="&#xe5;" 
d="M784 1282l519 -1243h67l-553 1327zM768 1198c-18 -35.333 -41.832 -87 -71.499 -155l-80.5 -191l-75 -189.5l-52 -132.5c39.333 -5.33301 85.166 -9 137.499 -11s102.166 -3 149.499 -3c116.667 0 212.334 4.66699 287.001 14c-25.333 75.333 -68.333 182.5 -129 321.5
s-116 254.5 -166 346.5zM874.001 1479l433 -1033c56 -134.667 121.333 -268.334 196 -401.001l166 -35v-10h-706v10l272 35c-10 66 -28.5 137.833 -55.5 215.5s-56.833 145.167 -89.5 202.5h-627l-64.5 -166c-16.333 -43.333 -32 -88.333 -47 -135
s-24.833 -85.667 -29.5 -117l262 -35v-10h-559v10l184 35c44.667 77.333 85.667 162.666 123 255.999l463 1178h79zM838.001 1782c38 0 69.999 -13.333 95.999 -40s39 -58.334 39 -95.001c0 -38 -13.167 -70.5 -39.5 -97.5s-58.166 -40.5 -95.499 -40.5
s-69.5 13.5 -96.5 40.5s-40.5 59.5 -40.5 97.5c0 36.667 13.333 68.334 40 95.001s59 40 97 40zM836 1757c-30.667 0 -56.834 -10.832 -78.501 -32.499s-32.5 -48.167 -32.5 -79.5c0 -30.667 10.833 -56.834 32.5 -78.501s47.834 -32.5 78.501 -32.5
c32 0 58.833 10.5 80.5 31.5s32.5 47.5 32.5 79.5c0 32.667 -10.833 59.5 -32.5 80.5s-48.5 31.5 -80.5 31.5z" />
    <glyph glyph-name="AE" unicode="&#xc6;" horiz-adv-x="1962" 
d="M942 1106l-219 -354.001c-46 -69.333 -87 -141 -123 -215c12 -3.33301 32.333 -6.5 61 -9.5s62.667 -5.16699 102 -6.5s69 -1.66602 89 -0.999023c75.333 0 152.333 4 231 12c6 78 9 170.333 9 277c0 41.333 -0.333008 90.833 -1 148.5s-2.5 119.5 -5.5 185.5
s-7.83301 112.333 -14.5 139c-14 -15.333 -35 -42.5 -63 -81.5zM1118 1427v-1388h72v1388h-72zM375 298.999l565.001 924.002c66.667 112.667 109.667 198.667 129 258c32.667 -2 73 -5.66699 121 -11c41.333 -4 81 -6 119 -6h573l21 -305h-13l-73 242
c-28.667 2.66699 -56.667 4.33398 -84 5.00098s-57.666 1 -90.999 1c-60.667 0 -122.667 -2.83301 -186 -8.5s-110.333 -13.167 -141 -22.5c-5.33301 -44.667 -9.16602 -82.667 -11.499 -114s-4.5 -66.833 -6.5 -106.5s-3 -82.834 -3 -129.501
c0 -110.667 3.66699 -186.334 11 -227.001c19.333 0 38.666 -0.666992 57.999 -2l60.5 -4c21 -1.33301 41.167 -2.5 60.5 -3.5s38 -1.5 56 -1.5c11.333 0 30.666 0.5 57.999 1.5s54.166 2.33301 80.499 4s45.166 2.83398 56.499 3.50098l49 176h12v-428h-12l-49 184
c-77.333 5.33301 -146.333 8 -207 8c-22.667 0 -58.334 -1 -107.001 -3s-89 -4.33301 -121 -7c-2 -20 -3.5 -53.833 -4.5 -101.5s-1.5 -103.167 -1.5 -166.5c0 -134.667 6.33301 -252.334 19 -353.001c31.333 -12 77.666 -22.167 138.999 -30.5s118.666 -12.5 171.999 -12.5
c26.667 0 63.334 1.66699 110.001 5s77 6 91 8l78 241h12l-21 -317h-1081v10l240 35c12 30.667 21.167 75.167 27.5 133.5s9.5 113.5 9.5 165.5c0 49.333 -2.33301 89.666 -7 120.999h-524c-24.667 -30.667 -53.167 -71.5 -85.5 -122.5s-63.666 -104.333 -93.999 -160
s-53.166 -101.5 -68.499 -137.5l264 -35v-10h-544v10l168 35c50.667 63.333 109.334 148 176.001 254z" />
    <glyph glyph-name="AE" unicode="&#xe6;" horiz-adv-x="1962" 
d="M942 1106l-219 -354.001c-46 -69.333 -87 -141 -123 -215c12 -3.33301 32.333 -6.5 61 -9.5s62.667 -5.16699 102 -6.5s69 -1.66602 89 -0.999023c75.333 0 152.333 4 231 12c6 78 9 170.333 9 277c0 41.333 -0.333008 90.833 -1 148.5s-2.5 119.5 -5.5 185.5
s-7.83301 112.333 -14.5 139c-14 -15.333 -35 -42.5 -63 -81.5zM1118 1427v-1388h72v1388h-72zM375 298.999l565.001 924.002c66.667 112.667 109.667 198.667 129 258c32.667 -2 73 -5.66699 121 -11c41.333 -4 81 -6 119 -6h573l21 -305h-13l-73 242
c-28.667 2.66699 -56.667 4.33398 -84 5.00098s-57.666 1 -90.999 1c-60.667 0 -122.667 -2.83301 -186 -8.5s-110.333 -13.167 -141 -22.5c-5.33301 -44.667 -9.16602 -82.667 -11.499 -114s-4.5 -66.833 -6.5 -106.5s-3 -82.834 -3 -129.501
c0 -110.667 3.66699 -186.334 11 -227.001c19.333 0 38.666 -0.666992 57.999 -2l60.5 -4c21 -1.33301 41.167 -2.5 60.5 -3.5s38 -1.5 56 -1.5c11.333 0 30.666 0.5 57.999 1.5s54.166 2.33301 80.499 4s45.166 2.83398 56.499 3.50098l49 176h12v-428h-12l-49 184
c-77.333 5.33301 -146.333 8 -207 8c-22.667 0 -58.334 -1 -107.001 -3s-89 -4.33301 -121 -7c-2 -20 -3.5 -53.833 -4.5 -101.5s-1.5 -103.167 -1.5 -166.5c0 -134.667 6.33301 -252.334 19 -353.001c31.333 -12 77.666 -22.167 138.999 -30.5s118.666 -12.5 171.999 -12.5
c26.667 0 63.334 1.66699 110.001 5s77 6 91 8l78 241h12l-21 -317h-1081v10l240 35c12 30.667 21.167 75.167 27.5 133.5s9.5 113.5 9.5 165.5c0 49.333 -2.33301 89.666 -7 120.999h-524c-24.667 -30.667 -53.167 -71.5 -85.5 -122.5s-63.666 -104.333 -93.999 -160
s-53.166 -101.5 -68.499 -137.5l264 -35v-10h-544v10l168 35c50.667 63.333 109.334 148 176.001 254z" />
    <glyph glyph-name="Ccedilla" unicode="&#xc7;" horiz-adv-x="1579" 
d="M1069 1460l-117.003 -0.00292969c-116 0 -222.5 -19.167 -319.5 -57.5s-179 -91.666 -246 -159.999s-117.833 -147.166 -152.5 -236.499s-52 -185 -52 -287c0 -93.333 17.833 -182.5 53.5 -267.5s88.334 -160.667 158.001 -227s152.834 -118 249.501 -155
s204.667 -55.5 324 -55.5c53.333 0 87.333 0.666992 102 2v13c-132.667 -2.66699 -250.834 14.833 -354.501 52.5s-189.167 90.334 -256.5 158.001s-117.5 144.167 -150.5 229.5s-49.5 172 -49.5 260c0 86.667 14.333 172 43 256s72.834 161 132.501 231
s136.834 125.833 231.501 167.5s206 62.5 334 62.5h70v14zM1522 269.997l-147.998 -274.001c-64 5.33301 -110.333 8 -139 8c-35.333 0 -83 -2.66699 -143 -8s-106.667 -8 -140 -8c-134.667 0 -253.834 20.833 -357.501 62.5s-189.167 98 -256.5 169
s-117.333 149.333 -150 235s-49 172.5 -49 260.5c0 112.667 19.167 216.5 57.5 311.5s92.5 176.667 162.5 245s151.667 120.666 245 156.999s193.666 54.5 300.999 54.5c28 0 45.667 -0.166992 53 -0.5s23.333 -1 48 -2s49.667 -2.16699 75 -3.5c90 -6 159 -9 207 -9
c106.667 0 176.334 3 209.001 9l12 -336h-12l-67 223c-20 4.66699 -55.333 11.334 -106 20.001s-100.167 15.667 -148.5 21s-98.833 8 -151.5 8c-137.333 0 -254.833 -27.5 -352.5 -82.5s-171.167 -133 -220.5 -234s-74 -217.167 -74 -348.5
c0 -102 17.667 -195.833 53 -281.5s84.666 -158.667 147.999 -219s135.5 -106.166 216.5 -137.499s166.5 -47 256.5 -47c89.333 0 173 15.167 251 45.5s147.667 85.5 209 165.5zM800.999 13.9961l-12.001 -61h35c16.667 0 31 -6 43 -18s18 -25.667 18 -41
c0 -52 -51 -78 -153 -78c-13.333 0 -40 2 -80 6l2 12h55c24.667 0 48.334 4.66699 71.001 14s34 23 34 41c0 28 -20.667 39.667 -62 35l21 90h28z" />
    <glyph glyph-name="Ccedilla" unicode="&#xe7;" horiz-adv-x="1579" 
d="M1069 1460l-117.003 -0.00292969c-116 0 -222.5 -19.167 -319.5 -57.5s-179 -91.666 -246 -159.999s-117.833 -147.166 -152.5 -236.499s-52 -185 -52 -287c0 -93.333 17.833 -182.5 53.5 -267.5s88.334 -160.667 158.001 -227s152.834 -118 249.501 -155
s204.667 -55.5 324 -55.5c53.333 0 87.333 0.666992 102 2v13c-132.667 -2.66699 -250.834 14.833 -354.501 52.5s-189.167 90.334 -256.5 158.001s-117.5 144.167 -150.5 229.5s-49.5 172 -49.5 260c0 86.667 14.333 172 43 256s72.834 161 132.501 231
s136.834 125.833 231.501 167.5s206 62.5 334 62.5h70v14zM1522 269.997l-147.998 -274.001c-64 5.33301 -110.333 8 -139 8c-35.333 0 -83 -2.66699 -143 -8s-106.667 -8 -140 -8c-134.667 0 -253.834 20.833 -357.501 62.5s-189.167 98 -256.5 169
s-117.333 149.333 -150 235s-49 172.5 -49 260.5c0 112.667 19.167 216.5 57.5 311.5s92.5 176.667 162.5 245s151.667 120.666 245 156.999s193.666 54.5 300.999 54.5c28 0 45.667 -0.166992 53 -0.5s23.333 -1 48 -2s49.667 -2.16699 75 -3.5c90 -6 159 -9 207 -9
c106.667 0 176.334 3 209.001 9l12 -336h-12l-67 223c-20 4.66699 -55.333 11.334 -106 20.001s-100.167 15.667 -148.5 21s-98.833 8 -151.5 8c-137.333 0 -254.833 -27.5 -352.5 -82.5s-171.167 -133 -220.5 -234s-74 -217.167 -74 -348.5
c0 -102 17.667 -195.833 53 -281.5s84.666 -158.667 147.999 -219s135.5 -106.166 216.5 -137.499s166.5 -47 256.5 -47c89.333 0 173 15.167 251 45.5s147.667 85.5 209 165.5zM800.999 13.9961l-12.001 -61h35c16.667 0 31 -6 43 -18s18 -25.667 18 -41
c0 -52 -51 -78 -153 -78c-13.333 0 -40 2 -80 6l2 12h55c24.667 0 48.334 4.66699 71.001 14s34 23 34 41c0 28 -20.667 39.667 -62 35l21 90h28z" />
    <glyph glyph-name="Egrave" unicode="&#xc8;" horiz-adv-x="1174" 
d="M324 1425v-1386h69v1386h-69zM20 1454l0.00585938 10.0029h1065l25 -311h-16l-72 244c-56.667 4 -120.334 6 -191.001 6c-128.667 0 -232.334 -9 -311.001 -27c-13.333 -108 -20 -231.333 -20 -370c0 -86.667 2.66699 -157 8 -211c105.333 -6 172.333 -9 201 -9
c75.333 0 153 4.33301 233 13l45 170h17v-426h-17l-47 180c-58 6.66699 -122 10 -192 10c-88 0 -168 -4 -240 -12c-8.66699 -77.333 -11.334 -153 -8.00098 -227c1.33301 -94.667 3 -172.834 5 -234.501s5.66699 -114.834 11 -159.501c81.333 -24.667 188 -37 320 -37
c76 0 140 3 192 9l80 241h14l-22 -313h-1077v10l239 35c5.33301 27.333 10.166 69 14.499 125s8.16602 118.833 11.499 188.5s5.66602 128 6.99902 175s2 88.167 2 123.5v252c0 32 -1 77.5 -3 136.5s-5 120.167 -9 183.5s-9.66699 126.666 -17 189.999zM357.006 1737h200
l254 -181h-22z" />
    <glyph glyph-name="Egrave" unicode="&#xe8;" horiz-adv-x="1174" 
d="M324 1425v-1386h69v1386h-69zM20 1454l0.00585938 10.0029h1065l25 -311h-16l-72 244c-56.667 4 -120.334 6 -191.001 6c-128.667 0 -232.334 -9 -311.001 -27c-13.333 -108 -20 -231.333 -20 -370c0 -86.667 2.66699 -157 8 -211c105.333 -6 172.333 -9 201 -9
c75.333 0 153 4.33301 233 13l45 170h17v-426h-17l-47 180c-58 6.66699 -122 10 -192 10c-88 0 -168 -4 -240 -12c-8.66699 -77.333 -11.334 -153 -8.00098 -227c1.33301 -94.667 3 -172.834 5 -234.501s5.66699 -114.834 11 -159.501c81.333 -24.667 188 -37 320 -37
c76 0 140 3 192 9l80 241h14l-22 -313h-1077v10l239 35c5.33301 27.333 10.166 69 14.499 125s8.16602 118.833 11.499 188.5s5.66602 128 6.99902 175s2 88.167 2 123.5v252c0 32 -1 77.5 -3 136.5s-5 120.167 -9 183.5s-9.66699 126.666 -17 189.999zM357.006 1737h200
l254 -181h-22z" />
    <glyph glyph-name="Eacute" unicode="&#xc9;" horiz-adv-x="1174" 
d="M324 1425v-1386h69v1386h-69zM20 1454l0.00585938 10.0029h1065l25 -311h-16l-72 244c-56.667 4 -120.334 6 -191.001 6c-128.667 0 -232.334 -9 -311.001 -27c-13.333 -108 -20 -231.333 -20 -370c0 -86.667 2.66699 -157 8 -211c105.333 -6 172.333 -9 201 -9
c75.333 0 153 4.33301 233 13l45 170h17v-426h-17l-47 180c-58 6.66699 -122 10 -192 10c-88 0 -168 -4 -240 -12c-8.66699 -77.333 -11.334 -153 -8.00098 -227c1.33301 -94.667 3 -172.834 5 -234.501s5.66699 -114.834 11 -159.501c81.333 -24.667 188 -37 320 -37
c76 0 140 3 192 9l80 241h14l-22 -313h-1077v10l239 35c5.33301 27.333 10.166 69 14.499 125s8.16602 118.833 11.499 188.5s5.66602 128 6.99902 175s2 88.167 2 123.5v252c0 32 -1 77.5 -3 136.5s-5 120.167 -9 183.5s-9.66699 126.666 -17 189.999zM631.006 1737h209
l-434 -181h-25z" />
    <glyph glyph-name="Eacute" unicode="&#xe9;" horiz-adv-x="1174" 
d="M324 1425v-1386h69v1386h-69zM20 1454l0.00585938 10.0029h1065l25 -311h-16l-72 244c-56.667 4 -120.334 6 -191.001 6c-128.667 0 -232.334 -9 -311.001 -27c-13.333 -108 -20 -231.333 -20 -370c0 -86.667 2.66699 -157 8 -211c105.333 -6 172.333 -9 201 -9
c75.333 0 153 4.33301 233 13l45 170h17v-426h-17l-47 180c-58 6.66699 -122 10 -192 10c-88 0 -168 -4 -240 -12c-8.66699 -77.333 -11.334 -153 -8.00098 -227c1.33301 -94.667 3 -172.834 5 -234.501s5.66699 -114.834 11 -159.501c81.333 -24.667 188 -37 320 -37
c76 0 140 3 192 9l80 241h14l-22 -313h-1077v10l239 35c5.33301 27.333 10.166 69 14.499 125s8.16602 118.833 11.499 188.5s5.66602 128 6.99902 175s2 88.167 2 123.5v252c0 32 -1 77.5 -3 136.5s-5 120.167 -9 183.5s-9.66699 126.666 -17 189.999zM631.006 1737h209
l-434 -181h-25z" />
    <glyph glyph-name="Ecircumflex" unicode="&#xca;" horiz-adv-x="1174" 
d="M324 1425v-1386h69v1386h-69zM20 1454l0.00585938 10.0029h1065l25 -311h-16l-72 244c-56.667 4 -120.334 6 -191.001 6c-128.667 0 -232.334 -9 -311.001 -27c-13.333 -108 -20 -231.333 -20 -370c0 -86.667 2.66699 -157 8 -211c105.333 -6 172.333 -9 201 -9
c75.333 0 153 4.33301 233 13l45 170h17v-426h-17l-47 180c-58 6.66699 -122 10 -192 10c-88 0 -168 -4 -240 -12c-8.66699 -77.333 -11.334 -153 -8.00098 -227c1.33301 -94.667 3 -172.834 5 -234.501s5.66699 -114.834 11 -159.501c81.333 -24.667 188 -37 320 -37
c76 0 140 3 192 9l80 241h14l-22 -313h-1077v10l239 35c5.33301 27.333 10.166 69 14.499 125s8.16602 118.833 11.499 188.5s5.66602 128 6.99902 175s2 88.167 2 123.5v252c0 32 -1 77.5 -3 136.5s-5 120.167 -9 183.5s-9.66699 126.666 -17 189.999zM588.006 1743
l313 -187h-26l-285 101l-287 -98h-28z" />
    <glyph glyph-name="Ecircumflex" unicode="&#xea;" horiz-adv-x="1174" 
d="M324 1425v-1386h69v1386h-69zM20 1454l0.00585938 10.0029h1065l25 -311h-16l-72 244c-56.667 4 -120.334 6 -191.001 6c-128.667 0 -232.334 -9 -311.001 -27c-13.333 -108 -20 -231.333 -20 -370c0 -86.667 2.66699 -157 8 -211c105.333 -6 172.333 -9 201 -9
c75.333 0 153 4.33301 233 13l45 170h17v-426h-17l-47 180c-58 6.66699 -122 10 -192 10c-88 0 -168 -4 -240 -12c-8.66699 -77.333 -11.334 -153 -8.00098 -227c1.33301 -94.667 3 -172.834 5 -234.501s5.66699 -114.834 11 -159.501c81.333 -24.667 188 -37 320 -37
c76 0 140 3 192 9l80 241h14l-22 -313h-1077v10l239 35c5.33301 27.333 10.166 69 14.499 125s8.16602 118.833 11.499 188.5s5.66602 128 6.99902 175s2 88.167 2 123.5v252c0 32 -1 77.5 -3 136.5s-5 120.167 -9 183.5s-9.66699 126.666 -17 189.999zM588.006 1743
l313 -187h-26l-285 101l-287 -98h-28z" />
    <glyph glyph-name="Edieresis" unicode="&#xcb;" horiz-adv-x="1174" 
d="M324 1425v-1386h69v1386h-69zM20 1454l0.00585938 10.0029h1065l25 -311h-16l-72 244c-56.667 4 -120.334 6 -191.001 6c-128.667 0 -232.334 -9 -311.001 -27c-13.333 -108 -20 -231.333 -20 -370c0 -86.667 2.66699 -157 8 -211c105.333 -6 172.333 -9 201 -9
c75.333 0 153 4.33301 233 13l45 170h17v-426h-17l-47 180c-58 6.66699 -122 10 -192 10c-88 0 -168 -4 -240 -12c-8.66699 -77.333 -11.334 -153 -8.00098 -227c1.33301 -94.667 3 -172.834 5 -234.501s5.66699 -114.834 11 -159.501c81.333 -24.667 188 -37 320 -37
c76 0 140 3 192 9l80 241h14l-22 -313h-1077v10l239 35c5.33301 27.333 10.166 69 14.499 125s8.16602 118.833 11.499 188.5s5.66602 128 6.99902 175s2 88.167 2 123.5v252c0 32 -1 77.5 -3 136.5s-5 120.167 -9 183.5s-9.66699 126.666 -17 189.999zM402.006 1669
c14.667 0 27.832 -5.49902 39.499 -16.499s17.5 -24.5 17.5 -40.5s-5.66699 -29.667 -17 -41s-24.666 -17 -39.999 -17c-17.333 0 -31.333 5.33301 -42 16s-16 24.667 -16 42s5.5 31.166 16.5 41.499s24.833 15.5 41.5 15.5zM758.004 1669
c16 0 29.501 -5.83203 40.501 -17.499s16.5 -24.834 16.5 -39.501c0 -16.667 -5.16699 -30.5 -15.5 -41.5s-24.166 -16.5 -41.499 -16.5c-16.667 0 -30.334 5.66699 -41.001 17s-16 25 -16 41c0 14 5.66699 27 17 39s24.666 18 39.999 18z" />
    <glyph glyph-name="Edieresis" unicode="&#xeb;" horiz-adv-x="1174" 
d="M324 1425v-1386h69v1386h-69zM20 1454l0.00585938 10.0029h1065l25 -311h-16l-72 244c-56.667 4 -120.334 6 -191.001 6c-128.667 0 -232.334 -9 -311.001 -27c-13.333 -108 -20 -231.333 -20 -370c0 -86.667 2.66699 -157 8 -211c105.333 -6 172.333 -9 201 -9
c75.333 0 153 4.33301 233 13l45 170h17v-426h-17l-47 180c-58 6.66699 -122 10 -192 10c-88 0 -168 -4 -240 -12c-8.66699 -77.333 -11.334 -153 -8.00098 -227c1.33301 -94.667 3 -172.834 5 -234.501s5.66699 -114.834 11 -159.501c81.333 -24.667 188 -37 320 -37
c76 0 140 3 192 9l80 241h14l-22 -313h-1077v10l239 35c5.33301 27.333 10.166 69 14.499 125s8.16602 118.833 11.499 188.5s5.66602 128 6.99902 175s2 88.167 2 123.5v252c0 32 -1 77.5 -3 136.5s-5 120.167 -9 183.5s-9.66699 126.666 -17 189.999zM402.006 1669
c14.667 0 27.832 -5.49902 39.499 -16.499s17.5 -24.5 17.5 -40.5s-5.66699 -29.667 -17 -41s-24.666 -17 -39.999 -17c-17.333 0 -31.333 5.33301 -42 16s-16 24.667 -16 42s5.5 31.166 16.5 41.499s24.833 15.5 41.5 15.5zM758.004 1669
c16 0 29.501 -5.83203 40.501 -17.499s16.5 -24.834 16.5 -39.501c0 -16.667 -5.16699 -30.5 -15.5 -41.5s-24.166 -16.5 -41.499 -16.5c-16.667 0 -30.334 5.66699 -41.001 17s-16 25 -16 41c0 14 5.66699 27 17 39s24.666 18 39.999 18z" />
    <glyph glyph-name="Igrave" unicode="&#xcc;" horiz-adv-x="788" 
d="M340 1425v-1386h70v1386h-70zM791 0l-756.001 -0.00390625v10l244 37c11.333 83.333 19.833 183.833 25.5 301.5s8.5 232.834 8.5 345.501v168c0 228.667 -10 414.334 -30 557.001l-248 35v10h756v-10l-250 -35c-7.33301 -64.667 -12.666 -123.167 -15.999 -175.5
s-6.33301 -115.666 -9 -189.999s-4 -144.166 -4 -209.499v-221c0 -40.667 1.5 -107.167 4.5 -199.5s7 -170.5 12 -234.5s9.83301 -112 14.5 -144l248 -35v-10zM163.999 1737h200l254 -181h-22z" />
    <glyph glyph-name="Igrave" unicode="&#xec;" horiz-adv-x="788" 
d="M340 1425v-1386h70v1386h-70zM791 0l-756.001 -0.00390625v10l244 37c11.333 83.333 19.833 183.833 25.5 301.5s8.5 232.834 8.5 345.501v168c0 228.667 -10 414.334 -30 557.001l-248 35v10h756v-10l-250 -35c-7.33301 -64.667 -12.666 -123.167 -15.999 -175.5
s-6.33301 -115.666 -9 -189.999s-4 -144.166 -4 -209.499v-221c0 -40.667 1.5 -107.167 4.5 -199.5s7 -170.5 12 -234.5s9.83301 -112 14.5 -144l248 -35v-10zM163.999 1737h200l254 -181h-22z" />
    <glyph glyph-name="Iacute" unicode="&#xcd;" horiz-adv-x="788" 
d="M340 1425v-1386h70v1386h-70zM791 0l-756.001 -0.00390625v10l244 37c11.333 83.333 19.833 183.833 25.5 301.5s8.5 232.834 8.5 345.501v168c0 228.667 -10 414.334 -30 557.001l-248 35v10h756v-10l-250 -35c-7.33301 -64.667 -12.666 -123.167 -15.999 -175.5
s-6.33301 -115.666 -9 -189.999s-4 -144.166 -4 -209.499v-221c0 -40.667 1.5 -107.167 4.5 -199.5s7 -170.5 12 -234.5s9.83301 -112 14.5 -144l248 -35v-10zM437.999 1737h209l-434 -181h-25z" />
    <glyph glyph-name="Iacute" unicode="&#xed;" horiz-adv-x="788" 
d="M340 1425v-1386h70v1386h-70zM791 0l-756.001 -0.00390625v10l244 37c11.333 83.333 19.833 183.833 25.5 301.5s8.5 232.834 8.5 345.501v168c0 228.667 -10 414.334 -30 557.001l-248 35v10h756v-10l-250 -35c-7.33301 -64.667 -12.666 -123.167 -15.999 -175.5
s-6.33301 -115.666 -9 -189.999s-4 -144.166 -4 -209.499v-221c0 -40.667 1.5 -107.167 4.5 -199.5s7 -170.5 12 -234.5s9.83301 -112 14.5 -144l248 -35v-10zM437.999 1737h209l-434 -181h-25z" />
    <glyph glyph-name="Icircumflex" unicode="&#xce;" horiz-adv-x="788" 
d="M340 1425v-1386h70v1386h-70zM791 0l-756.001 -0.00390625v10l244 37c11.333 83.333 19.833 183.833 25.5 301.5s8.5 232.834 8.5 345.501v168c0 228.667 -10 414.334 -30 557.001l-248 35v10h756v-10l-250 -35c-7.33301 -64.667 -12.666 -123.167 -15.999 -175.5
s-6.33301 -115.666 -9 -189.999s-4 -144.166 -4 -209.499v-221c0 -40.667 1.5 -107.167 4.5 -199.5s7 -170.5 12 -234.5s9.83301 -112 14.5 -144l248 -35v-10zM394.999 1743l313 -187h-26l-285 101l-287 -98h-28z" />
    <glyph glyph-name="Icircumflex" unicode="&#xee;" horiz-adv-x="788" 
d="M340 1425v-1386h70v1386h-70zM791 0l-756.001 -0.00390625v10l244 37c11.333 83.333 19.833 183.833 25.5 301.5s8.5 232.834 8.5 345.501v168c0 228.667 -10 414.334 -30 557.001l-248 35v10h756v-10l-250 -35c-7.33301 -64.667 -12.666 -123.167 -15.999 -175.5
s-6.33301 -115.666 -9 -189.999s-4 -144.166 -4 -209.499v-221c0 -40.667 1.5 -107.167 4.5 -199.5s7 -170.5 12 -234.5s9.83301 -112 14.5 -144l248 -35v-10zM394.999 1743l313 -187h-26l-285 101l-287 -98h-28z" />
    <glyph glyph-name="Idieresis" unicode="&#xcf;" horiz-adv-x="788" 
d="M340 1425v-1386h70v1386h-70zM791 0l-756.001 -0.00390625v10l244 37c11.333 83.333 19.833 183.833 25.5 301.5s8.5 232.834 8.5 345.501v168c0 228.667 -10 414.334 -30 557.001l-248 35v10h756v-10l-250 -35c-7.33301 -64.667 -12.666 -123.167 -15.999 -175.5
s-6.33301 -115.666 -9 -189.999s-4 -144.166 -4 -209.499v-221c0 -40.667 1.5 -107.167 4.5 -199.5s7 -170.5 12 -234.5s9.83301 -112 14.5 -144l248 -35v-10zM208.999 1669c14.667 0 27.832 -5.49902 39.499 -16.499s17.5 -24.5 17.5 -40.5s-5.66699 -29.667 -17 -41
s-24.666 -17 -39.999 -17c-17.333 0 -31.333 5.33301 -42 16s-16 24.667 -16 42s5.5 31.166 16.5 41.499s24.833 15.5 41.5 15.5zM564.997 1669c16 0 29.501 -5.83203 40.501 -17.499s16.5 -24.834 16.5 -39.501c0 -16.667 -5.16699 -30.5 -15.5 -41.5
s-24.166 -16.5 -41.499 -16.5c-16.667 0 -30.334 5.66699 -41.001 17s-16 25 -16 41c0 14 5.66699 27 17 39s24.666 18 39.999 18z" />
    <glyph glyph-name="Idieresis" unicode="&#xef;" horiz-adv-x="788" 
d="M340 1425v-1386h70v1386h-70zM791 0l-756.001 -0.00390625v10l244 37c11.333 83.333 19.833 183.833 25.5 301.5s8.5 232.834 8.5 345.501v168c0 228.667 -10 414.334 -30 557.001l-248 35v10h756v-10l-250 -35c-7.33301 -64.667 -12.666 -123.167 -15.999 -175.5
s-6.33301 -115.666 -9 -189.999s-4 -144.166 -4 -209.499v-221c0 -40.667 1.5 -107.167 4.5 -199.5s7 -170.5 12 -234.5s9.83301 -112 14.5 -144l248 -35v-10zM208.999 1669c14.667 0 27.832 -5.49902 39.499 -16.499s17.5 -24.5 17.5 -40.5s-5.66699 -29.667 -17 -41
s-24.666 -17 -39.999 -17c-17.333 0 -31.333 5.33301 -42 16s-16 24.667 -16 42s5.5 31.166 16.5 41.499s24.833 15.5 41.5 15.5zM564.997 1669c16 0 29.501 -5.83203 40.501 -17.499s16.5 -24.834 16.5 -39.501c0 -16.667 -5.16699 -30.5 -15.5 -41.5
s-24.166 -16.5 -41.499 -16.5c-16.667 0 -30.334 5.66699 -41.001 17s-16 25 -16 41c0 14 5.66699 27 17 39s24.666 18 39.999 18z" />
    <glyph glyph-name="Eth" unicode="&#xd0;" horiz-adv-x="1772" 
d="M309 772v124.997c0 194 -8.66699 367.333 -26 520l-248 37v10h823c153.333 0 283.833 -22.167 391.5 -66.5s192.667 -102.166 255 -173.499s107 -149 134 -233s40.5 -169.333 40.5 -256c0 -105.333 -17.5 -203.166 -52.5 -293.499s-85.333 -168.666 -151 -234.999
s-143 -117.333 -232 -153s-186.833 -53.5 -293.5 -53.5h-921v10l243 35c11.333 56.667 20.333 150.5 27 281.5s10 233.833 10 308.5v57h-274v80h274zM512 691.997l0.000976562 -312.998c0 -98.667 4 -186 12 -262c42.667 -20 91 -34.667 145 -44s108 -14 162 -14
c74.667 0 148.334 14.167 221.001 42.5s138.167 70.166 196.5 125.499s105.166 125.833 140.499 211.5s53 183.834 53 294.501c0 116 -18.667 216.5 -56 301.5s-88.833 154.667 -154.5 209s-140.834 94.5 -225.501 120.5s-173.667 39 -267 39
c-75.333 0 -143.333 -8.33301 -204 -25c-6 -44.667 -11.5 -112.334 -16.5 -203.001s-7.16699 -161.334 -6.5 -212.001v-191h268v-80h-268zM700.001 1440l0.00195312 -10.002c96.667 0 183.5 -8.33301 260.5 -25s141.667 -39.334 194 -68.001s97.5 -62 135.5 -100
c39.333 -39.333 73.166 -84.666 101.499 -135.999s50.666 -108.333 66.999 -171s24.5 -129 24.5 -199c0 -155.333 -33.333 -285.666 -100 -390.999s-148.667 -182.5 -246 -231.5s-189.666 -73.5 -276.999 -73.5h-76v-10h76c145.333 0 271.166 31.833 377.499 95.5
s186.833 149.334 241.5 257.001s82 224.167 82 349.5c0 112 -19.5 211.833 -58.5 299.5s-87.833 160.5 -146.5 218.5c-126 130 -324.667 195 -596 195h-60zM408.003 691.997v733h-70v-653v-733h70v653z" />
    <glyph glyph-name="Eth" unicode="&#xf0;" horiz-adv-x="1772" 
d="M309 772v124.997c0 194 -8.66699 367.333 -26 520l-248 37v10h823c153.333 0 283.833 -22.167 391.5 -66.5s192.667 -102.166 255 -173.499s107 -149 134 -233s40.5 -169.333 40.5 -256c0 -105.333 -17.5 -203.166 -52.5 -293.499s-85.333 -168.666 -151 -234.999
s-143 -117.333 -232 -153s-186.833 -53.5 -293.5 -53.5h-921v10l243 35c11.333 56.667 20.333 150.5 27 281.5s10 233.833 10 308.5v57h-274v80h274zM512 691.997l0.000976562 -312.998c0 -98.667 4 -186 12 -262c42.667 -20 91 -34.667 145 -44s108 -14 162 -14
c74.667 0 148.334 14.167 221.001 42.5s138.167 70.166 196.5 125.499s105.166 125.833 140.499 211.5s53 183.834 53 294.501c0 116 -18.667 216.5 -56 301.5s-88.833 154.667 -154.5 209s-140.834 94.5 -225.501 120.5s-173.667 39 -267 39
c-75.333 0 -143.333 -8.33301 -204 -25c-6 -44.667 -11.5 -112.334 -16.5 -203.001s-7.16699 -161.334 -6.5 -212.001v-191h268v-80h-268zM700.001 1440l0.00195312 -10.002c96.667 0 183.5 -8.33301 260.5 -25s141.667 -39.334 194 -68.001s97.5 -62 135.5 -100
c39.333 -39.333 73.166 -84.666 101.499 -135.999s50.666 -108.333 66.999 -171s24.5 -129 24.5 -199c0 -155.333 -33.333 -285.666 -100 -390.999s-148.667 -182.5 -246 -231.5s-189.666 -73.5 -276.999 -73.5h-76v-10h76c145.333 0 271.166 31.833 377.499 95.5
s186.833 149.334 241.5 257.001s82 224.167 82 349.5c0 112 -19.5 211.833 -58.5 299.5s-87.833 160.5 -146.5 218.5c-126 130 -324.667 195 -596 195h-60zM408.003 691.997v733h-70v-653v-733h70v653z" />
    <glyph glyph-name="Ntilde" unicode="&#xd1;" horiz-adv-x="1855" 
d="M25 1454v10.001h505c33.333 -45.333 76.5 -100 129.5 -164l141.5 -165l448 -498l138.5 -150c33 -35.333 75.833 -78.333 128.5 -129c4 46 6.66699 89 8 129s2 77.667 2 113v432c0 155.333 -7.66699 283.666 -23 384.999l-243 37v10h595v-10l-243 -39
c-12.667 -93.333 -19 -212.666 -19 -357.999v-1096h-10c-102 129.333 -203 250.333 -303 363l-612 682c-90.667 96.667 -168 173.667 -232 231c-9.33301 -90.667 -14 -175.334 -14 -254.001v-633c0 -84.667 6.66699 -185.667 20 -303l254 -37v-10h-608v10l246 35
c8 48 13.667 116.333 17 205s5 167.667 5 237v490c0 58 -1 115.5 -3 172.5s-5.66699 113.5 -11 169.5l-133 98zM324 1427l1208 -1343v94l-1124 1249h-84zM438 1536l-9.99805 9.99902c37.333 61.333 90.5 108.5 159.5 141.5s133.5 49.5 193.5 49.5c42 0 110.667 -17 206 -51
c63.333 -20.667 107.5 -34.5 132.5 -41.5s51.167 -10.5 78.5 -10.5c44.667 0 82.667 6.83301 114 20.5s59 39.834 83 78.501l20 -11c-40.667 -57.333 -91.167 -102 -151.5 -134s-123.833 -48 -190.5 -48c-28.667 0 -57.5 4.33301 -86.5 13s-68.167 22 -117.5 40
c-46.667 17.333 -86.334 30.333 -119.001 39s-65.667 13 -99 13c-48 0 -88.833 -8.5 -122.5 -25.5s-63.834 -44.833 -90.501 -83.5z" />
    <glyph glyph-name="Ntilde" unicode="&#xf1;" horiz-adv-x="1855" 
d="M25 1454v10.001h505c33.333 -45.333 76.5 -100 129.5 -164l141.5 -165l448 -498l138.5 -150c33 -35.333 75.833 -78.333 128.5 -129c4 46 6.66699 89 8 129s2 77.667 2 113v432c0 155.333 -7.66699 283.666 -23 384.999l-243 37v10h595v-10l-243 -39
c-12.667 -93.333 -19 -212.666 -19 -357.999v-1096h-10c-102 129.333 -203 250.333 -303 363l-612 682c-90.667 96.667 -168 173.667 -232 231c-9.33301 -90.667 -14 -175.334 -14 -254.001v-633c0 -84.667 6.66699 -185.667 20 -303l254 -37v-10h-608v10l246 35
c8 48 13.667 116.333 17 205s5 167.667 5 237v490c0 58 -1 115.5 -3 172.5s-5.66699 113.5 -11 169.5l-133 98zM324 1427l1208 -1343v94l-1124 1249h-84zM438 1536l-9.99805 9.99902c37.333 61.333 90.5 108.5 159.5 141.5s133.5 49.5 193.5 49.5c42 0 110.667 -17 206 -51
c63.333 -20.667 107.5 -34.5 132.5 -41.5s51.167 -10.5 78.5 -10.5c44.667 0 82.667 6.83301 114 20.5s59 39.834 83 78.501l20 -11c-40.667 -57.333 -91.167 -102 -151.5 -134s-123.833 -48 -190.5 -48c-28.667 0 -57.5 4.33301 -86.5 13s-68.167 22 -117.5 40
c-46.667 17.333 -86.334 30.333 -119.001 39s-65.667 13 -99 13c-48 0 -88.833 -8.5 -122.5 -25.5s-63.834 -44.833 -90.501 -83.5z" />
    <glyph glyph-name="Ograve" unicode="&#xd2;" horiz-adv-x="1772" 
d="M893 1485c142 0 264.999 -23.6738 368.999 -71.0068s189.167 -109.333 255.5 -186s115 -158.167 146 -244.5s46.5 -169.166 46.5 -248.499c0 -90.667 -17.5 -179.667 -52.5 -267s-86.667 -167.166 -155 -239.499s-153 -130.166 -254 -173.499s-213.5 -65 -337.5 -65
c-179.333 0 -331.333 38.833 -456 116.5s-216.667 173.834 -276 288.501s-89 226.667 -89 336c0 96.667 18.833 190.334 56.5 281.001s92.334 171.834 164.001 243.501s157.5 127.834 257.5 168.501s208.333 61 325 61zM898.999 1414.99
c-103.333 0 -198.832 -26.999 -286.499 -80.999s-157.334 -132 -209.001 -234s-77.5 -222.333 -77.5 -361c0 -149.333 28.167 -275.5 84.5 -378.5s128.666 -179.333 216.999 -229s179.5 -74.5 273.5 -74.5c76.667 0 149.334 14.667 218.001 44s130 72.166 184 128.499
s96.167 125.666 126.5 207.999s45.5 174.166 45.5 275.499c0 138.667 -16 249.334 -48 332.001s-79 155 -141 217c-52.667 52.667 -112.5 91.334 -179.5 116.001s-136.167 37 -207.5 37zM950 1455.99l-0.00195312 -10c64.667 -4.66699 129.667 -19.834 195 -45.501
s126.5 -65.667 183.5 -120s102.833 -127.5 137.5 -219.5s52 -202.667 52 -332c0 -84.667 -10.167 -165.667 -30.5 -243s-53 -148.666 -98 -213.999s-103.833 -119.333 -176.5 -162s-159.667 -69 -261 -79v-11c85.333 4 166.333 22.333 243 55s144.834 79.5 204.501 140.5
s106.834 135.5 141.501 223.5s52 186 52 294c0 118 -18 222.167 -54 312.5s-85 165.5 -147 225.5s-130.833 105.333 -206.5 136s-154.167 47 -235.5 49zM851.998 1445.99v10.001c-93.333 -0.666992 -184.333 -20.667 -273 -60s-166.667 -92.666 -234 -159.999
s-119.833 -144 -157.5 -230s-56.5 -176.333 -56.5 -271c0 -116 31.5 -228.833 94.5 -338.5s150.167 -198.834 261.5 -267.501s233.666 -105 366.999 -109v11c-129.333 11.333 -243.666 51.666 -342.999 120.999s-174.833 155.333 -226.5 258s-77.5 209 -77.5 319
c0 90.667 15 177.667 45 261s73.333 157.666 130 222.999s125.167 118.333 205.5 159s168.5 65.334 264.5 74.001zM655.998 1737h200l254 -181h-22z" />
    <glyph glyph-name="Ograve" unicode="&#xf2;" horiz-adv-x="1772" 
d="M893 1485c142 0 264.999 -23.6738 368.999 -71.0068s189.167 -109.333 255.5 -186s115 -158.167 146 -244.5s46.5 -169.166 46.5 -248.499c0 -90.667 -17.5 -179.667 -52.5 -267s-86.667 -167.166 -155 -239.499s-153 -130.166 -254 -173.499s-213.5 -65 -337.5 -65
c-179.333 0 -331.333 38.833 -456 116.5s-216.667 173.834 -276 288.501s-89 226.667 -89 336c0 96.667 18.833 190.334 56.5 281.001s92.334 171.834 164.001 243.501s157.5 127.834 257.5 168.501s208.333 61 325 61zM898.999 1414.99
c-103.333 0 -198.832 -26.999 -286.499 -80.999s-157.334 -132 -209.001 -234s-77.5 -222.333 -77.5 -361c0 -149.333 28.167 -275.5 84.5 -378.5s128.666 -179.333 216.999 -229s179.5 -74.5 273.5 -74.5c76.667 0 149.334 14.667 218.001 44s130 72.166 184 128.499
s96.167 125.666 126.5 207.999s45.5 174.166 45.5 275.499c0 138.667 -16 249.334 -48 332.001s-79 155 -141 217c-52.667 52.667 -112.5 91.334 -179.5 116.001s-136.167 37 -207.5 37zM950 1455.99l-0.00195312 -10c64.667 -4.66699 129.667 -19.834 195 -45.501
s126.5 -65.667 183.5 -120s102.833 -127.5 137.5 -219.5s52 -202.667 52 -332c0 -84.667 -10.167 -165.667 -30.5 -243s-53 -148.666 -98 -213.999s-103.833 -119.333 -176.5 -162s-159.667 -69 -261 -79v-11c85.333 4 166.333 22.333 243 55s144.834 79.5 204.501 140.5
s106.834 135.5 141.501 223.5s52 186 52 294c0 118 -18 222.167 -54 312.5s-85 165.5 -147 225.5s-130.833 105.333 -206.5 136s-154.167 47 -235.5 49zM851.998 1445.99v10.001c-93.333 -0.666992 -184.333 -20.667 -273 -60s-166.667 -92.666 -234 -159.999
s-119.833 -144 -157.5 -230s-56.5 -176.333 -56.5 -271c0 -116 31.5 -228.833 94.5 -338.5s150.167 -198.834 261.5 -267.501s233.666 -105 366.999 -109v11c-129.333 11.333 -243.666 51.666 -342.999 120.999s-174.833 155.333 -226.5 258s-77.5 209 -77.5 319
c0 90.667 15 177.667 45 261s73.333 157.666 130 222.999s125.167 118.333 205.5 159s168.5 65.334 264.5 74.001zM655.998 1737h200l254 -181h-22z" />
    <glyph glyph-name="Oacute" unicode="&#xd3;" horiz-adv-x="1772" 
d="M893 1485c142 0 264.999 -23.6738 368.999 -71.0068s189.167 -109.333 255.5 -186s115 -158.167 146 -244.5s46.5 -169.166 46.5 -248.499c0 -90.667 -17.5 -179.667 -52.5 -267s-86.667 -167.166 -155 -239.499s-153 -130.166 -254 -173.499s-213.5 -65 -337.5 -65
c-179.333 0 -331.333 38.833 -456 116.5s-216.667 173.834 -276 288.501s-89 226.667 -89 336c0 96.667 18.833 190.334 56.5 281.001s92.334 171.834 164.001 243.501s157.5 127.834 257.5 168.501s208.333 61 325 61zM898.999 1414.99
c-103.333 0 -198.832 -26.999 -286.499 -80.999s-157.334 -132 -209.001 -234s-77.5 -222.333 -77.5 -361c0 -149.333 28.167 -275.5 84.5 -378.5s128.666 -179.333 216.999 -229s179.5 -74.5 273.5 -74.5c76.667 0 149.334 14.667 218.001 44s130 72.166 184 128.499
s96.167 125.666 126.5 207.999s45.5 174.166 45.5 275.499c0 138.667 -16 249.334 -48 332.001s-79 155 -141 217c-52.667 52.667 -112.5 91.334 -179.5 116.001s-136.167 37 -207.5 37zM950 1455.99l-0.00195312 -10c64.667 -4.66699 129.667 -19.834 195 -45.501
s126.5 -65.667 183.5 -120s102.833 -127.5 137.5 -219.5s52 -202.667 52 -332c0 -84.667 -10.167 -165.667 -30.5 -243s-53 -148.666 -98 -213.999s-103.833 -119.333 -176.5 -162s-159.667 -69 -261 -79v-11c85.333 4 166.333 22.333 243 55s144.834 79.5 204.501 140.5
s106.834 135.5 141.501 223.5s52 186 52 294c0 118 -18 222.167 -54 312.5s-85 165.5 -147 225.5s-130.833 105.333 -206.5 136s-154.167 47 -235.5 49zM851.998 1445.99v10.001c-93.333 -0.666992 -184.333 -20.667 -273 -60s-166.667 -92.666 -234 -159.999
s-119.833 -144 -157.5 -230s-56.5 -176.333 -56.5 -271c0 -116 31.5 -228.833 94.5 -338.5s150.167 -198.834 261.5 -267.501s233.666 -105 366.999 -109v11c-129.333 11.333 -243.666 51.666 -342.999 120.999s-174.833 155.333 -226.5 258s-77.5 209 -77.5 319
c0 90.667 15 177.667 45 261s73.333 157.666 130 222.999s125.167 118.333 205.5 159s168.5 65.334 264.5 74.001zM929.998 1737h209l-434 -181h-25z" />
    <glyph glyph-name="Oacute" unicode="&#xf3;" horiz-adv-x="1772" 
d="M893 1485c142 0 264.999 -23.6738 368.999 -71.0068s189.167 -109.333 255.5 -186s115 -158.167 146 -244.5s46.5 -169.166 46.5 -248.499c0 -90.667 -17.5 -179.667 -52.5 -267s-86.667 -167.166 -155 -239.499s-153 -130.166 -254 -173.499s-213.5 -65 -337.5 -65
c-179.333 0 -331.333 38.833 -456 116.5s-216.667 173.834 -276 288.501s-89 226.667 -89 336c0 96.667 18.833 190.334 56.5 281.001s92.334 171.834 164.001 243.501s157.5 127.834 257.5 168.501s208.333 61 325 61zM898.999 1414.99
c-103.333 0 -198.832 -26.999 -286.499 -80.999s-157.334 -132 -209.001 -234s-77.5 -222.333 -77.5 -361c0 -149.333 28.167 -275.5 84.5 -378.5s128.666 -179.333 216.999 -229s179.5 -74.5 273.5 -74.5c76.667 0 149.334 14.667 218.001 44s130 72.166 184 128.499
s96.167 125.666 126.5 207.999s45.5 174.166 45.5 275.499c0 138.667 -16 249.334 -48 332.001s-79 155 -141 217c-52.667 52.667 -112.5 91.334 -179.5 116.001s-136.167 37 -207.5 37zM950 1455.99l-0.00195312 -10c64.667 -4.66699 129.667 -19.834 195 -45.501
s126.5 -65.667 183.5 -120s102.833 -127.5 137.5 -219.5s52 -202.667 52 -332c0 -84.667 -10.167 -165.667 -30.5 -243s-53 -148.666 -98 -213.999s-103.833 -119.333 -176.5 -162s-159.667 -69 -261 -79v-11c85.333 4 166.333 22.333 243 55s144.834 79.5 204.501 140.5
s106.834 135.5 141.501 223.5s52 186 52 294c0 118 -18 222.167 -54 312.5s-85 165.5 -147 225.5s-130.833 105.333 -206.5 136s-154.167 47 -235.5 49zM851.998 1445.99v10.001c-93.333 -0.666992 -184.333 -20.667 -273 -60s-166.667 -92.666 -234 -159.999
s-119.833 -144 -157.5 -230s-56.5 -176.333 -56.5 -271c0 -116 31.5 -228.833 94.5 -338.5s150.167 -198.834 261.5 -267.501s233.666 -105 366.999 -109v11c-129.333 11.333 -243.666 51.666 -342.999 120.999s-174.833 155.333 -226.5 258s-77.5 209 -77.5 319
c0 90.667 15 177.667 45 261s73.333 157.666 130 222.999s125.167 118.333 205.5 159s168.5 65.334 264.5 74.001zM929.998 1737h209l-434 -181h-25z" />
    <glyph glyph-name="Ocircumflex" unicode="&#xd4;" horiz-adv-x="1772" 
d="M893 1485c142 0 264.999 -23.6738 368.999 -71.0068s189.167 -109.333 255.5 -186s115 -158.167 146 -244.5s46.5 -169.166 46.5 -248.499c0 -90.667 -17.5 -179.667 -52.5 -267s-86.667 -167.166 -155 -239.499s-153 -130.166 -254 -173.499s-213.5 -65 -337.5 -65
c-179.333 0 -331.333 38.833 -456 116.5s-216.667 173.834 -276 288.501s-89 226.667 -89 336c0 96.667 18.833 190.334 56.5 281.001s92.334 171.834 164.001 243.501s157.5 127.834 257.5 168.501s208.333 61 325 61zM898.999 1414.99
c-103.333 0 -198.832 -26.999 -286.499 -80.999s-157.334 -132 -209.001 -234s-77.5 -222.333 -77.5 -361c0 -149.333 28.167 -275.5 84.5 -378.5s128.666 -179.333 216.999 -229s179.5 -74.5 273.5 -74.5c76.667 0 149.334 14.667 218.001 44s130 72.166 184 128.499
s96.167 125.666 126.5 207.999s45.5 174.166 45.5 275.499c0 138.667 -16 249.334 -48 332.001s-79 155 -141 217c-52.667 52.667 -112.5 91.334 -179.5 116.001s-136.167 37 -207.5 37zM950 1455.99l-0.00195312 -10c64.667 -4.66699 129.667 -19.834 195 -45.501
s126.5 -65.667 183.5 -120s102.833 -127.5 137.5 -219.5s52 -202.667 52 -332c0 -84.667 -10.167 -165.667 -30.5 -243s-53 -148.666 -98 -213.999s-103.833 -119.333 -176.5 -162s-159.667 -69 -261 -79v-11c85.333 4 166.333 22.333 243 55s144.834 79.5 204.501 140.5
s106.834 135.5 141.501 223.5s52 186 52 294c0 118 -18 222.167 -54 312.5s-85 165.5 -147 225.5s-130.833 105.333 -206.5 136s-154.167 47 -235.5 49zM851.998 1445.99v10.001c-93.333 -0.666992 -184.333 -20.667 -273 -60s-166.667 -92.666 -234 -159.999
s-119.833 -144 -157.5 -230s-56.5 -176.333 -56.5 -271c0 -116 31.5 -228.833 94.5 -338.5s150.167 -198.834 261.5 -267.501s233.666 -105 366.999 -109v11c-129.333 11.333 -243.666 51.666 -342.999 120.999s-174.833 155.333 -226.5 258s-77.5 209 -77.5 319
c0 90.667 15 177.667 45 261s73.333 157.666 130 222.999s125.167 118.333 205.5 159s168.5 65.334 264.5 74.001zM886.998 1743l313 -187h-26l-285 101l-287 -98h-28z" />
    <glyph glyph-name="Ocircumflex" unicode="&#xf4;" horiz-adv-x="1772" 
d="M893 1485c142 0 264.999 -23.6738 368.999 -71.0068s189.167 -109.333 255.5 -186s115 -158.167 146 -244.5s46.5 -169.166 46.5 -248.499c0 -90.667 -17.5 -179.667 -52.5 -267s-86.667 -167.166 -155 -239.499s-153 -130.166 -254 -173.499s-213.5 -65 -337.5 -65
c-179.333 0 -331.333 38.833 -456 116.5s-216.667 173.834 -276 288.501s-89 226.667 -89 336c0 96.667 18.833 190.334 56.5 281.001s92.334 171.834 164.001 243.501s157.5 127.834 257.5 168.501s208.333 61 325 61zM898.999 1414.99
c-103.333 0 -198.832 -26.999 -286.499 -80.999s-157.334 -132 -209.001 -234s-77.5 -222.333 -77.5 -361c0 -149.333 28.167 -275.5 84.5 -378.5s128.666 -179.333 216.999 -229s179.5 -74.5 273.5 -74.5c76.667 0 149.334 14.667 218.001 44s130 72.166 184 128.499
s96.167 125.666 126.5 207.999s45.5 174.166 45.5 275.499c0 138.667 -16 249.334 -48 332.001s-79 155 -141 217c-52.667 52.667 -112.5 91.334 -179.5 116.001s-136.167 37 -207.5 37zM950 1455.99l-0.00195312 -10c64.667 -4.66699 129.667 -19.834 195 -45.501
s126.5 -65.667 183.5 -120s102.833 -127.5 137.5 -219.5s52 -202.667 52 -332c0 -84.667 -10.167 -165.667 -30.5 -243s-53 -148.666 -98 -213.999s-103.833 -119.333 -176.5 -162s-159.667 -69 -261 -79v-11c85.333 4 166.333 22.333 243 55s144.834 79.5 204.501 140.5
s106.834 135.5 141.501 223.5s52 186 52 294c0 118 -18 222.167 -54 312.5s-85 165.5 -147 225.5s-130.833 105.333 -206.5 136s-154.167 47 -235.5 49zM851.998 1445.99v10.001c-93.333 -0.666992 -184.333 -20.667 -273 -60s-166.667 -92.666 -234 -159.999
s-119.833 -144 -157.5 -230s-56.5 -176.333 -56.5 -271c0 -116 31.5 -228.833 94.5 -338.5s150.167 -198.834 261.5 -267.501s233.666 -105 366.999 -109v11c-129.333 11.333 -243.666 51.666 -342.999 120.999s-174.833 155.333 -226.5 258s-77.5 209 -77.5 319
c0 90.667 15 177.667 45 261s73.333 157.666 130 222.999s125.167 118.333 205.5 159s168.5 65.334 264.5 74.001zM886.998 1743l313 -187h-26l-285 101l-287 -98h-28z" />
    <glyph glyph-name="Otilde" unicode="&#xd5;" horiz-adv-x="1772" 
d="M893 1485c142 0 264.999 -23.6738 368.999 -71.0068s189.167 -109.333 255.5 -186s115 -158.167 146 -244.5s46.5 -169.166 46.5 -248.499c0 -90.667 -17.5 -179.667 -52.5 -267s-86.667 -167.166 -155 -239.499s-153 -130.166 -254 -173.499s-213.5 -65 -337.5 -65
c-179.333 0 -331.333 38.833 -456 116.5s-216.667 173.834 -276 288.501s-89 226.667 -89 336c0 96.667 18.833 190.334 56.5 281.001s92.334 171.834 164.001 243.501s157.5 127.834 257.5 168.501s208.333 61 325 61zM898.999 1414.99
c-103.333 0 -198.832 -26.999 -286.499 -80.999s-157.334 -132 -209.001 -234s-77.5 -222.333 -77.5 -361c0 -149.333 28.167 -275.5 84.5 -378.5s128.666 -179.333 216.999 -229s179.5 -74.5 273.5 -74.5c76.667 0 149.334 14.667 218.001 44s130 72.166 184 128.499
s96.167 125.666 126.5 207.999s45.5 174.166 45.5 275.499c0 138.667 -16 249.334 -48 332.001s-79 155 -141 217c-52.667 52.667 -112.5 91.334 -179.5 116.001s-136.167 37 -207.5 37zM950 1455.99l-0.00195312 -10c64.667 -4.66699 129.667 -19.834 195 -45.501
s126.5 -65.667 183.5 -120s102.833 -127.5 137.5 -219.5s52 -202.667 52 -332c0 -84.667 -10.167 -165.667 -30.5 -243s-53 -148.666 -98 -213.999s-103.833 -119.333 -176.5 -162s-159.667 -69 -261 -79v-11c85.333 4 166.333 22.333 243 55s144.834 79.5 204.501 140.5
s106.834 135.5 141.501 223.5s52 186 52 294c0 118 -18 222.167 -54 312.5s-85 165.5 -147 225.5s-130.833 105.333 -206.5 136s-154.167 47 -235.5 49zM851.998 1445.99v10.001c-93.333 -0.666992 -184.333 -20.667 -273 -60s-166.667 -92.666 -234 -159.999
s-119.833 -144 -157.5 -230s-56.5 -176.333 -56.5 -271c0 -116 31.5 -228.833 94.5 -338.5s150.167 -198.834 261.5 -267.501s233.666 -105 366.999 -109v11c-129.333 11.333 -243.666 51.666 -342.999 120.999s-174.833 155.333 -226.5 258s-77.5 209 -77.5 319
c0 90.667 15 177.667 45 261s73.333 157.666 130 222.999s125.167 118.333 205.5 159s168.5 65.334 264.5 74.001zM394.998 1536l-9.99805 9.99902c37.333 61.333 90.5 108.5 159.5 141.5s133.5 49.5 193.5 49.5c42 0 110.667 -17 206 -51
c63.333 -20.667 107.5 -34.5 132.5 -41.5s51.167 -10.5 78.5 -10.5c44.667 0 82.667 6.83301 114 20.5s59 39.834 83 78.501l20 -11c-40.667 -57.333 -91.167 -102 -151.5 -134s-123.833 -48 -190.5 -48c-28.667 0 -57.5 4.33301 -86.5 13s-68.167 22 -117.5 40
c-46.667 17.333 -86.334 30.333 -119.001 39s-65.667 13 -99 13c-48 0 -88.833 -8.5 -122.5 -25.5s-63.834 -44.833 -90.501 -83.5z" />
    <glyph glyph-name="Otilde" unicode="&#xf5;" horiz-adv-x="1772" 
d="M893 1485c142 0 264.999 -23.6738 368.999 -71.0068s189.167 -109.333 255.5 -186s115 -158.167 146 -244.5s46.5 -169.166 46.5 -248.499c0 -90.667 -17.5 -179.667 -52.5 -267s-86.667 -167.166 -155 -239.499s-153 -130.166 -254 -173.499s-213.5 -65 -337.5 -65
c-179.333 0 -331.333 38.833 -456 116.5s-216.667 173.834 -276 288.501s-89 226.667 -89 336c0 96.667 18.833 190.334 56.5 281.001s92.334 171.834 164.001 243.501s157.5 127.834 257.5 168.501s208.333 61 325 61zM898.999 1414.99
c-103.333 0 -198.832 -26.999 -286.499 -80.999s-157.334 -132 -209.001 -234s-77.5 -222.333 -77.5 -361c0 -149.333 28.167 -275.5 84.5 -378.5s128.666 -179.333 216.999 -229s179.5 -74.5 273.5 -74.5c76.667 0 149.334 14.667 218.001 44s130 72.166 184 128.499
s96.167 125.666 126.5 207.999s45.5 174.166 45.5 275.499c0 138.667 -16 249.334 -48 332.001s-79 155 -141 217c-52.667 52.667 -112.5 91.334 -179.5 116.001s-136.167 37 -207.5 37zM950 1455.99l-0.00195312 -10c64.667 -4.66699 129.667 -19.834 195 -45.501
s126.5 -65.667 183.5 -120s102.833 -127.5 137.5 -219.5s52 -202.667 52 -332c0 -84.667 -10.167 -165.667 -30.5 -243s-53 -148.666 -98 -213.999s-103.833 -119.333 -176.5 -162s-159.667 -69 -261 -79v-11c85.333 4 166.333 22.333 243 55s144.834 79.5 204.501 140.5
s106.834 135.5 141.501 223.5s52 186 52 294c0 118 -18 222.167 -54 312.5s-85 165.5 -147 225.5s-130.833 105.333 -206.5 136s-154.167 47 -235.5 49zM851.998 1445.99v10.001c-93.333 -0.666992 -184.333 -20.667 -273 -60s-166.667 -92.666 -234 -159.999
s-119.833 -144 -157.5 -230s-56.5 -176.333 -56.5 -271c0 -116 31.5 -228.833 94.5 -338.5s150.167 -198.834 261.5 -267.501s233.666 -105 366.999 -109v11c-129.333 11.333 -243.666 51.666 -342.999 120.999s-174.833 155.333 -226.5 258s-77.5 209 -77.5 319
c0 90.667 15 177.667 45 261s73.333 157.666 130 222.999s125.167 118.333 205.5 159s168.5 65.334 264.5 74.001zM394.998 1536l-9.99805 9.99902c37.333 61.333 90.5 108.5 159.5 141.5s133.5 49.5 193.5 49.5c42 0 110.667 -17 206 -51
c63.333 -20.667 107.5 -34.5 132.5 -41.5s51.167 -10.5 78.5 -10.5c44.667 0 82.667 6.83301 114 20.5s59 39.834 83 78.501l20 -11c-40.667 -57.333 -91.167 -102 -151.5 -134s-123.833 -48 -190.5 -48c-28.667 0 -57.5 4.33301 -86.5 13s-68.167 22 -117.5 40
c-46.667 17.333 -86.334 30.333 -119.001 39s-65.667 13 -99 13c-48 0 -88.833 -8.5 -122.5 -25.5s-63.834 -44.833 -90.501 -83.5z" />
    <glyph glyph-name="Odieresis" unicode="&#xd6;" horiz-adv-x="1772" 
d="M893 1485c142 0 264.999 -23.6738 368.999 -71.0068s189.167 -109.333 255.5 -186s115 -158.167 146 -244.5s46.5 -169.166 46.5 -248.499c0 -90.667 -17.5 -179.667 -52.5 -267s-86.667 -167.166 -155 -239.499s-153 -130.166 -254 -173.499s-213.5 -65 -337.5 -65
c-179.333 0 -331.333 38.833 -456 116.5s-216.667 173.834 -276 288.501s-89 226.667 -89 336c0 96.667 18.833 190.334 56.5 281.001s92.334 171.834 164.001 243.501s157.5 127.834 257.5 168.501s208.333 61 325 61zM898.999 1414.99
c-103.333 0 -198.832 -26.999 -286.499 -80.999s-157.334 -132 -209.001 -234s-77.5 -222.333 -77.5 -361c0 -149.333 28.167 -275.5 84.5 -378.5s128.666 -179.333 216.999 -229s179.5 -74.5 273.5 -74.5c76.667 0 149.334 14.667 218.001 44s130 72.166 184 128.499
s96.167 125.666 126.5 207.999s45.5 174.166 45.5 275.499c0 138.667 -16 249.334 -48 332.001s-79 155 -141 217c-52.667 52.667 -112.5 91.334 -179.5 116.001s-136.167 37 -207.5 37zM950 1455.99l-0.00195312 -10c64.667 -4.66699 129.667 -19.834 195 -45.501
s126.5 -65.667 183.5 -120s102.833 -127.5 137.5 -219.5s52 -202.667 52 -332c0 -84.667 -10.167 -165.667 -30.5 -243s-53 -148.666 -98 -213.999s-103.833 -119.333 -176.5 -162s-159.667 -69 -261 -79v-11c85.333 4 166.333 22.333 243 55s144.834 79.5 204.501 140.5
s106.834 135.5 141.501 223.5s52 186 52 294c0 118 -18 222.167 -54 312.5s-85 165.5 -147 225.5s-130.833 105.333 -206.5 136s-154.167 47 -235.5 49zM851.998 1445.99v10.001c-93.333 -0.666992 -184.333 -20.667 -273 -60s-166.667 -92.666 -234 -159.999
s-119.833 -144 -157.5 -230s-56.5 -176.333 -56.5 -271c0 -116 31.5 -228.833 94.5 -338.5s150.167 -198.834 261.5 -267.501s233.666 -105 366.999 -109v11c-129.333 11.333 -243.666 51.666 -342.999 120.999s-174.833 155.333 -226.5 258s-77.5 209 -77.5 319
c0 90.667 15 177.667 45 261s73.333 157.666 130 222.999s125.167 118.333 205.5 159s168.5 65.334 264.5 74.001zM700.998 1669c14.667 0 27.832 -5.49902 39.499 -16.499s17.5 -24.5 17.5 -40.5s-5.66699 -29.667 -17 -41s-24.666 -17 -39.999 -17
c-17.333 0 -31.333 5.33301 -42 16s-16 24.667 -16 42s5.5 31.166 16.5 41.499s24.833 15.5 41.5 15.5zM1057 1669c16 0 29.501 -5.83203 40.501 -17.499s16.5 -24.834 16.5 -39.501c0 -16.667 -5.16699 -30.5 -15.5 -41.5s-24.166 -16.5 -41.499 -16.5
c-16.667 0 -30.334 5.66699 -41.001 17s-16 25 -16 41c0 14 5.66699 27 17 39s24.666 18 39.999 18z" />
    <glyph glyph-name="Odieresis" unicode="&#xf6;" horiz-adv-x="1772" 
d="M893 1485c142 0 264.999 -23.6738 368.999 -71.0068s189.167 -109.333 255.5 -186s115 -158.167 146 -244.5s46.5 -169.166 46.5 -248.499c0 -90.667 -17.5 -179.667 -52.5 -267s-86.667 -167.166 -155 -239.499s-153 -130.166 -254 -173.499s-213.5 -65 -337.5 -65
c-179.333 0 -331.333 38.833 -456 116.5s-216.667 173.834 -276 288.501s-89 226.667 -89 336c0 96.667 18.833 190.334 56.5 281.001s92.334 171.834 164.001 243.501s157.5 127.834 257.5 168.501s208.333 61 325 61zM898.999 1414.99
c-103.333 0 -198.832 -26.999 -286.499 -80.999s-157.334 -132 -209.001 -234s-77.5 -222.333 -77.5 -361c0 -149.333 28.167 -275.5 84.5 -378.5s128.666 -179.333 216.999 -229s179.5 -74.5 273.5 -74.5c76.667 0 149.334 14.667 218.001 44s130 72.166 184 128.499
s96.167 125.666 126.5 207.999s45.5 174.166 45.5 275.499c0 138.667 -16 249.334 -48 332.001s-79 155 -141 217c-52.667 52.667 -112.5 91.334 -179.5 116.001s-136.167 37 -207.5 37zM950 1455.99l-0.00195312 -10c64.667 -4.66699 129.667 -19.834 195 -45.501
s126.5 -65.667 183.5 -120s102.833 -127.5 137.5 -219.5s52 -202.667 52 -332c0 -84.667 -10.167 -165.667 -30.5 -243s-53 -148.666 -98 -213.999s-103.833 -119.333 -176.5 -162s-159.667 -69 -261 -79v-11c85.333 4 166.333 22.333 243 55s144.834 79.5 204.501 140.5
s106.834 135.5 141.501 223.5s52 186 52 294c0 118 -18 222.167 -54 312.5s-85 165.5 -147 225.5s-130.833 105.333 -206.5 136s-154.167 47 -235.5 49zM851.998 1445.99v10.001c-93.333 -0.666992 -184.333 -20.667 -273 -60s-166.667 -92.666 -234 -159.999
s-119.833 -144 -157.5 -230s-56.5 -176.333 -56.5 -271c0 -116 31.5 -228.833 94.5 -338.5s150.167 -198.834 261.5 -267.501s233.666 -105 366.999 -109v11c-129.333 11.333 -243.666 51.666 -342.999 120.999s-174.833 155.333 -226.5 258s-77.5 209 -77.5 319
c0 90.667 15 177.667 45 261s73.333 157.666 130 222.999s125.167 118.333 205.5 159s168.5 65.334 264.5 74.001zM700.998 1669c14.667 0 27.832 -5.49902 39.499 -16.499s17.5 -24.5 17.5 -40.5s-5.66699 -29.667 -17 -41s-24.666 -17 -39.999 -17
c-17.333 0 -31.333 5.33301 -42 16s-16 24.667 -16 42s5.5 31.166 16.5 41.499s24.833 15.5 41.5 15.5zM1057 1669c16 0 29.501 -5.83203 40.501 -17.499s16.5 -24.834 16.5 -39.501c0 -16.667 -5.16699 -30.5 -15.5 -41.5s-24.166 -16.5 -41.499 -16.5
c-16.667 0 -30.334 5.66699 -41.001 17s-16 25 -16 41c0 14 5.66699 27 17 39s24.666 18 39.999 18z" />
    <glyph glyph-name="multiply" unicode="&#xd7;" horiz-adv-x="1368" 
d="M199 1081l59 62l428 -426l424 426l61 -62l-423 -428l419 -420l-61 -63l-420 422l-426 -422l-61 63l424 420z" />
    <glyph glyph-name="Oslash" unicode="&#xd8;" horiz-adv-x="1772" 
d="M420 131l-131.004 -142.997h-82l164 182c-54 44 -101 96 -141 156s-71.333 124.833 -94 194.5s-34 139.167 -34 208.5c0 94 18.5 185.833 55.5 275.5s91 170.667 162 243s156.833 129.666 257.5 171.999s211.334 63.5 332.001 63.5c106 0 199.5 -14 280.5 -42
s148.833 -62 203.5 -102l123 142h83l-157 -183c92.667 -78.667 160.5 -168.167 203.5 -268.5s64.5 -199.166 64.5 -296.499c0 -120.667 -31.333 -238.834 -94 -354.501s-154.5 -210 -275.5 -283s-262.833 -109.5 -425.5 -109.5c-65.333 0 -129.166 6.16699 -191.499 18.5
s-119.166 29.666 -170.499 51.999s-95.666 47.166 -132.999 74.499zM962.996 1448l0.00195312 -10.0029c61.333 -2 124 -15.667 188 -41s124 -65.166 180 -119.499s101.167 -126.333 135.5 -216s51.5 -199.167 51.5 -328.5c0 -120 -20.333 -232.167 -61 -336.5
s-103 -189.166 -187 -254.499s-185.667 -102.333 -305 -111v-8c70 0 141.333 14.167 214 42.5s140.667 72 204 131s114.166 133.5 152.499 223.5s57.5 194.333 57.5 313c0 156 -31.5 287.833 -94.5 395.5s-142.833 187.834 -239.5 240.501s-195.334 79 -296.001 79z
M1350 1194l-846 -965.001c60 -58.667 124 -102.667 192 -132s140.333 -44 217 -44c58 0 119.667 11.833 185 35.5s126.5 61.5 183.5 113.5s103.833 122.667 140.5 212s55 196.333 55 321c0 102 -12 191.333 -36 268s-54.333 140.334 -91 191.001zM863.998 1446v9.99902
c-93.333 -2 -183.166 -22.5 -269.499 -61.5s-163.833 -92.5 -232.5 -160.5s-122.334 -145.167 -161.001 -231.5s-58 -176.166 -58 -269.499c0 -116.667 30.833 -229.667 92.5 -339s147.5 -198.833 257.5 -268.5s231.667 -107.5 365 -113.5v13
c-130.667 15.333 -244.667 57.5 -342 126.5s-171.166 154.5 -221.499 256.5s-75.5 208.333 -75.5 319c0 90 15.167 176.167 45.5 258.5s74.166 156.833 131.499 223.5s126 120.667 206 162s167.333 66.333 262 75zM464.998 278.998l842 960
c-48 58.667 -107.833 102.667 -179.5 132s-143.167 44 -214.5 44c-98 0 -190.833 -25.167 -278.5 -75.5s-159 -126.833 -214 -229.5s-82.5 -227.667 -82.5 -375c0 -100 11.5 -188 34.5 -264s53.833 -140 92.5 -192z" />
    <glyph glyph-name="Oslash" unicode="&#xf8;" horiz-adv-x="1772" 
d="M420 131l-131.004 -142.997h-82l164 182c-54 44 -101 96 -141 156s-71.333 124.833 -94 194.5s-34 139.167 -34 208.5c0 94 18.5 185.833 55.5 275.5s91 170.667 162 243s156.833 129.666 257.5 171.999s211.334 63.5 332.001 63.5c106 0 199.5 -14 280.5 -42
s148.833 -62 203.5 -102l123 142h83l-157 -183c92.667 -78.667 160.5 -168.167 203.5 -268.5s64.5 -199.166 64.5 -296.499c0 -120.667 -31.333 -238.834 -94 -354.501s-154.5 -210 -275.5 -283s-262.833 -109.5 -425.5 -109.5c-65.333 0 -129.166 6.16699 -191.499 18.5
s-119.166 29.666 -170.499 51.999s-95.666 47.166 -132.999 74.499zM962.996 1448l0.00195312 -10.0029c61.333 -2 124 -15.667 188 -41s124 -65.166 180 -119.499s101.167 -126.333 135.5 -216s51.5 -199.167 51.5 -328.5c0 -120 -20.333 -232.167 -61 -336.5
s-103 -189.166 -187 -254.499s-185.667 -102.333 -305 -111v-8c70 0 141.333 14.167 214 42.5s140.667 72 204 131s114.166 133.5 152.499 223.5s57.5 194.333 57.5 313c0 156 -31.5 287.833 -94.5 395.5s-142.833 187.834 -239.5 240.501s-195.334 79 -296.001 79z
M1350 1194l-846 -965.001c60 -58.667 124 -102.667 192 -132s140.333 -44 217 -44c58 0 119.667 11.833 185 35.5s126.5 61.5 183.5 113.5s103.833 122.667 140.5 212s55 196.333 55 321c0 102 -12 191.333 -36 268s-54.333 140.334 -91 191.001zM863.998 1446v9.99902
c-93.333 -2 -183.166 -22.5 -269.499 -61.5s-163.833 -92.5 -232.5 -160.5s-122.334 -145.167 -161.001 -231.5s-58 -176.166 -58 -269.499c0 -116.667 30.833 -229.667 92.5 -339s147.5 -198.833 257.5 -268.5s231.667 -107.5 365 -113.5v13
c-130.667 15.333 -244.667 57.5 -342 126.5s-171.166 154.5 -221.499 256.5s-75.5 208.333 -75.5 319c0 90 15.167 176.167 45.5 258.5s74.166 156.833 131.499 223.5s126 120.667 206 162s167.333 66.333 262 75zM464.998 278.998l842 960
c-48 58.667 -107.833 102.667 -179.5 132s-143.167 44 -214.5 44c-98 0 -190.833 -25.167 -278.5 -75.5s-159 -126.833 -214 -229.5s-82.5 -227.667 -82.5 -375c0 -100 11.5 -188 34.5 -264s53.833 -140 92.5 -192z" />
    <glyph glyph-name="Ugrave" unicode="&#xd9;" horiz-adv-x="1772" 
d="M971 25l-0.000976562 -13.0029c78.667 4.66699 146.667 17.5 204 38.5s104.833 50.333 142.5 88s65.834 84.834 84.501 141.501s28 122.334 28 197.001v950h-70v-948c0 -133.333 -30.667 -238.666 -92 -315.999s-160.333 -123.333 -297 -138zM839.999 11.9971v13.001
c-94 5.33301 -176.167 24.166 -246.5 56.499s-125.333 80.333 -165 144s-59.5 141.5 -59.5 233.5v968h-70v-1003c0 -123.333 43.167 -220.833 129.5 -292.5s223.5 -111.5 411.5 -119.5zM269.999 423.998v557.002c0 124 -8 270.667 -24 440l-209 33v10h729v-10l-264 -33
c-6.66699 -46.667 -12 -102.667 -16 -168s-7.5 -135 -10.5 -209s-4.5 -133.333 -4.5 -178v-411c0 -98 19.833 -176.833 59.5 -236.5s92 -101.834 157 -126.501s136.833 -37 215.5 -37c134 0 239.167 34 315.5 102s114.5 178 114.5 330v428c0 76 -2.66699 165.833 -8 269.5
s-12 182.5 -20 236.5l-263 33v10h725v-10l-204 -33c-9.33301 -43.333 -16.5 -115.5 -21.5 -216.5s-7.5 -185.833 -7.5 -254.5v-485c0 -75.333 -9 -139.333 -27 -192s-46 -98 -84 -136c-26 -26 -53.333 -48 -82 -66s-65 -33.667 -109 -47s-92 -23 -144 -29
s-116.333 -9 -193 -9c-125.333 0 -234.333 14 -327 42s-165.5 74.667 -218.5 140s-79.5 150.666 -79.5 255.999zM655.999 1737h200l254 -181h-22z" />
    <glyph glyph-name="Ugrave" unicode="&#xf9;" horiz-adv-x="1772" 
d="M971 25l-0.000976562 -13.0029c78.667 4.66699 146.667 17.5 204 38.5s104.833 50.333 142.5 88s65.834 84.834 84.501 141.501s28 122.334 28 197.001v950h-70v-948c0 -133.333 -30.667 -238.666 -92 -315.999s-160.333 -123.333 -297 -138zM839.999 11.9971v13.001
c-94 5.33301 -176.167 24.166 -246.5 56.499s-125.333 80.333 -165 144s-59.5 141.5 -59.5 233.5v968h-70v-1003c0 -123.333 43.167 -220.833 129.5 -292.5s223.5 -111.5 411.5 -119.5zM269.999 423.998v557.002c0 124 -8 270.667 -24 440l-209 33v10h729v-10l-264 -33
c-6.66699 -46.667 -12 -102.667 -16 -168s-7.5 -135 -10.5 -209s-4.5 -133.333 -4.5 -178v-411c0 -98 19.833 -176.833 59.5 -236.5s92 -101.834 157 -126.501s136.833 -37 215.5 -37c134 0 239.167 34 315.5 102s114.5 178 114.5 330v428c0 76 -2.66699 165.833 -8 269.5
s-12 182.5 -20 236.5l-263 33v10h725v-10l-204 -33c-9.33301 -43.333 -16.5 -115.5 -21.5 -216.5s-7.5 -185.833 -7.5 -254.5v-485c0 -75.333 -9 -139.333 -27 -192s-46 -98 -84 -136c-26 -26 -53.333 -48 -82 -66s-65 -33.667 -109 -47s-92 -23 -144 -29
s-116.333 -9 -193 -9c-125.333 0 -234.333 14 -327 42s-165.5 74.667 -218.5 140s-79.5 150.666 -79.5 255.999zM655.999 1737h200l254 -181h-22z" />
    <glyph glyph-name="Uacute" unicode="&#xda;" horiz-adv-x="1772" 
d="M971 25l-0.000976562 -13.0029c78.667 4.66699 146.667 17.5 204 38.5s104.833 50.333 142.5 88s65.834 84.834 84.501 141.501s28 122.334 28 197.001v950h-70v-948c0 -133.333 -30.667 -238.666 -92 -315.999s-160.333 -123.333 -297 -138zM839.999 11.9971v13.001
c-94 5.33301 -176.167 24.166 -246.5 56.499s-125.333 80.333 -165 144s-59.5 141.5 -59.5 233.5v968h-70v-1003c0 -123.333 43.167 -220.833 129.5 -292.5s223.5 -111.5 411.5 -119.5zM269.999 423.998v557.002c0 124 -8 270.667 -24 440l-209 33v10h729v-10l-264 -33
c-6.66699 -46.667 -12 -102.667 -16 -168s-7.5 -135 -10.5 -209s-4.5 -133.333 -4.5 -178v-411c0 -98 19.833 -176.833 59.5 -236.5s92 -101.834 157 -126.501s136.833 -37 215.5 -37c134 0 239.167 34 315.5 102s114.5 178 114.5 330v428c0 76 -2.66699 165.833 -8 269.5
s-12 182.5 -20 236.5l-263 33v10h725v-10l-204 -33c-9.33301 -43.333 -16.5 -115.5 -21.5 -216.5s-7.5 -185.833 -7.5 -254.5v-485c0 -75.333 -9 -139.333 -27 -192s-46 -98 -84 -136c-26 -26 -53.333 -48 -82 -66s-65 -33.667 -109 -47s-92 -23 -144 -29
s-116.333 -9 -193 -9c-125.333 0 -234.333 14 -327 42s-165.5 74.667 -218.5 140s-79.5 150.666 -79.5 255.999zM929.999 1737h209l-434 -181h-25z" />
    <glyph glyph-name="Uacute" unicode="&#xfa;" horiz-adv-x="1772" 
d="M971 25l-0.000976562 -13.0029c78.667 4.66699 146.667 17.5 204 38.5s104.833 50.333 142.5 88s65.834 84.834 84.501 141.501s28 122.334 28 197.001v950h-70v-948c0 -133.333 -30.667 -238.666 -92 -315.999s-160.333 -123.333 -297 -138zM839.999 11.9971v13.001
c-94 5.33301 -176.167 24.166 -246.5 56.499s-125.333 80.333 -165 144s-59.5 141.5 -59.5 233.5v968h-70v-1003c0 -123.333 43.167 -220.833 129.5 -292.5s223.5 -111.5 411.5 -119.5zM269.999 423.998v557.002c0 124 -8 270.667 -24 440l-209 33v10h729v-10l-264 -33
c-6.66699 -46.667 -12 -102.667 -16 -168s-7.5 -135 -10.5 -209s-4.5 -133.333 -4.5 -178v-411c0 -98 19.833 -176.833 59.5 -236.5s92 -101.834 157 -126.501s136.833 -37 215.5 -37c134 0 239.167 34 315.5 102s114.5 178 114.5 330v428c0 76 -2.66699 165.833 -8 269.5
s-12 182.5 -20 236.5l-263 33v10h725v-10l-204 -33c-9.33301 -43.333 -16.5 -115.5 -21.5 -216.5s-7.5 -185.833 -7.5 -254.5v-485c0 -75.333 -9 -139.333 -27 -192s-46 -98 -84 -136c-26 -26 -53.333 -48 -82 -66s-65 -33.667 -109 -47s-92 -23 -144 -29
s-116.333 -9 -193 -9c-125.333 0 -234.333 14 -327 42s-165.5 74.667 -218.5 140s-79.5 150.666 -79.5 255.999zM929.999 1737h209l-434 -181h-25z" />
    <glyph glyph-name="Ucircumflex" unicode="&#xdb;" horiz-adv-x="1772" 
d="M971 25l-0.000976562 -13.0029c78.667 4.66699 146.667 17.5 204 38.5s104.833 50.333 142.5 88s65.834 84.834 84.501 141.501s28 122.334 28 197.001v950h-70v-948c0 -133.333 -30.667 -238.666 -92 -315.999s-160.333 -123.333 -297 -138zM839.999 11.9971v13.001
c-94 5.33301 -176.167 24.166 -246.5 56.499s-125.333 80.333 -165 144s-59.5 141.5 -59.5 233.5v968h-70v-1003c0 -123.333 43.167 -220.833 129.5 -292.5s223.5 -111.5 411.5 -119.5zM269.999 423.998v557.002c0 124 -8 270.667 -24 440l-209 33v10h729v-10l-264 -33
c-6.66699 -46.667 -12 -102.667 -16 -168s-7.5 -135 -10.5 -209s-4.5 -133.333 -4.5 -178v-411c0 -98 19.833 -176.833 59.5 -236.5s92 -101.834 157 -126.501s136.833 -37 215.5 -37c134 0 239.167 34 315.5 102s114.5 178 114.5 330v428c0 76 -2.66699 165.833 -8 269.5
s-12 182.5 -20 236.5l-263 33v10h725v-10l-204 -33c-9.33301 -43.333 -16.5 -115.5 -21.5 -216.5s-7.5 -185.833 -7.5 -254.5v-485c0 -75.333 -9 -139.333 -27 -192s-46 -98 -84 -136c-26 -26 -53.333 -48 -82 -66s-65 -33.667 -109 -47s-92 -23 -144 -29
s-116.333 -9 -193 -9c-125.333 0 -234.333 14 -327 42s-165.5 74.667 -218.5 140s-79.5 150.666 -79.5 255.999zM886.999 1743l313 -187h-26l-285 101l-287 -98h-28z" />
    <glyph glyph-name="Ucircumflex" unicode="&#xfb;" horiz-adv-x="1772" 
d="M971 25l-0.000976562 -13.0029c78.667 4.66699 146.667 17.5 204 38.5s104.833 50.333 142.5 88s65.834 84.834 84.501 141.501s28 122.334 28 197.001v950h-70v-948c0 -133.333 -30.667 -238.666 -92 -315.999s-160.333 -123.333 -297 -138zM839.999 11.9971v13.001
c-94 5.33301 -176.167 24.166 -246.5 56.499s-125.333 80.333 -165 144s-59.5 141.5 -59.5 233.5v968h-70v-1003c0 -123.333 43.167 -220.833 129.5 -292.5s223.5 -111.5 411.5 -119.5zM269.999 423.998v557.002c0 124 -8 270.667 -24 440l-209 33v10h729v-10l-264 -33
c-6.66699 -46.667 -12 -102.667 -16 -168s-7.5 -135 -10.5 -209s-4.5 -133.333 -4.5 -178v-411c0 -98 19.833 -176.833 59.5 -236.5s92 -101.834 157 -126.501s136.833 -37 215.5 -37c134 0 239.167 34 315.5 102s114.5 178 114.5 330v428c0 76 -2.66699 165.833 -8 269.5
s-12 182.5 -20 236.5l-263 33v10h725v-10l-204 -33c-9.33301 -43.333 -16.5 -115.5 -21.5 -216.5s-7.5 -185.833 -7.5 -254.5v-485c0 -75.333 -9 -139.333 -27 -192s-46 -98 -84 -136c-26 -26 -53.333 -48 -82 -66s-65 -33.667 -109 -47s-92 -23 -144 -29
s-116.333 -9 -193 -9c-125.333 0 -234.333 14 -327 42s-165.5 74.667 -218.5 140s-79.5 150.666 -79.5 255.999zM886.999 1743l313 -187h-26l-285 101l-287 -98h-28z" />
    <glyph glyph-name="Udieresis" unicode="&#xdc;" horiz-adv-x="1772" 
d="M971 25l-0.000976562 -13.0029c78.667 4.66699 146.667 17.5 204 38.5s104.833 50.333 142.5 88s65.834 84.834 84.501 141.501s28 122.334 28 197.001v950h-70v-948c0 -133.333 -30.667 -238.666 -92 -315.999s-160.333 -123.333 -297 -138zM839.999 11.9971v13.001
c-94 5.33301 -176.167 24.166 -246.5 56.499s-125.333 80.333 -165 144s-59.5 141.5 -59.5 233.5v968h-70v-1003c0 -123.333 43.167 -220.833 129.5 -292.5s223.5 -111.5 411.5 -119.5zM269.999 423.998v557.002c0 124 -8 270.667 -24 440l-209 33v10h729v-10l-264 -33
c-6.66699 -46.667 -12 -102.667 -16 -168s-7.5 -135 -10.5 -209s-4.5 -133.333 -4.5 -178v-411c0 -98 19.833 -176.833 59.5 -236.5s92 -101.834 157 -126.501s136.833 -37 215.5 -37c134 0 239.167 34 315.5 102s114.5 178 114.5 330v428c0 76 -2.66699 165.833 -8 269.5
s-12 182.5 -20 236.5l-263 33v10h725v-10l-204 -33c-9.33301 -43.333 -16.5 -115.5 -21.5 -216.5s-7.5 -185.833 -7.5 -254.5v-485c0 -75.333 -9 -139.333 -27 -192s-46 -98 -84 -136c-26 -26 -53.333 -48 -82 -66s-65 -33.667 -109 -47s-92 -23 -144 -29
s-116.333 -9 -193 -9c-125.333 0 -234.333 14 -327 42s-165.5 74.667 -218.5 140s-79.5 150.666 -79.5 255.999zM700.999 1669c14.667 0 27.832 -5.49902 39.499 -16.499s17.5 -24.5 17.5 -40.5s-5.66699 -29.667 -17 -41s-24.666 -17 -39.999 -17
c-17.333 0 -31.333 5.33301 -42 16s-16 24.667 -16 42s5.5 31.166 16.5 41.499s24.833 15.5 41.5 15.5zM1057 1669c16 0 29.501 -5.83203 40.501 -17.499s16.5 -24.834 16.5 -39.501c0 -16.667 -5.16699 -30.5 -15.5 -41.5s-24.166 -16.5 -41.499 -16.5
c-16.667 0 -30.334 5.66699 -41.001 17s-16 25 -16 41c0 14 5.66699 27 17 39s24.666 18 39.999 18z" />
    <glyph glyph-name="Udieresis" unicode="&#xfc;" horiz-adv-x="1772" 
d="M971 25l-0.000976562 -13.0029c78.667 4.66699 146.667 17.5 204 38.5s104.833 50.333 142.5 88s65.834 84.834 84.501 141.501s28 122.334 28 197.001v950h-70v-948c0 -133.333 -30.667 -238.666 -92 -315.999s-160.333 -123.333 -297 -138zM839.999 11.9971v13.001
c-94 5.33301 -176.167 24.166 -246.5 56.499s-125.333 80.333 -165 144s-59.5 141.5 -59.5 233.5v968h-70v-1003c0 -123.333 43.167 -220.833 129.5 -292.5s223.5 -111.5 411.5 -119.5zM269.999 423.998v557.002c0 124 -8 270.667 -24 440l-209 33v10h729v-10l-264 -33
c-6.66699 -46.667 -12 -102.667 -16 -168s-7.5 -135 -10.5 -209s-4.5 -133.333 -4.5 -178v-411c0 -98 19.833 -176.833 59.5 -236.5s92 -101.834 157 -126.501s136.833 -37 215.5 -37c134 0 239.167 34 315.5 102s114.5 178 114.5 330v428c0 76 -2.66699 165.833 -8 269.5
s-12 182.5 -20 236.5l-263 33v10h725v-10l-204 -33c-9.33301 -43.333 -16.5 -115.5 -21.5 -216.5s-7.5 -185.833 -7.5 -254.5v-485c0 -75.333 -9 -139.333 -27 -192s-46 -98 -84 -136c-26 -26 -53.333 -48 -82 -66s-65 -33.667 -109 -47s-92 -23 -144 -29
s-116.333 -9 -193 -9c-125.333 0 -234.333 14 -327 42s-165.5 74.667 -218.5 140s-79.5 150.666 -79.5 255.999zM700.999 1669c14.667 0 27.832 -5.49902 39.499 -16.499s17.5 -24.5 17.5 -40.5s-5.66699 -29.667 -17 -41s-24.666 -17 -39.999 -17
c-17.333 0 -31.333 5.33301 -42 16s-16 24.667 -16 42s5.5 31.166 16.5 41.499s24.833 15.5 41.5 15.5zM1057 1669c16 0 29.501 -5.83203 40.501 -17.499s16.5 -24.834 16.5 -39.501c0 -16.667 -5.16699 -30.5 -15.5 -41.5s-24.166 -16.5 -41.499 -16.5
c-16.667 0 -30.334 5.66699 -41.001 17s-16 25 -16 41c0 14 5.66699 27 17 39s24.666 18 39.999 18z" />
    <glyph glyph-name="Yacute" unicode="&#xdd;" 
d="M766 39h68v625l-476 763h-73l481 -770v-618zM227 1419l-202 35.002v10h778v-10l-299 -35c44.667 -98.667 107.667 -213.667 189 -345s154 -238 218 -320c70 77.333 152.667 185.666 248 324.999s166.333 252.666 213 339.999l-293 35v10h582v-12l-172 -33
c-39.333 -46.667 -77.333 -94.667 -114 -144l-142 -198l-137 -198.5l-150 -227.5c-5.33301 -82 -8 -173.333 -8 -274c0 -137.333 10.333 -248 31 -332l248 -35v-10h-758v10l243 35c10.667 42 19.167 99.333 25.5 172s9.5 141 9.5 205c0 48 -2 123 -6 225
c-38.667 70.667 -87.834 154.5 -147.501 251.5s-121.167 192 -184.5 285s-120.666 171.5 -171.999 235.5zM877 1737h209l-434 -181h-25z" />
    <glyph glyph-name="Yacute" unicode="&#xfd;" 
d="M766 39h68v625l-476 763h-73l481 -770v-618zM227 1419l-202 35.002v10h778v-10l-299 -35c44.667 -98.667 107.667 -213.667 189 -345s154 -238 218 -320c70 77.333 152.667 185.666 248 324.999s166.333 252.666 213 339.999l-293 35v10h582v-12l-172 -33
c-39.333 -46.667 -77.333 -94.667 -114 -144l-142 -198l-137 -198.5l-150 -227.5c-5.33301 -82 -8 -173.333 -8 -274c0 -137.333 10.333 -248 31 -332l248 -35v-10h-758v10l243 35c10.667 42 19.167 99.333 25.5 172s9.5 141 9.5 205c0 48 -2 123 -6 225
c-38.667 70.667 -87.834 154.5 -147.501 251.5s-121.167 192 -184.5 285s-120.666 171.5 -171.999 235.5zM877 1737h209l-434 -181h-25z" />
    <glyph glyph-name="Thorn" unicode="&#xde;" horiz-adv-x="1280" 
d="M516 809l0.000976562 -383c25.333 -8 60.333 -12 105 -12c76.667 0 146.5 12.667 209.5 38s113.667 65 152 119s57.5 121.667 57.5 203c0 42 -6.5 86 -19.5 132s-33.5 88.833 -61.5 128.5s-65 72 -111 97s-99.333 37.5 -160 37.5
c-54.667 0 -104.334 -4.66699 -149.001 -14c-5.33301 -32 -10.5 -85.167 -15.5 -159.5s-7.5 -136.5 -7.5 -186.5zM752.001 385l-234.001 0.00195312c-1.33301 -27.333 -0.666016 -63 2.00098 -107s6.16699 -87 10.5 -129s9.16602 -75.333 14.499 -100l250 -37v-12h-752
l-4 14l242 35c7.33301 56 13 115.333 17 178s7.5 138.167 10.5 226.5s4.5 154.166 4.5 197.499v240c0 84.667 -2.66699 179.5 -8 284.5s-12 186.833 -20 245.5l-248 35l-2 12h837v-12l-305 -35c-20 -52 -30.667 -117.333 -32 -196h192c111.333 0 198.333 -9.5 261 -28.5
s115 -49.167 157 -90.5c24 -24 43.833 -51 59.5 -81s27.334 -62.333 35.001 -97s11.5 -68.334 11.5 -101.001c0 -78 -21.333 -151 -64 -219s-102 -122.167 -178 -162.5s-161.667 -60.5 -257 -60.5zM741 1202l-36 0.000976562v-8c60 -2.66699 113 -15.834 159 -39.501
s84.5 -55 115.5 -94s54.333 -82.667 70 -131s23.5 -99.5 23.5 -153.5c0 -82 -17.333 -149.5 -52 -202.5s-76.5 -91.333 -125.5 -115s-96.167 -37.167 -141.5 -40.5v-12h18c37.333 0 84.833 10.167 142.5 30.5s110.5 59.333 158.5 117s72 137.5 72 239.5
c0 64 -13.167 127.5 -39.5 190.5s-70 115.167 -131 156.5s-138.833 62 -233.5 62zM340 1430v-1389h70v1389h-70z" />
    <glyph glyph-name="Thorn" unicode="&#xfe;" horiz-adv-x="1280" 
d="M516 809l0.000976562 -383c25.333 -8 60.333 -12 105 -12c76.667 0 146.5 12.667 209.5 38s113.667 65 152 119s57.5 121.667 57.5 203c0 42 -6.5 86 -19.5 132s-33.5 88.833 -61.5 128.5s-65 72 -111 97s-99.333 37.5 -160 37.5
c-54.667 0 -104.334 -4.66699 -149.001 -14c-5.33301 -32 -10.5 -85.167 -15.5 -159.5s-7.5 -136.5 -7.5 -186.5zM752.001 385l-234.001 0.00195312c-1.33301 -27.333 -0.666016 -63 2.00098 -107s6.16699 -87 10.5 -129s9.16602 -75.333 14.499 -100l250 -37v-12h-752
l-4 14l242 35c7.33301 56 13 115.333 17 178s7.5 138.167 10.5 226.5s4.5 154.166 4.5 197.499v240c0 84.667 -2.66699 179.5 -8 284.5s-12 186.833 -20 245.5l-248 35l-2 12h837v-12l-305 -35c-20 -52 -30.667 -117.333 -32 -196h192c111.333 0 198.333 -9.5 261 -28.5
s115 -49.167 157 -90.5c24 -24 43.833 -51 59.5 -81s27.334 -62.333 35.001 -97s11.5 -68.334 11.5 -101.001c0 -78 -21.333 -151 -64 -219s-102 -122.167 -178 -162.5s-161.667 -60.5 -257 -60.5zM741 1202l-36 0.000976562v-8c60 -2.66699 113 -15.834 159 -39.501
s84.5 -55 115.5 -94s54.333 -82.667 70 -131s23.5 -99.5 23.5 -153.5c0 -82 -17.333 -149.5 -52 -202.5s-76.5 -91.333 -125.5 -115s-96.167 -37.167 -141.5 -40.5v-12h18c37.333 0 84.833 10.167 142.5 30.5s110.5 59.333 158.5 117s72 137.5 72 239.5
c0 64 -13.167 127.5 -39.5 190.5s-70 115.167 -131 156.5s-138.833 62 -233.5 62zM340 1430v-1389h70v1389h-70z" />
    <glyph glyph-name="divide" unicode="&#xf7;" horiz-adv-x="1124" 
d="M20 483v113h1078v-113h-1078zM434 819c0 32 11.166 59.165 33.499 81.498s49.5 33.5 81.5 33.5c20 0 38.833 -5 56.5 -15s31.834 -24 42.501 -42s16 -37.333 16 -58c0 -31.333 -11.5 -58.166 -34.5 -80.499s-49.833 -33.5 -80.5 -33.5c-31.333 0 -58.333 11.333 -81 34
s-34 49.334 -34 80.001zM433.999 259.998c0 32 11.166 59.167 33.499 81.5s49.5 33.5 81.5 33.5c20 0 38.833 -5 56.5 -15s31.834 -24 42.501 -42s16 -37.333 16 -58c0 -31.333 -11.333 -58.333 -34 -81s-49.667 -34 -81 -34c-32 0 -59.167 11.5 -81.5 34.5
s-33.5 49.833 -33.5 80.5z" />
    <glyph glyph-name="Ydieresis" unicode="&#xff;" 
d="M766 39h68v625l-476 763h-73l481 -770v-618zM227 1419l-202 35.002v10h778v-10l-299 -35c44.667 -98.667 107.667 -213.667 189 -345s154 -238 218 -320c70 77.333 152.667 185.666 248 324.999s166.333 252.666 213 339.999l-293 35v10h582v-12l-172 -33
c-39.333 -46.667 -77.333 -94.667 -114 -144l-142 -198l-137 -198.5l-150 -227.5c-5.33301 -82 -8 -173.333 -8 -274c0 -137.333 10.333 -248 31 -332l248 -35v-10h-758v10l243 35c10.667 42 19.167 99.333 25.5 172s9.5 141 9.5 205c0 48 -2 123 -6 225
c-38.667 70.667 -87.834 154.5 -147.501 251.5s-121.167 192 -184.5 285s-120.666 171.5 -171.999 235.5zM648 1669c14.667 0 27.832 -5.49902 39.499 -16.499s17.5 -24.5 17.5 -40.5s-5.66699 -29.667 -17 -41s-24.666 -17 -39.999 -17c-17.333 0 -31.333 5.33301 -42 16
s-16 24.667 -16 42s5.5 31.166 16.5 41.499s24.833 15.5 41.5 15.5zM1004 1669c16 0 29.501 -5.83203 40.501 -17.499s16.5 -24.834 16.5 -39.501c0 -16.667 -5.16699 -30.5 -15.5 -41.5s-24.166 -16.5 -41.499 -16.5c-16.667 0 -30.334 5.66699 -41.001 17s-16 25 -16 41
c0 14 5.66699 27 17 39s24.666 18 39.999 18z" />
    <glyph glyph-name="Ydieresis" unicode="&#x178;" 
d="M766 39h68v625l-476 763h-73l481 -770v-618zM227 1419l-202 35.002v10h778v-10l-299 -35c44.667 -98.667 107.667 -213.667 189 -345s154 -238 218 -320c70 77.333 152.667 185.666 248 324.999s166.333 252.666 213 339.999l-293 35v10h582v-12l-172 -33
c-39.333 -46.667 -77.333 -94.667 -114 -144l-142 -198l-137 -198.5l-150 -227.5c-5.33301 -82 -8 -173.333 -8 -274c0 -137.333 10.333 -248 31 -332l248 -35v-10h-758v10l243 35c10.667 42 19.167 99.333 25.5 172s9.5 141 9.5 205c0 48 -2 123 -6 225
c-38.667 70.667 -87.834 154.5 -147.501 251.5s-121.167 192 -184.5 285s-120.666 171.5 -171.999 235.5zM648 1669c14.667 0 27.832 -5.49902 39.499 -16.499s17.5 -24.5 17.5 -40.5s-5.66699 -29.667 -17 -41s-24.666 -17 -39.999 -17c-17.333 0 -31.333 5.33301 -42 16
s-16 24.667 -16 42s5.5 31.166 16.5 41.499s24.833 15.5 41.5 15.5zM1004 1669c16 0 29.501 -5.83203 40.501 -17.499s16.5 -24.834 16.5 -39.501c0 -16.667 -5.16699 -30.5 -15.5 -41.5s-24.166 -16.5 -41.499 -16.5c-16.667 0 -30.334 5.66699 -41.001 17s-16 25 -16 41
c0 14 5.66699 27 17 39s24.666 18 39.999 18z" />
    <glyph glyph-name="a" unicode="&#x100;" 
d="M820 1282l519 -1243h67l-553 1327zM804 1198c-18 -35.333 -41.832 -87 -71.499 -155l-80.5 -191l-75 -189.5l-52 -132.5c39.333 -5.33301 85.166 -9 137.499 -11s102.166 -3 149.499 -3c116.667 0 212.334 4.66699 287.001 14c-25.333 75.333 -68.333 182.5 -129 321.5
s-116 254.5 -166 346.5zM910.001 1479l433 -1033c56 -134.667 121.333 -268.334 196 -401.001l166 -35v-10h-706v10l272 35c-10 66 -28.5 137.833 -55.5 215.5s-56.833 145.167 -89.5 202.5h-627l-64.5 -166c-16.333 -43.333 -32 -88.333 -47 -135
s-24.833 -85.667 -29.5 -117l262 -35v-10h-559v10l184 35c44.667 77.333 85.667 162.666 123 255.999l463 1178h79z" />
    <glyph glyph-name="b" unicode="&#x101;" horiz-adv-x="1366" 
d="M14 10l251 37.001c11.333 54.667 20.333 148.5 27 281.5s10 236.5 10 310.5v322c0 90.667 -2.33301 177.5 -7 260.5s-11 148.833 -19 197.5l-260 35v10h743c106.667 0 191.334 -17.167 254.001 -51.5s106.667 -77.166 132 -128.499s38 -105.333 38 -162
c0 -101.333 -33.833 -181.5 -101.5 -240.5s-149.834 -92.833 -246.501 -101.5v-4c100 -4.66699 185.167 -25.334 255.5 -62.001s123.5 -83.834 159.5 -141.501s54 -119.5 54 -185.5c0 -56 -13.833 -113.333 -41.5 -172s-78 -109.167 -151 -151.5
s-170.833 -63.5 -293.5 -63.5h-804v10zM646 1409c-51.333 0 -90 -3.99902 -116 -11.999c-16.667 -106.667 -25 -233 -25 -379c0 -106.667 2 -175 6 -205c29.333 -12 69 -18 119 -18c66.667 0 126 12.167 178 36.5s93 60.333 123 108s45 106.5 45 176.5
c0 54 -11.333 103.167 -34 147.5s-58.667 79.666 -108 105.999s-112 39.5 -188 39.5zM648 741.002c-65.333 0 -111 -4.66699 -137 -14c-5.33301 -48.667 -8 -128 -8 -238c0 -130.667 4.66699 -256 14 -376c38 -21.333 72.167 -36 102.5 -44s67.833 -12 112.5 -12
c70.667 0 132.334 12.167 185.001 36.5s93.834 60.833 123.501 109.5s44.5 108 44.5 178s-16.833 132 -50.5 186s-83.334 96.5 -149.001 127.5s-144.834 46.5 -237.501 46.5zM331 1427v-1388h70v1388h-70zM673 1440l0.000976562 -8c72.667 -2 134.5 -16.833 185.5 -44.5
s89.167 -65.334 114.5 -113.001s38 -102.5 38 -164.5c0 -58.667 -11.167 -110.167 -33.5 -154.5s-50.833 -79.166 -85.5 -104.499s-70.667 -42.666 -108 -51.999v-11c92.667 12.667 164.834 49.5 216.501 110.5s77.5 133.5 77.5 217.5c0 52 -8.5 98.333 -25.5 139
s-41.333 75.167 -73 103.5s-67.834 49.666 -108.501 63.999s-87 21.5 -139 21.5c-12.667 0 -32.334 -1.33301 -59.001 -4zM784.001 760.002l0.00195312 -8.00098c58.667 -10.667 113.667 -31.5 165 -62.5s92.5 -72.667 123.5 -125s46.5 -114.833 46.5 -187.5
c0 -59.333 -12.833 -114.833 -38.5 -166.5s-67.334 -94.167 -125.001 -127.5s-129.834 -50 -216.501 -50v-8c10.667 -3.33301 30.334 -5 59.001 -5c84 0 156 16.833 216 50.5s104.833 77.834 134.5 132.501s44.5 112.667 44.5 174c0 73.333 -15.667 138.333 -47 195
s-77.833 101.5 -139.5 134.5s-135.834 50.833 -222.501 53.5z" />
    </font>
</defs>
</svg>
